<svg width="215" height="117" viewBox="0 0 215 117" fill="none" xmlns="http://www.w3.org/2000/svg">
<path d="M33.334 68.1829C13.5932 75.356 3.55268 103.716 1 117L215 106.041C215 71.8358 174.583 13.1888 174.583 8.40677C159.266 2.9273 157.99 7.90864 148.205 12.3918C138.419 16.875 125.656 44.2724 114.594 59.7146C103.533 75.1567 90.3439 70.1754 81.835 70.1754C73.326 70.1754 58.0099 59.2165 33.334 68.1829Z" fill="url(#paint0_linear_1578_8888)" fill-opacity="0.4"/>
<path d="M61.8387 65.6924L62.2048 64.2378L61.8387 65.6924ZM166.157 8.40706C166.157 12.8253 169.738 16.4071 174.157 16.4071C178.575 16.4071 182.157 12.8253 182.157 8.40706C182.157 3.98878 178.575 0.407063 174.157 0.407063C169.738 0.407063 166.157 3.98878 166.157 8.40706ZM3.30642 112.878C5.67472 103.336 11.4704 89.5965 21.0866 79.4122C30.6456 69.2885 43.9058 62.7259 61.4726 67.1471L62.2048 64.2378C43.3532 59.4933 29.0303 66.6294 18.9053 77.3526C8.83744 88.0152 2.84818 102.271 0.394756 112.156L3.30642 112.878ZM61.4726 67.1471C84.2127 72.8702 97.0194 73.5201 105.674 69.7448C114.371 65.9514 118.55 57.7921 124.407 47.5056L121.8 46.0212C115.744 56.6563 112.052 63.6901 104.475 66.995C96.8568 70.3181 84.9875 69.9717 62.2048 64.2378L61.4726 67.1471ZM124.407 47.5056C130.42 36.9445 136.686 24.9703 144.598 16.8646C148.528 12.8379 152.781 9.86054 157.505 8.48517C162.198 7.11862 167.487 7.29479 173.588 9.79504L174.726 7.01909C168.063 4.28892 162.077 4.02923 156.666 5.60479C151.286 7.17152 146.604 10.5143 142.451 14.7691C134.196 23.2262 127.699 35.6607 121.8 46.0212L124.407 47.5056Z" fill="#3D6498"/>
<defs>
<linearGradient id="paint0_linear_1578_8888" x1="78.4314" y1="8.40676" x2="95.7798" y2="104.717" gradientUnits="userSpaceOnUse">
<stop stop-color="#3D6498"/>
<stop offset="1" stop-color="#3D6498" stop-opacity="0"/>
</linearGradient>
</defs>
</svg>
