<svg width="437" height="396" viewBox="0 0 437 396" fill="none" xmlns="http://www.w3.org/2000/svg">
<path d="M423.254 375.931L415.562 368.422C421.964 359.26 419.204 352.512 413.707 346.3C410.393 342.557 401.729 343.126 391.085 344.478L332.268 287.082L323.219 290.434C323.219 290.434 347.696 319.875 370.623 346.948C361.099 347.786 351.519 347.797 343.579 345.182C319.825 337.361 300.597 320.601 300.597 320.601C273.45 322.836 314.17 366.411 330.005 378.702C361.676 403.282 378.507 398.813 400.994 382.255C405.032 386.813 407.95 389.953 409.183 390.992L409.42 391.193C419.555 399.506 432.619 385.081 423.254 375.931Z" fill="#DE771C"/>
<path opacity="0.5" d="M423.254 375.931L415.562 368.422C421.964 359.26 419.204 352.512 413.707 346.3C410.393 342.557 401.729 343.126 391.085 344.478L332.268 287.082L323.219 290.434C323.219 290.434 347.696 319.875 370.623 346.948C361.099 347.786 351.519 347.797 343.579 345.182C319.825 337.361 300.597 320.601 300.597 320.601C273.45 322.836 313.31 367.584 330.005 378.702C367.332 403.528 378.507 398.813 400.994 382.255C405.032 386.813 407.95 389.953 409.183 390.992L409.42 391.193C419.555 399.506 432.619 385.081 423.254 375.931Z" fill="white"/>
<path d="M63.8668 173.462C63.8668 173.462 93.6148 207.428 93.7732 249.506C93.9315 291.584 64.4549 325.83 64.4549 325.83C64.4549 325.83 34.7068 291.863 34.5485 249.797C34.3901 207.73 63.8668 173.462 63.8668 173.462Z" fill="#DE771C"/>
<path d="M129.233 269.708C129.233 269.708 129.414 297.361 114.382 314.937C99.3494 332.512 74.7931 333.361 74.7931 333.361C74.7931 333.361 74.6008 305.708 89.6445 288.132C104.688 270.557 129.233 269.708 129.233 269.708Z" fill="#DE771C"/>
<path d="M0.0271614 267.147C0.0271614 267.147 -1.21705 294.767 13.1367 313.047C27.4904 331.326 52.0015 333.359 52.0015 333.359C52.0015 333.359 53.2344 305.739 38.8807 287.46C24.5269 269.181 0.0271614 267.147 0.0271614 267.147Z" fill="#DE771C"/>
<g opacity="0.5">
<path d="M63.8668 173.462C63.8668 173.462 93.6148 207.428 93.7732 249.506C93.9315 291.584 64.4549 325.83 64.4549 325.83C64.4549 325.83 34.7068 291.863 34.5485 249.797C34.3901 207.73 63.8668 173.462 63.8668 173.462Z" fill="white"/>
<path d="M129.233 269.708C129.233 269.708 129.414 297.361 114.382 314.937C99.3494 332.512 74.7931 333.361 74.7931 333.361C74.7931 333.361 74.6008 305.708 89.6445 288.132C104.688 270.557 129.233 269.708 129.233 269.708Z" fill="white"/>
<path d="M0.0271614 267.147C0.0271614 267.147 -1.21705 294.767 13.1367 313.047C27.4904 331.326 52.0015 333.359 52.0015 333.359C52.0015 333.359 53.2344 305.739 38.8807 287.46C24.5269 269.181 0.0271614 267.147 0.0271614 267.147Z" fill="white"/>
</g>
<path d="M45.6108 286.958C45.6635 286.861 45.7388 286.778 45.8306 286.715C45.9224 286.653 46.028 286.613 46.1386 286.599C46.2492 286.584 46.3616 286.596 46.4665 286.634C46.5714 286.671 46.6659 286.733 46.7419 286.813L62.3738 300.612C62.4948 300.705 62.641 300.761 62.7941 300.773C62.9471 300.784 63.1002 300.751 63.2342 300.677C63.3682 300.603 63.4771 300.492 63.5474 300.357C63.6177 300.222 63.6462 300.07 63.6293 299.919L63.4597 268.087C63.4581 267.846 63.3653 267.615 63.1995 267.439L39.7291 244.076C39.5719 243.912 39.4787 243.699 39.4663 243.474C39.4538 243.249 39.5229 243.026 39.6612 242.847C39.7214 242.756 39.802 242.681 39.8967 242.626C39.9914 242.571 40.0976 242.539 40.2071 242.531C40.3166 242.524 40.4264 242.541 40.5279 242.582C40.6294 242.623 40.7199 242.687 40.7923 242.769L62.2041 264.087C62.3178 264.196 62.4634 264.268 62.6204 264.291C62.7774 264.314 62.9378 264.288 63.079 264.217C63.2202 264.145 63.3351 264.032 63.4075 263.892C63.4798 263.753 63.506 263.594 63.4823 263.439L63.3465 228.411C63.3497 228.17 63.2562 227.937 63.0864 227.763L47.5111 212.635C47.3522 212.473 47.257 212.26 47.2425 212.035C47.228 211.81 47.2951 211.587 47.4319 211.406C47.4912 211.314 47.571 211.238 47.6653 211.182C47.7595 211.126 47.8655 211.093 47.975 211.084C48.0845 211.075 48.1946 211.092 48.2966 211.132C48.3986 211.172 48.4898 211.236 48.563 211.316L62.0118 224.512C62.5095 225.004 63.29 224.601 63.29 223.853L63.0638 174.333C63.0513 174.118 63.1247 173.906 63.2685 173.743C63.4123 173.58 63.6148 173.479 63.8329 173.462C63.9414 173.468 64.0477 173.494 64.1457 173.541C64.2437 173.587 64.3314 173.652 64.4039 173.732C64.4764 173.812 64.5322 173.905 64.5682 174.007C64.6041 174.108 64.6195 174.215 64.6134 174.322L64.8962 247.64C64.8768 247.811 64.9165 247.983 65.009 248.129C65.1014 248.274 65.2411 248.385 65.4051 248.442C65.5692 248.499 65.748 248.499 65.9123 248.443C66.0767 248.387 66.2169 248.277 66.31 248.132L83.7291 219.45C83.7793 219.36 83.8486 219.282 83.9324 219.22C84.0162 219.159 84.1124 219.116 84.2144 219.095C84.3165 219.074 84.4219 219.075 84.5236 219.097C84.6253 219.12 84.7208 219.164 84.8036 219.227C84.9761 219.372 85.0911 219.573 85.1283 219.794C85.1656 220.014 85.1227 220.241 85.0072 220.434L65.0432 253.294L64.9188 253.193L65.0319 283.238C65.0123 283.393 65.0417 283.55 65.1158 283.688C65.19 283.826 65.3054 283.938 65.4464 284.009C65.5873 284.08 65.747 284.106 65.9035 284.084C66.0601 284.062 66.206 283.993 66.3214 283.886L87.5635 262.389C87.6338 262.305 87.7233 262.238 87.8246 262.195C87.9258 262.151 88.0361 262.132 88.1463 262.138C88.2566 262.145 88.3637 262.177 88.459 262.232C88.5543 262.287 88.635 262.364 88.6946 262.456C88.8329 262.635 88.902 262.857 88.8895 263.083C88.8771 263.308 88.784 263.521 88.6268 263.685L65.0884 287.517L65.2355 324.969C65.2432 325.077 65.2294 325.184 65.1948 325.286C65.1603 325.388 65.1057 325.482 65.0342 325.563C64.9628 325.644 64.8758 325.71 64.7784 325.758C64.6809 325.806 64.5749 325.834 64.4663 325.841C64.3573 325.837 64.2503 325.811 64.1516 325.765C64.0529 325.719 63.9646 325.654 63.8918 325.574C63.819 325.494 63.7632 325.4 63.7279 325.298C63.6925 325.196 63.6782 325.088 63.6859 324.981L63.6067 304.377C63.6084 304.25 63.5832 304.123 63.5325 304.006C63.4819 303.889 63.407 303.783 63.3126 303.696L45.7465 288.199C45.5762 288.043 45.4686 287.832 45.4436 287.604C45.4187 287.376 45.4781 287.147 45.6108 286.958Z" fill="white"/>
<path d="M0.852866 268.969C0.925289 268.887 1.01578 268.824 1.11728 268.782C1.21878 268.741 1.32855 268.724 1.43803 268.731C1.54751 268.739 1.65374 268.771 1.74844 268.826C1.84314 268.881 1.92374 268.956 1.98397 269.047L25.5788 298.701C26.0765 299.337 27.0153 298.868 26.9135 298.019L24.9794 280.723C24.9394 280.507 24.987 280.284 25.1118 280.102C25.2366 279.92 25.4287 279.794 25.6467 279.751C25.7534 279.742 25.861 279.754 25.9627 279.787C26.0645 279.82 26.1584 279.873 26.2388 279.943C26.3191 280.013 26.3843 280.099 26.4303 280.194C26.4763 280.29 26.5022 280.394 26.5063 280.5L29.04 303.036L38.1794 314.622C38.2785 314.743 38.4132 314.83 38.5648 314.872C38.7163 314.913 38.8772 314.907 39.0251 314.854C39.173 314.802 39.3007 314.705 39.3903 314.577C39.48 314.449 39.5272 314.297 39.5254 314.142L41.1881 297.606C41.1924 297.499 41.2182 297.394 41.2639 297.297C41.3097 297.201 41.3744 297.114 41.4544 297.042C41.5344 296.97 41.6281 296.915 41.73 296.88C41.8318 296.844 41.9398 296.829 42.0477 296.835C42.2655 296.875 42.4585 296.999 42.5853 297.178C42.7122 297.358 42.7628 297.58 42.7264 297.796L40.747 317.416C40.7198 317.659 40.7887 317.903 40.9393 318.097L53.257 333.594C53.3946 333.773 53.4643 333.994 53.454 334.219C53.4436 334.443 53.3539 334.657 53.2004 334.823C53.1288 334.905 53.039 334.97 52.938 335.012C52.837 335.054 52.7275 335.073 52.6181 335.066C52.5087 335.06 52.4022 335.028 52.307 334.975C52.2118 334.921 52.1305 334.846 52.0693 334.756L45.4184 326.388C45.3466 326.293 45.2523 326.217 45.1439 326.166C45.0355 326.115 44.9161 326.092 44.7963 326.097L32.5238 326.935C32.4154 326.935 32.308 326.914 32.2078 326.873C32.1077 326.832 32.0166 326.772 31.94 326.696C31.8633 326.62 31.8025 326.53 31.761 326.432C31.7195 326.333 31.6981 326.226 31.6981 326.119C31.6755 325.901 31.7394 325.682 31.8765 325.509C32.0136 325.336 32.2132 325.223 32.4333 325.192L42.2627 324.522C42.4163 324.492 42.5596 324.424 42.6787 324.324C42.7978 324.224 42.8885 324.095 42.9421 323.95C42.9957 323.805 43.0102 323.648 42.9843 323.496C42.9584 323.343 42.8929 323.2 42.7943 323.08L32.9423 310.689C32.8739 310.603 32.7864 310.533 32.6864 310.484C32.5865 310.436 32.4768 310.41 32.3655 310.41H14.8107C14.5926 310.393 14.39 310.292 14.2463 310.129C14.1025 309.966 14.029 309.754 14.0416 309.538C14.0339 309.431 14.0477 309.324 14.0822 309.222C14.1168 309.12 14.1713 309.026 14.2428 308.945C14.3143 308.864 14.4012 308.798 14.4987 308.75C14.5962 308.702 14.7022 308.674 14.8107 308.667H29.6056C29.7759 308.661 29.941 308.608 30.0821 308.514C30.2231 308.419 30.3343 308.287 30.4029 308.133C30.4714 307.979 30.4945 307.809 30.4695 307.643C30.4445 307.476 30.3725 307.32 30.2616 307.192L19.403 293.527C19.3345 293.437 19.2457 293.364 19.1436 293.314C19.0415 293.263 18.929 293.237 18.8148 293.237L7.50377 293.393C7.39528 293.388 7.289 293.361 7.19102 293.314C7.09304 293.268 7.00528 293.203 6.93278 293.123C6.86027 293.043 6.80445 292.95 6.7685 292.849C6.73256 292.747 6.7172 292.64 6.7233 292.533C6.71402 292.426 6.72629 292.318 6.75941 292.215C6.79252 292.113 6.84584 292.018 6.91628 291.936C6.98672 291.854 7.07289 291.786 7.16983 291.737C7.26678 291.688 7.37258 291.659 7.48115 291.65L16.0775 291.539C16.236 291.515 16.3855 291.451 16.5105 291.352C16.6355 291.253 16.7317 291.123 16.7893 290.975C16.8468 290.828 16.8636 290.667 16.8379 290.511C16.8122 290.355 16.745 290.208 16.6431 290.086L0.852866 270.198C0.707513 270.025 0.62793 269.808 0.62793 269.583C0.62793 269.359 0.707513 269.141 0.852866 268.969Z" fill="white"/>
<path d="M80.901 308.622C81.008 308.615 81.1155 308.628 81.2173 308.662C81.319 308.695 81.4131 308.748 81.494 308.818C81.5749 308.887 81.6411 308.972 81.6888 309.067C81.7365 309.162 81.7648 309.265 81.772 309.371L83.0954 320.354C83.0967 320.505 83.1444 320.653 83.232 320.776C83.3197 320.9 83.4432 320.995 83.5864 321.048C83.7296 321.101 83.8858 321.111 84.0343 321.074C84.1829 321.038 84.3169 320.959 84.4188 320.846L94.6553 308.879C94.8081 308.69 94.881 308.45 94.8589 308.209L93.6033 288.5C93.5743 288.283 93.6329 288.065 93.7664 287.891C93.8999 287.717 94.0974 287.603 94.3159 287.572C94.4233 287.569 94.5302 287.588 94.6302 287.626C94.7303 287.665 94.8215 287.723 94.8985 287.797C94.9755 287.871 95.0367 287.959 95.0784 288.057C95.1202 288.154 95.1417 288.259 95.1416 288.366L96.2728 304.98C96.2683 305.135 96.3117 305.287 96.3973 305.417C96.483 305.546 96.6066 305.647 96.7518 305.705C96.8969 305.764 97.0566 305.777 97.2096 305.743C97.3625 305.709 97.5013 305.63 97.6074 305.516L108.919 292.299C109.071 292.104 109.148 291.862 109.133 291.617L108.149 278.969C108.122 278.752 108.18 278.534 108.31 278.357C108.44 278.181 108.634 278.06 108.851 278.019C108.959 278.016 109.066 278.035 109.167 278.073C109.267 278.111 109.359 278.169 109.437 278.243C109.515 278.317 109.577 278.405 109.62 278.503C109.663 278.601 109.686 278.706 109.688 278.813L110.434 288.444C110.428 288.598 110.471 288.75 110.556 288.879C110.641 289.008 110.764 289.108 110.909 289.166C111.054 289.223 111.213 289.235 111.365 289.2C111.517 289.165 111.654 289.084 111.758 288.969L128.215 269.729C128.282 269.643 128.367 269.574 128.465 269.526C128.563 269.478 128.671 269.453 128.781 269.453C128.89 269.453 128.998 269.478 129.096 269.526C129.194 269.574 129.28 269.643 129.346 269.729C129.492 269.901 129.571 270.119 129.571 270.343C129.571 270.568 129.492 270.785 129.346 270.958L104.824 299.639C104.292 300.254 104.824 301.259 105.525 301.092L120.716 297.617C120.821 297.6 120.929 297.604 121.032 297.629C121.136 297.654 121.233 297.7 121.318 297.764C121.402 297.828 121.473 297.908 121.525 298C121.577 298.092 121.61 298.194 121.621 298.298C121.671 298.513 121.637 298.738 121.525 298.929C121.414 299.119 121.234 299.261 121.021 299.326L101.148 303.84L91.5673 315.013C91.46 315.133 91.3872 315.279 91.3564 315.436C91.3256 315.593 91.338 315.755 91.3923 315.906C91.4465 316.057 91.5408 316.19 91.6651 316.292C91.7894 316.395 91.9392 316.463 92.099 316.488L106.871 317.125C106.98 317.135 107.085 317.166 107.182 317.216C107.278 317.267 107.364 317.335 107.433 317.418C107.503 317.501 107.555 317.597 107.586 317.7C107.618 317.804 107.629 317.912 107.618 318.019C107.622 318.126 107.605 318.233 107.567 318.333C107.528 318.433 107.47 318.524 107.395 318.602C107.32 318.679 107.23 318.74 107.13 318.782C107.03 318.824 106.923 318.846 106.815 318.846L89.2825 318.097C89.1701 318.094 89.0585 318.116 88.9564 318.163C88.8543 318.209 88.7646 318.279 88.6943 318.365L75.8902 333.337C75.8237 333.423 75.7381 333.493 75.64 333.54C75.5419 333.588 75.434 333.613 75.3247 333.613C75.2153 333.613 75.1074 333.588 75.0093 333.54C74.9113 333.493 74.8256 333.423 74.7591 333.337C74.6138 333.165 74.5342 332.947 74.5342 332.723C74.5342 332.498 74.6138 332.281 74.7591 332.108L81.6815 324.019C81.7623 323.919 81.822 323.805 81.857 323.682C81.892 323.559 81.9015 323.431 81.8851 323.304L80.2337 309.583C80.2026 309.37 80.254 309.152 80.3776 308.974C80.5012 308.796 80.688 308.671 80.901 308.622Z" fill="white"/>
<path d="M363.033 285.327L195.007 332.042C193.193 332.483 191.284 332.341 189.558 331.638C187.831 330.935 186.376 329.707 185.404 328.132L57.9845 101.608C57.5524 100.935 57.2921 100.168 57.2258 99.3737C57.1596 98.5794 57.2894 97.781 57.6042 97.0471C57.9189 96.3132 58.4092 95.6656 59.033 95.16C59.6568 94.6544 60.3954 94.3059 61.1856 94.1442L229.211 47.4294C231.022 46.9867 232.929 47.1261 234.654 47.8274C236.379 48.5287 237.832 49.7553 238.803 51.3288L366.2 277.853C366.631 278.524 366.892 279.289 366.961 280.082C367.029 280.875 366.902 281.672 366.591 282.406C366.28 283.141 365.794 283.789 365.174 284.298C364.555 284.807 363.82 285.16 363.033 285.327Z" fill="#263238" stroke="black" stroke-miterlimit="10"/>
<path d="M192.643 322.108C192.643 322.108 289.737 299.293 355.092 276.936L192.643 322.108Z" fill="#884849"/>
<path d="M355.092 276.937L192.643 322.11L66.9883 98.7369L229.438 53.5752L355.092 276.937Z" fill="white" stroke="#263238" stroke-miterlimit="10"/>
<path d="M181.32 100.881L193.932 97.373" stroke="#263238" stroke-miterlimit="10"/>
<path d="M93.8408 125.205L171.559 103.597" stroke="#263238" stroke-miterlimit="10"/>
<path d="M167.488 114.758L198.82 106.043" stroke="#263238" stroke-miterlimit="10"/>
<path d="M119.473 128.111L158.937 117.139" stroke="#263238" stroke-miterlimit="10"/>
<path d="M98.7158 133.876L112.142 130.145" stroke="#263238" stroke-miterlimit="10"/>
<path d="M142.659 131.697L203.705 114.725" stroke="#263238" stroke-miterlimit="10"/>
<path d="M103.602 142.557L129.232 135.429" stroke="#263238" stroke-miterlimit="10"/>
<path d="M237.888 94.3457C236.281 91.7511 233.882 89.7277 231.036 88.567C228.19 87.4063 225.044 87.1684 222.052 87.8876C216.205 89.5189 213.841 95.0384 216.759 100.234C218.362 102.832 220.761 104.859 223.608 106.02C226.455 107.181 229.603 107.416 232.594 106.692C238.386 105.072 240.806 99.5412 237.888 94.3457Z" fill="white" stroke="#263238" stroke-miterlimit="10"/>
<path d="M128.215 160.378L115.604 163.886" stroke="#263238" stroke-miterlimit="10"/>
<path d="M215.695 136.055L137.977 157.663" stroke="#263238" stroke-miterlimit="10"/>
<path d="M151.81 163.854L120.479 172.569" stroke="#263238" stroke-miterlimit="10"/>
<path d="M199.825 150.502L160.36 161.474" stroke="#263238" stroke-miterlimit="10"/>
<path d="M220.581 144.736L207.154 148.468" stroke="#263238" stroke-miterlimit="10"/>
<path d="M186.4 164.267L125.365 181.239" stroke="#263238" stroke-miterlimit="10"/>
<path d="M225.467 153.406L199.825 160.535" stroke="#263238" stroke-miterlimit="10"/>
<path d="M259.65 133.038C258.047 130.44 255.648 128.413 252.801 127.252C249.953 126.091 246.806 125.855 243.814 126.58C237.966 128.2 235.602 133.731 238.521 138.87C240.122 141.47 242.521 143.498 245.369 144.659C248.216 145.82 251.364 146.055 254.356 145.328C260.193 143.753 262.568 138.222 259.65 133.038Z" fill="white" stroke="#263238" stroke-miterlimit="10"/>
<path d="M224.846 178.244L237.458 174.735" stroke="#263238" stroke-miterlimit="10"/>
<path d="M137.366 202.567L215.084 180.958" stroke="#263238" stroke-miterlimit="10"/>
<path d="M211.012 192.131L242.343 183.416" stroke="#263238" stroke-miterlimit="10"/>
<path d="M162.997 205.483L202.461 194.5" stroke="#263238" stroke-miterlimit="10"/>
<path d="M142.24 211.249L155.666 207.518" stroke="#263238" stroke-miterlimit="10"/>
<path d="M186.185 209.058L247.219 192.098" stroke="#263238" stroke-miterlimit="10"/>
<path d="M147.128 219.93L172.759 212.802" stroke="#263238" stroke-miterlimit="10"/>
<path d="M282.113 179.035C284.051 174.165 280.565 168.254 274.326 165.831C268.088 163.409 261.46 165.393 259.522 170.263C257.584 175.133 261.07 181.045 267.308 183.467C273.546 185.89 280.175 183.905 282.113 179.035Z" fill="white" stroke="#263238" stroke-miterlimit="10"/>
<path d="M171.74 237.751L159.128 241.259" stroke="#263238" stroke-miterlimit="10"/>
<path d="M259.22 213.428L181.502 235.037" stroke="#263238" stroke-miterlimit="10"/>
<path d="M195.336 241.227L164.004 249.93" stroke="#263238" stroke-miterlimit="10"/>
<path d="M243.351 227.875L203.887 238.847" stroke="#263238" stroke-miterlimit="10"/>
<path d="M264.106 222.098L250.68 225.829" stroke="#263238" stroke-miterlimit="10"/>
<path d="M229.924 241.64L168.89 258.612" stroke="#263238" stroke-miterlimit="10"/>
<path d="M268.981 230.778L243.351 237.907" stroke="#263238" stroke-miterlimit="10"/>
<path d="M303.162 210.4C301.558 207.803 299.159 205.777 296.312 204.616C293.465 203.455 290.319 203.219 287.327 203.942C281.479 205.573 279.115 211.092 282.033 216.288C283.636 218.886 286.035 220.913 288.882 222.074C291.729 223.235 294.877 223.47 297.869 222.746C303.717 221.159 306.092 215.573 303.162 210.4Z" fill="white" stroke="#263238" stroke-miterlimit="10"/>
<path d="M268.371 255.618L280.983 252.109" stroke="#263238" stroke-miterlimit="10"/>
<path d="M180.891 279.941L258.609 258.332" stroke="#263238" stroke-miterlimit="10"/>
<path d="M254.537 269.495L285.869 260.791" stroke="#263238" stroke-miterlimit="10"/>
<path d="M206.521 282.846L245.986 271.874" stroke="#263238" stroke-miterlimit="10"/>
<path d="M185.767 288.623L199.193 284.88" stroke="#263238" stroke-miterlimit="10"/>
<path d="M229.709 286.432L290.743 269.46" stroke="#263238" stroke-miterlimit="10"/>
<path d="M190.652 297.293L216.283 290.164" stroke="#263238" stroke-miterlimit="10"/>
<path d="M325.635 256.401C327.573 251.531 324.087 245.619 317.849 243.196C311.611 240.774 304.982 242.758 303.044 247.628C301.106 252.498 304.592 258.41 310.831 260.832C317.069 263.255 323.697 261.271 325.635 256.401Z" fill="white" stroke="#263238" stroke-miterlimit="10"/>
<path d="M174.444 57.3619L153.088 63.2948C151.471 63.3618 149.695 63.2389 149.197 62.4233C148.066 60.3227 149.514 58.3563 149.967 56.5015C150.49 54.3637 150.154 52.1087 149.028 50.2111C147.379 47.5417 144.913 45.4605 141.986 44.2691C139.06 43.0778 135.825 42.8383 132.751 43.5854C126.756 45.2614 124.336 50.9261 127.322 56.2445C128.787 58.7011 130.983 60.6519 133.611 61.8311C133.611 61.8311 137.943 63.7417 138.814 65.2836C139.278 66.0992 138.067 67.0601 136.834 67.7864L113.816 74.1886C112.949 74.3688 112.138 74.7538 111.453 75.3106C110.768 75.8675 110.23 76.5797 109.885 77.3865C109.539 78.1933 109.396 79.0707 109.468 79.9439C109.54 80.817 109.825 81.66 110.299 82.4008L113.409 87.9203L188.141 67.1495L185.031 61.6188C183.956 59.8875 182.349 58.5407 180.444 57.7749C178.54 57.0091 176.437 56.8644 174.444 57.3619ZM136.405 50.144C137.389 49.9031 138.426 49.979 139.364 50.3609C140.302 50.7428 141.092 51.4105 141.619 52.2669C141.853 52.6322 141.994 53.0482 142.029 53.4791C142.065 53.91 141.994 54.343 141.823 54.7408C141.651 55.1386 141.385 55.4894 141.046 55.763C140.707 56.0366 140.306 56.2249 139.877 56.3116C138.895 56.5528 137.861 56.478 136.925 56.0982C135.989 55.7184 135.201 55.0533 134.674 54.1999C134.44 53.8345 134.299 53.4186 134.263 52.9878C134.227 52.5569 134.297 52.1239 134.467 51.7255C134.637 51.3272 134.902 50.9753 135.239 50.6999C135.577 50.4246 135.977 50.2338 136.405 50.144Z" fill="#DE771C" stroke="#263238" stroke-miterlimit="10"/>
<path d="M220.525 94.993L229.744 101.351L239.245 80.3115" stroke="#DE771C" stroke-width="6" stroke-linecap="round" stroke-linejoin="round"/>
<path d="M241.947 133.083L251.166 139.429L260.667 118.401" stroke="#DE771C" stroke-width="6" stroke-linecap="round" stroke-linejoin="round"/>
<path d="M393.144 127.876C393.144 127.876 395.599 122.714 394.06 118.759C392.522 114.804 364.211 108.424 364.211 108.424C364.211 108.424 357.752 108.424 358.057 112.077C358.363 115.731 381.754 129.709 383.598 130.915C385.441 132.122 392.522 134.871 393.144 127.876Z" fill="white" stroke="#263238" stroke-linecap="round" stroke-linejoin="round"/>
<path d="M366.551 103.317C364.808 102.68 363.098 101.956 361.427 101.15C358.984 99.9432 361.665 105.496 362.649 105.731C363.633 105.966 366.042 106.457 366.042 106.457L366.551 103.317Z" fill="white" stroke="#263238" stroke-linecap="round" stroke-linejoin="round"/>
<path d="M282.058 157.362L267.908 174.378L269.13 176.814L289.139 171.999L429.973 91.0158C431.379 90.203 432.606 89.1204 433.582 87.8317C434.558 86.543 435.263 85.0744 435.655 83.5124C436.047 81.9505 436.119 80.3267 435.865 78.737C435.612 77.1473 435.039 75.6237 434.181 74.2561C433.323 72.9016 432.201 71.7292 430.88 70.8072C429.559 69.8853 428.065 69.2321 426.486 68.8859C424.907 68.5396 423.274 68.5071 421.682 68.7903C420.091 69.0735 418.572 69.6667 417.214 70.5354L282.058 157.362Z" fill="#DE771C" stroke="#263238" stroke-linecap="round" stroke-linejoin="round"/>
<path d="M352.819 125.82L348.227 128.748" stroke="#263238" stroke-linecap="round" stroke-linejoin="round"/>
<path d="M392.352 100.703L358.43 122.267" stroke="#263238" stroke-linecap="round" stroke-linejoin="round"/>
<path d="M269.219 174.021C269.219 174.021 265.702 175.474 266.244 176.938C266.787 178.401 271.832 174.859 271.832 174.859L269.219 174.021Z" fill="#DE771C" stroke="#263238" stroke-linecap="round" stroke-linejoin="round"/>
<path d="M267.908 174.379L269.13 176.815L289.139 171.999C278.054 167.742 282.058 157.407 282.058 157.407L267.908 174.379Z" fill="white" stroke="#263238" stroke-linecap="round" stroke-linejoin="round"/>
<path d="M434.181 74.178C433.323 72.8235 432.201 71.6511 430.88 70.7291C429.559 69.8071 428.065 69.154 426.486 68.8077C424.907 68.4615 423.274 68.429 421.682 68.7122C420.09 68.9954 418.571 69.5886 417.214 70.4573L392.646 86.2561C391.985 87.9217 391.647 89.6958 391.651 91.4851C391.581 95.0724 392.952 98.5412 395.463 101.133C397.975 103.725 401.423 105.23 405.055 105.317L430.018 90.9711C431.425 90.1547 432.652 89.0679 433.627 87.7748C434.601 86.4818 435.303 85.0089 435.691 83.4432C436.079 81.8775 436.145 80.2509 435.886 78.6595C435.626 77.068 435.047 75.5441 434.181 74.178Z" fill="white" stroke="#263238" stroke-linecap="round" stroke-linejoin="round"/>
<path d="M434.179 74.178C433.322 72.8235 432.199 71.6511 430.878 70.7291C429.557 69.8071 428.064 69.154 426.485 68.8077C424.906 68.4615 423.273 68.429 421.681 68.7122C420.089 68.9954 418.57 69.5886 417.213 70.4573L398.55 82.4684C397.647 84.3072 397.179 86.3244 397.181 88.3678C397.157 90.107 397.48 91.8337 398.133 93.4492C398.785 95.0647 399.754 96.5373 400.983 97.7826C402.212 99.028 403.678 100.022 405.296 100.707C406.915 101.392 408.654 101.755 410.415 101.776C410.72 101.776 411.037 101.776 411.331 101.776L430.017 91.0382C431.433 90.2219 432.669 89.132 433.649 87.8337C434.63 86.5354 435.335 85.0551 435.724 83.4814C436.112 81.9078 436.176 80.2729 435.91 78.6744C435.645 77.0759 435.056 75.5467 434.179 74.178Z" fill="#263238" stroke="#263238" stroke-linecap="round" stroke-linejoin="round"/>
<path d="M350.93 108.871C350.93 108.871 348.192 108.871 348.192 110.1C348.192 111.329 347.469 115.687 349.052 115.564C350.636 115.441 350.5 112.703 350.636 111.743C350.771 110.782 350.93 108.871 350.93 108.871Z" fill="white" stroke="#263238" stroke-linecap="round" stroke-linejoin="round"/>
<path d="M353.916 104.424C353.916 104.424 351.473 103.675 350.907 105.161C350.342 106.647 349.776 113.709 351.473 113.519C353.17 113.329 353.543 107.027 353.916 104.424Z" fill="white" stroke="#263238" stroke-linecap="round" stroke-linejoin="round"/>
<path d="M357.683 104.792C357.683 104.792 354.855 102.379 353.917 104.424C352.978 106.468 352.785 112.245 353.917 112.245C355.048 112.245 356.744 109.831 357.118 108.535C357.399 107.303 357.588 106.052 357.683 104.792Z" fill="white" stroke="#263238" stroke-linecap="round" stroke-linejoin="round"/>
<path d="M361.676 105.909C361.676 105.909 358.102 102.937 357.536 103.496C356.971 104.054 354.709 109.775 356.405 110.926C358.102 112.077 360.251 106.937 360.251 106.937L361.676 105.909Z" fill="white" stroke="#263238" stroke-linecap="round" stroke-linejoin="round"/>
<path d="M310.018 123.542C310.018 123.542 310.414 129.497 312.02 130.893C312.992 131.724 313.868 132.657 314.633 133.676C314.855 135.19 314.991 136.716 315.041 138.245C315.041 140.033 316.251 139.832 317.303 139.832C318.355 139.832 320.119 143.184 321.126 144.793C323.044 147.133 325.336 149.149 327.913 150.759C329.722 151.754 332.742 147.977 332.742 147.977L334.145 151.955L348.431 142.815L341.395 129.296C340.98 124.609 339.536 120.068 337.165 115.988C333.138 108.838 327.709 104.815 318.66 107.441C309.611 110.067 310.018 123.542 310.018 123.542Z" fill="white" stroke="#263238" stroke-linecap="round" stroke-linejoin="round"/>
<path d="M326.544 97.0606C323.17 97.2064 319.84 97.8659 316.67 99.0159C311.387 100.859 310.087 108.122 305.483 110.725C300.879 113.329 302.848 108.491 300.54 109.742C298.233 110.994 295.937 122.424 300.868 125.675C305.8 128.926 313.05 124.703 313.05 124.703C313.05 124.703 312.394 126.938 314.362 127.63C315.553 128.02 316.766 128.345 317.993 128.602C317.993 128.602 317.654 132.513 320.617 132.178C323.581 131.843 320.957 127.306 320.957 127.306C320.957 127.306 326.556 138.032 330.842 139.34C335.129 140.647 341.373 134.781 343.013 132.178C344.653 129.574 343.341 111.049 339.722 103.899C336.102 96.7478 326.544 97.0606 326.544 97.0606Z" fill="#263238" stroke="#263238" stroke-linecap="round" stroke-linejoin="round"/>
<path d="M321.08 134.267C321.08 134.267 319.067 126.714 322.279 127.708C325.491 128.703 327.312 135.463 327.109 136.256C326.905 137.049 325.299 137.44 324.496 137.25" fill="white"/>
<path d="M321.08 134.267C321.08 134.267 319.067 126.714 322.279 127.708C325.491 128.703 327.312 135.463 327.109 136.256C326.905 137.049 325.299 137.44 324.496 137.25" stroke="#263238" stroke-linecap="round" stroke-linejoin="round"/>
<path d="M344.325 137.005C340.575 139.086 336.99 141.447 333.602 144.066C330.209 147.049 327.166 155.988 327.166 155.988C327.166 155.988 347.888 142.077 351.507 140.1C355.127 138.122 355.93 137.116 355.93 137.116C355.93 137.116 348.352 136.01 344.325 137.005Z" fill="white" stroke="#263238" stroke-linecap="round" stroke-linejoin="round"/>
<path d="M372.219 124.837C373.094 123.306 374.286 121.973 375.716 120.926C377.146 119.879 378.783 119.141 380.521 118.759C386.369 117.541 394.094 121.496 394.988 127.876C395.881 134.256 390.984 137.306 387.907 137.306C384.831 137.306 382.059 133.049 382.059 133.049C382.059 133.049 372.219 129.396 372.219 124.837Z" fill="white" stroke="#263238" stroke-linecap="round" stroke-linejoin="round"/>
<path d="M289.749 192.625L299.601 166.781C298.499 167.755 297.075 168.295 295.597 168.301C293.131 168.301 287.294 167.396 288.81 166.479C290.326 165.563 296.185 161.619 296.185 161.619C296.185 161.619 291.887 162.535 290.654 161.619C289.421 160.703 288.81 159.485 289.726 159.183C290.643 158.882 292.498 159.183 295.88 157.966C299.262 156.748 300.8 155.541 303.571 155.541C306.342 155.541 308.808 160.401 308.808 161.921C308.808 163.44 306.648 192.312 306.648 193.53C306.648 194.747 306.648 195.965 298.651 196.882C290.654 197.798 289.444 195.965 289.749 192.625Z" fill="white" stroke="#263238" stroke-linecap="round" stroke-linejoin="round"/>
<path d="M299.602 166.781L301.061 161.105" stroke="#263238" stroke-linecap="round" stroke-linejoin="round"/>
<path d="M299.284 186.233C299.284 186.233 289.443 188.971 287.6 193.228C285.756 197.485 286.061 203.865 289.749 207.518C293.436 211.172 294.986 212.077 298.978 210.557C302.971 209.038 303.91 206.602 304.216 204.166C304.521 201.731 306.67 193.529 299.284 186.233Z" fill="white" stroke="#263238" stroke-linecap="round" stroke-linejoin="round"/>
<path d="M295.293 315.115C295.293 315.115 286.674 311.16 283.292 312.68C279.91 314.199 279.898 315.719 284.208 322.411C288.517 329.104 300.518 337.305 304.568 335.473C308.617 333.64 304.873 321.495 304.873 321.495L295.293 315.115Z" fill="white" stroke="#263238" stroke-linecap="round" stroke-linejoin="round"/>
<path d="M289.138 324.533C286.148 321.263 283.635 317.597 281.672 313.64C280.089 315.025 280.768 317.059 284.206 322.411C288.516 329.114 300.517 337.304 304.566 335.472C305.08 335.146 305.504 334.698 305.798 334.169C306.092 333.641 306.248 333.047 306.251 332.444C300.596 334.802 294.748 330.656 289.138 324.533Z" fill="white" stroke="#263238" stroke-linecap="round" stroke-linejoin="round"/>
<path d="M339.597 222.099L339.902 231.228C339.902 231.228 321.137 238.211 311.907 244.635C302.678 251.06 296.524 255.876 295.597 261.954C294.669 268.032 295.291 315.149 295.291 315.149C295.291 315.149 292.52 315.752 293.448 317.574C294.375 319.395 296.208 326.087 298.673 326.691C301.139 327.294 304.216 328.523 304.827 327.004C305.437 325.484 307.292 316.367 308.525 313.328C309.758 310.289 311.907 296.021 313.751 285.965C314.831 280.351 315.448 274.66 315.595 268.948C322.092 268.054 328.484 266.527 334.677 264.39C345.445 260.736 361.133 254.054 361.133 254.054C361.133 254.054 373.756 285.339 376.527 291.44C379.299 297.54 390.101 311.194 392.216 315.149C394.331 319.104 407.904 336.121 407.904 336.121C407.904 336.121 413.141 331.562 416.523 331.562H421.138C421.138 331.562 415.596 316.367 410.958 307.238C406.321 298.11 396.808 283.227 396.808 283.227C396.808 283.227 388.2 230.055 387.884 226.39C387.284 219.373 382.737 208.781 382.737 208.781C382.737 208.781 367.908 205.686 339.597 222.099Z" fill="#263238" stroke="#263238" stroke-linecap="round" stroke-linejoin="round"/>
<path d="M407.903 336.087C407.113 337.361 406.395 338.678 405.754 340.031C405.449 340.947 398.673 341.863 399.601 344.903C400.528 347.942 407.598 350.366 410.98 350.679C414.362 350.992 421.16 346.422 422.37 345.204C423.094 344.489 424.18 339.763 423.603 336.087C423.227 334.37 422.373 332.791 421.137 331.528C421.137 331.528 415.289 322.713 407.903 336.087Z" fill="white" stroke="#263238" stroke-linecap="round" stroke-linejoin="round"/>
<path d="M423.605 336.088C423.29 334.545 422.568 333.111 421.512 331.932C420.238 331.942 418.98 332.207 417.813 332.712C416.647 333.218 415.596 333.952 414.726 334.87C411.649 338.513 413.187 346.725 409.489 347.943C406.74 348.848 401.933 345.529 399.671 343.786C399.545 344.148 399.545 344.542 399.671 344.904C400.587 347.943 407.667 350.367 411.049 350.68C414.431 350.993 421.229 346.423 422.44 345.205C423.096 344.49 424.182 339.764 423.605 336.088Z" fill="white" stroke="#263238" stroke-linecap="round" stroke-linejoin="round"/>
<path d="M415.595 338.21C414.374 343.685 415.912 347.327 410.98 350.679C414.374 350.981 421.16 346.422 422.371 345.204C423.095 344.489 424.18 339.763 423.604 336.087C423.471 335.325 423.216 334.589 422.846 333.908H422.371C422.371 333.908 416.828 332.746 415.595 338.21Z" fill="#263238" stroke="#263238" stroke-linecap="round" stroke-linejoin="round"/>
<path d="M364.209 253.406L382.363 244.602" stroke="white" stroke-linecap="round" stroke-linejoin="round"/>
<path d="M372.523 249.462L388.212 247.328" stroke="white" stroke-linecap="round" stroke-linejoin="round"/>
<path d="M378.642 122.714C373.417 123.318 359.877 132.435 358.95 133.351C358.022 134.267 354.335 136.39 352.797 137.608C352.797 137.608 321.126 157.06 318.332 158.837C315.538 160.614 310.029 164.312 310.335 165.541C310.64 166.77 294.024 193.474 294.024 193.474C294.024 193.474 289.104 199.865 293.719 205.63C298.334 211.395 302.643 207.462 304.792 206.245C306.942 205.027 323.874 189.217 323.874 189.217L339.483 226.088C339.483 226.088 361.099 211.775 384.185 212.68L368.79 153.105C368.79 153.105 390.033 137.306 390.643 131.876C391.254 126.446 383.902 122.1 378.642 122.714Z" fill="white"/>
<mask id="mask0_1578_9199" style="mask-type:luminance" maskUnits="userSpaceOnUse" x="291" y="122" width="100" height="105">
<path d="M378.642 122.714C373.417 123.318 359.877 132.435 358.95 133.351C358.022 134.267 354.335 136.39 352.797 137.608C352.797 137.608 321.126 157.06 318.332 158.837C315.538 160.614 310.029 164.312 310.335 165.541C310.64 166.77 294.024 193.474 294.024 193.474C294.024 193.474 289.104 199.865 293.719 205.63C298.334 211.395 302.643 207.462 304.792 206.245C306.942 205.027 323.874 189.217 323.874 189.217L339.483 226.088C339.483 226.088 361.099 211.775 384.185 212.68L368.79 153.105C368.79 153.105 390.033 137.306 390.643 131.876C391.254 126.446 383.902 122.1 378.642 122.714Z" fill="white"/>
</mask>
<g mask="url(#mask0_1578_9199)">
<path d="M378.642 122.714C376.55 122.96 373.122 124.569 369.695 126.468C370.476 126.32 371.284 126.401 372.018 126.704C372.753 127.006 373.38 127.514 373.824 128.167C376.369 131.396 370.917 141.798 370.917 141.798C370.917 141.798 368.655 127.429 368.745 131.742C368.836 136.055 367.614 149.317 367.614 149.317C367.614 149.317 360.352 140.714 360.714 142.859C361.076 145.005 365.793 165.094 368.7 172.625C371.607 180.155 366.517 201.306 363.621 207.395C360.726 213.485 362.49 181.585 359.255 189.518C356.02 197.451 345.105 219.272 342.56 221.429C340.015 223.585 343.374 192.189 344.279 188.099C343.148 191.518 335.672 213.183 335.672 213.183L325.492 187.362C325.492 187.362 308.073 173.384 309.882 175.887C311.692 178.39 316.058 186.289 316.058 186.289C316.058 186.289 305.528 184.133 307.349 184.859C309.17 185.585 317.144 189.518 317.144 189.518C317.144 189.518 300.811 200.993 296.094 202.423C294.826 202.791 293.521 203.027 292.203 203.127C292.543 204.064 293.036 204.94 293.662 205.719C298.277 211.496 302.587 207.552 304.736 206.334C306.885 205.116 323.818 189.306 323.818 189.306L339.427 226.177C339.427 226.177 361.042 211.865 384.128 212.77L368.734 153.195C368.734 153.195 389.976 137.396 390.587 131.966C391.198 126.535 383.902 122.1 378.642 122.714Z" fill="#DE771C"/>
<path opacity="0.5" d="M378.642 122.714C376.55 122.96 373.122 124.569 369.695 126.468C370.476 126.32 371.284 126.401 372.018 126.704C372.753 127.006 373.38 127.514 373.824 128.167C376.369 131.396 370.917 141.798 370.917 141.798C370.917 141.798 368.655 127.429 368.745 131.742C368.836 136.055 367.614 149.317 367.614 149.317C367.614 149.317 360.352 140.714 360.714 142.859C361.076 145.005 365.793 165.094 368.7 172.625C371.607 180.155 366.517 201.306 363.621 207.395C360.726 213.485 362.49 181.585 359.255 189.518C356.02 197.451 345.105 219.272 342.56 221.429C340.015 223.585 343.374 192.189 344.279 188.099C343.148 191.518 335.672 213.183 335.672 213.183L325.492 187.362C325.492 187.362 308.073 173.384 309.882 175.887C311.692 178.39 316.058 186.289 316.058 186.289C316.058 186.289 305.528 184.133 307.349 184.859C309.17 185.585 317.144 189.518 317.144 189.518C317.144 189.518 300.811 200.993 296.094 202.423C294.826 202.791 293.521 203.027 292.203 203.127C292.543 204.064 293.036 204.94 293.662 205.719C298.277 211.496 302.587 207.552 304.736 206.334C306.885 205.116 323.818 189.306 323.818 189.306L339.427 226.177C339.427 226.177 361.042 211.865 384.128 212.77L368.734 153.195C368.734 153.195 389.976 137.396 390.587 131.966C391.198 126.535 383.902 122.1 378.642 122.714Z" fill="white"/>
</g>
<path d="M378.642 122.714C373.417 123.318 359.877 132.435 358.95 133.351C358.022 134.267 354.335 136.39 352.797 137.608C352.797 137.608 321.126 157.06 318.332 158.837C315.538 160.614 310.029 164.312 310.335 165.541C310.64 166.77 294.024 193.474 294.024 193.474C294.024 193.474 289.104 199.865 293.719 205.63C298.334 211.395 302.643 207.462 304.792 206.245C306.942 205.027 323.874 189.217 323.874 189.217L339.483 226.088C339.483 226.088 361.099 211.775 384.185 212.68L368.79 153.105C368.79 153.105 390.033 137.306 390.643 131.876C391.254 126.446 383.902 122.1 378.642 122.714Z" stroke="#263238" stroke-linecap="round" stroke-linejoin="round"/>
<path d="M339.518 226.089C338.616 217.727 339.055 209.277 340.818 201.05L339.518 226.089Z" fill="white"/>
<path d="M339.518 226.089C338.616 217.727 339.055 209.277 340.818 201.05" stroke="#263238" stroke-linecap="round" stroke-linejoin="round"/>
<path d="M336.6 207.462C336.6 207.462 336.6 202.323 342.447 186.233L336.6 207.462Z" fill="white"/>
<path d="M336.6 207.462C336.6 207.462 336.6 202.323 342.447 186.233" stroke="#263238" stroke-linecap="round" stroke-linejoin="round"/>
<path d="M311.907 175.91L323.908 189.273L311.602 180.458" fill="white"/>
<path d="M311.907 175.91L323.908 189.273L311.602 180.458" stroke="#263238" stroke-linecap="round" stroke-linejoin="round"/>
<path d="M368.824 136.089V153.105L372.828 131.229" fill="white"/>
<path d="M368.824 136.089V153.105L372.828 131.229" stroke="#263238" stroke-linecap="round" stroke-linejoin="round"/>
<path d="M344.459 187.641C344.414 187.765 344.38 187.892 344.357 188.021C344.493 187.641 344.539 187.496 344.459 187.641Z" fill="#263238"/>
</svg>
