<svg width="38" height="40" viewBox="0 0 38 40" fill="none" xmlns="http://www.w3.org/2000/svg">
<g clip-path="url(#clip0_1578_8795)">
<path d="M22.1663 13.3337H7.38856C7.10861 13.3337 6.84013 13.2166 6.64217 13.0082C6.44422 12.7998 6.33301 12.5172 6.33301 12.2225V7.7781C6.33301 7.48342 6.44422 7.2008 6.64217 6.99243C6.84013 6.78406 7.10861 6.66699 7.38856 6.66699H22.1663C22.4463 6.66699 22.7148 6.78406 22.9127 6.99243C23.1107 7.2008 23.2219 7.48342 23.2219 7.7781V12.2225C23.2219 12.5172 23.1107 12.7998 22.9127 13.0082C22.7148 13.2166 22.4463 13.3337 22.1663 13.3337ZM8.44412 11.1114H21.1108V8.82255H8.44412V11.1114Z" fill="black"/>
<path d="M22.1663 15.6445H7.38856C7.10861 15.6445 6.84013 15.7616 6.64217 15.97C6.44422 16.1783 6.33301 16.461 6.33301 16.7556V21.1112C6.33301 21.4059 6.44422 21.6885 6.64217 21.8969C6.84013 22.1052 7.10861 22.2223 7.38856 22.2223H19.3797L23.2219 18.1112V16.7556C23.2219 16.461 23.1107 16.1783 22.9127 15.97C22.7148 15.7616 22.4463 15.6445 22.1663 15.6445ZM21.1108 20.0001H8.44412V17.7779H21.1108V20.0001Z" fill="black"/>
<path d="M11.6747 35.0115V34.9449L12.0124 33.4004H4.22244V4.44488H25.3336V15.8338L27.4447 13.7338V3.33377C27.4447 3.03908 27.3335 2.75647 27.1355 2.54809C26.9375 2.33972 26.6691 2.22266 26.3891 2.22266H3.16688C2.88693 2.22266 2.61845 2.33972 2.42049 2.54809C2.22254 2.75647 2.11133 3.03908 2.11133 3.33377V34.4449C2.11133 34.7396 2.22254 35.0222 2.42049 35.2306C2.61845 35.4389 2.88693 35.556 3.16688 35.556H11.6113C11.6199 35.3731 11.641 35.1912 11.6747 35.0115Z" fill="black"/>
<path d="M23.2218 21.2998L22.3984 22.1776C22.6027 22.1333 22.7899 22.0262 22.9365 21.87C23.083 21.7138 23.1823 21.5154 23.2218 21.2998Z" fill="black"/>
<path d="M6.33301 29.9332C6.33301 30.2279 6.44422 30.5105 6.64217 30.7189C6.84013 30.9273 7.10861 31.0443 7.38856 31.0443H12.4975L12.8141 29.5999L12.9513 28.9888V28.9332H8.44412V26.6666H15.1363L17.2475 24.4443H7.38856C7.10861 24.4443 6.84013 24.5614 6.64217 24.7698C6.44422 24.9781 6.33301 25.2608 6.33301 25.5554V29.9332Z" fill="black"/>
<path d="M35.3501 18.5221L31.7929 14.7776C31.635 14.611 31.4474 14.4788 31.241 14.3886C31.0345 14.2984 30.8131 14.252 30.5895 14.252C30.366 14.252 30.1446 14.2984 29.9381 14.3886C29.7316 14.4788 29.5441 14.611 29.3862 14.7776L14.9145 30.0999L13.7218 35.4443C13.6771 35.6749 13.6761 35.9125 13.7188 36.1434C13.7615 36.3744 13.8471 36.5942 13.9706 36.7903C14.0942 36.9864 14.2533 37.155 14.4388 37.2863C14.6243 37.4175 14.8326 37.509 15.0518 37.5554C15.1606 37.5666 15.2702 37.5666 15.379 37.5554C15.5084 37.5767 15.6401 37.5767 15.7695 37.5554L20.889 36.3665L35.3501 21.111C35.5081 20.9457 35.6334 20.7493 35.719 20.5328C35.8046 20.3164 35.8486 20.0843 35.8486 19.8499C35.8486 19.6154 35.8046 19.3833 35.719 19.1669C35.6334 18.9505 35.5081 18.754 35.3501 18.5888V18.5221ZM19.8123 34.3443L15.949 35.2443L16.8884 31.211L27.7395 19.6665L30.7162 22.7999L19.8123 34.3443ZM31.909 21.5443L28.9323 18.411L30.6106 16.6665L33.6084 19.8221L31.909 21.5443Z" fill="black"/>
</g>
<defs>
<clipPath id="clip0_1578_8795">
<rect width="38" height="40" fill="white"/>
</clipPath>
</defs>
</svg>
