<svg width="20" height="21" viewBox="0 0 20 21" fill="none" xmlns="http://www.w3.org/2000/svg">
<path d="M9.99935 6.54199C10.1651 6.54199 10.3241 6.60784 10.4413 6.72505C10.5585 6.84226 10.6243 7.00123 10.6243 7.16699V11.3337C10.6243 11.4994 10.5585 11.6584 10.4413 11.7756C10.3241 11.8928 10.1651 11.9587 9.99935 11.9587C9.83359 11.9587 9.67462 11.8928 9.55741 11.7756C9.4402 11.6584 9.37435 11.4994 9.37435 11.3337V7.16699C9.37435 7.00123 9.4402 6.84226 9.55741 6.72505C9.67462 6.60784 9.83359 6.54199 9.99935 6.54199ZM9.99935 14.667C10.2204 14.667 10.4323 14.5792 10.5886 14.4229C10.7449 14.2666 10.8327 14.0547 10.8327 13.8337C10.8327 13.6126 10.7449 13.4007 10.5886 13.2444C10.4323 13.0881 10.2204 13.0003 9.99935 13.0003C9.77834 13.0003 9.56637 13.0881 9.41009 13.2444C9.25381 13.4007 9.16602 13.6126 9.16602 13.8337C9.16602 14.0547 9.25381 14.2666 9.41009 14.4229C9.56637 14.5792 9.77834 14.667 9.99935 14.667Z" fill="#5C5858"/>
<path fill-rule="evenodd" clip-rule="evenodd" d="M6.91114 4.23C7.80448 3.09583 8.75114 2.375 9.99948 2.375C11.2478 2.375 12.1945 3.09583 13.0878 4.23C13.9661 5.34667 14.8961 6.99667 16.0878 9.10917L16.4511 9.7525C17.4353 11.4983 18.2136 12.8775 18.622 13.9833C19.0386 15.115 19.1386 16.1417 18.507 17.0475C17.8945 17.9267 16.872 18.2858 15.582 18.4558C14.2978 18.625 12.5695 18.625 10.3536 18.625H9.64531C7.42864 18.625 5.70114 18.625 4.41698 18.4558C3.12698 18.2858 2.10448 17.9267 1.49198 17.0475C0.860309 16.1417 0.959476 15.1142 1.37698 13.9833C1.78531 12.8767 2.56364 11.4983 3.54781 9.7525L3.91114 9.10917C5.10198 6.99667 6.03281 5.34583 6.91114 4.23ZM7.89364 5.00333C7.08198 6.03417 6.19698 7.6 4.97031 9.775L4.66698 10.3125C3.64531 12.1242 2.91948 13.4158 2.55031 14.4167C2.18531 15.405 2.23531 15.9283 2.51698 16.3333C2.81781 16.7633 3.38198 17.0583 4.58031 17.2167C5.77364 17.3733 7.41864 17.375 9.69698 17.375H10.3028C12.5803 17.375 14.2253 17.3733 15.4195 17.2167C16.617 17.0583 17.1811 16.7633 17.4811 16.3333C17.7636 15.9283 17.8145 15.405 17.4495 14.4167C17.0795 13.4158 16.3536 12.1242 15.332 10.3125L15.0286 9.775C13.802 7.6 12.917 6.03417 12.1053 5.00333C11.3011 3.98333 10.677 3.625 9.99948 3.625C9.32198 3.625 8.69781 3.9825 7.89364 5.00333Z" fill="#5C5858"/>
</svg>
