<svg width="21" height="21" viewBox="0 0 21 21" fill="none" xmlns="http://www.w3.org/2000/svg">
<path d="M10.4993 6.54199C10.6651 6.54199 10.8241 6.60784 10.9413 6.72505C11.0585 6.84226 11.1243 7.00123 11.1243 7.16699V11.3337C11.1243 11.4994 11.0585 11.6584 10.9413 11.7756C10.8241 11.8928 10.6651 11.9587 10.4993 11.9587C10.3336 11.9587 10.1746 11.8928 10.0574 11.7756C9.9402 11.6584 9.87435 11.4994 9.87435 11.3337V7.16699C9.87435 7.00123 9.9402 6.84226 10.0574 6.72505C10.1746 6.60784 10.3336 6.54199 10.4993 6.54199ZM10.4993 14.667C10.7204 14.667 10.9323 14.5792 11.0886 14.4229C11.2449 14.2666 11.3327 14.0547 11.3327 13.8337C11.3327 13.6126 11.2449 13.4007 11.0886 13.2444C10.9323 13.0881 10.7204 13.0003 10.4993 13.0003C10.2783 13.0003 10.0664 13.0881 9.91009 13.2444C9.75381 13.4007 9.66602 13.6126 9.66602 13.8337C9.66602 14.0547 9.75381 14.2666 9.91009 14.4229C10.0664 14.5792 10.2783 14.667 10.4993 14.667Z" fill="white"/>
<path fill-rule="evenodd" clip-rule="evenodd" d="M7.41114 4.23C8.30448 3.09583 9.25114 2.375 10.4995 2.375C11.7478 2.375 12.6945 3.09583 13.5878 4.23C14.4661 5.34667 15.3961 6.99667 16.5878 9.10917L16.9511 9.7525C17.9353 11.4983 18.7136 12.8775 19.122 13.9833C19.5386 15.115 19.6386 16.1417 19.007 17.0475C18.3945 17.9267 17.372 18.2858 16.082 18.4558C14.7978 18.625 13.0695 18.625 10.8536 18.625H10.1453C7.92864 18.625 6.20114 18.625 4.91698 18.4558C3.62698 18.2858 2.60448 17.9267 1.99198 17.0475C1.36031 16.1417 1.45948 15.1142 1.87698 13.9833C2.28531 12.8767 3.06364 11.4983 4.04781 9.7525L4.41114 9.10917C5.60198 6.99667 6.53281 5.34583 7.41114 4.23ZM8.39364 5.00333C7.58198 6.03417 6.69698 7.6 5.47031 9.775L5.16698 10.3125C4.14531 12.1242 3.41948 13.4158 3.05031 14.4167C2.68531 15.405 2.73531 15.9283 3.01698 16.3333C3.31781 16.7633 3.88198 17.0583 5.08031 17.2167C6.27364 17.3733 7.91864 17.375 10.197 17.375H10.8028C13.0803 17.375 14.7253 17.3733 15.9195 17.2167C17.117 17.0583 17.6811 16.7633 17.9811 16.3333C18.2636 15.9283 18.3145 15.405 17.9495 14.4167C17.5795 13.4158 16.8536 12.1242 15.832 10.3125L15.5286 9.775C14.302 7.6 13.417 6.03417 12.6053 5.00333C11.8011 3.98333 11.177 3.625 10.4995 3.625C9.82198 3.625 9.19781 3.9825 8.39364 5.00333Z" fill="white"/>
</svg>
