<svg width="221" height="117" viewBox="0 0 221 117" fill="none" xmlns="http://www.w3.org/2000/svg">
<path d="M34.462 68.1829C14.1918 75.356 3.88189 103.716 1.26074 117L221.001 106.041C221.001 71.8358 179.499 13.1888 179.499 8.40677C163.772 2.9273 162.462 7.90864 152.414 12.3918C142.366 16.875 129.26 44.2724 117.902 59.7146C106.544 75.1567 93.001 70.1754 84.2638 70.1754C75.5267 70.1754 59.7998 59.2165 34.462 68.1829Z" fill="url(#paint0_linear_1578_8912)" fill-opacity="0.4"/>
<path d="M63.7318 65.6924L64.0889 64.2355L63.7318 65.6924ZM171.062 8.40706C171.062 12.8253 174.644 16.4071 179.062 16.4071C183.481 16.4071 187.062 12.8253 187.062 8.40706C187.062 3.98878 183.481 0.407063 179.062 0.407063C174.644 0.407063 171.062 3.98878 171.062 8.40706ZM3.5883 112.887C6.01879 103.351 11.9681 89.6124 21.8437 79.4265C31.6614 69.3004 45.3002 62.7192 63.3747 67.1493L64.0889 64.2355C44.7683 59.5 30.0841 66.6174 19.6898 77.3382C9.35348 87.9993 3.2018 102.256 0.681226 112.147L3.5883 112.887ZM63.3747 67.1493C86.726 72.8728 99.8516 73.5153 108.714 69.7505C117.628 65.9638 121.916 57.8135 127.934 47.5205L125.344 46.0063C119.13 56.6349 115.337 63.6777 107.541 66.9893C99.6936 70.3229 87.4814 69.9691 64.0889 64.2355L63.3747 67.1493ZM127.934 47.5205C134.109 36.9599 140.543 24.9856 148.668 16.8787C152.704 12.8516 157.078 9.8676 161.943 8.48808C166.78 7.1163 172.229 7.29491 178.506 9.80021L179.618 7.01391C172.79 4.28881 166.662 4.03155 161.124 5.60188C155.614 7.16446 150.813 10.5005 146.549 14.7549C138.074 23.211 131.402 35.6452 125.344 46.0063L127.934 47.5205Z" fill="#FFA800"/>
<defs>
<linearGradient id="paint0_linear_1578_8912" x1="80.7689" y1="8.40676" x2="97.6916" y2="104.873" gradientUnits="userSpaceOnUse">
<stop stop-color="#FFA800"/>
<stop offset="1" stop-color="#FFA800" stop-opacity="0"/>
</linearGradient>
</defs>
</svg>
