<svg width="613" height="245" viewBox="0 0 613 245" fill="none" xmlns="http://www.w3.org/2000/svg">
<path d="M92.9565 139.13C36.5016 154.833 7.7875 216.92 0.487305 246L612.487 222.009C612.487 147.127 496.901 18.7377 496.901 8.26888C453.1 -3.72673 449.45 7.17837 421.465 16.993C393.481 26.8075 356.98 86.7856 325.346 120.591C293.712 154.397 255.994 143.492 231.66 143.492C207.326 143.492 163.525 119.501 92.9565 139.13Z" fill="url(#paint0_linear_2077_10180)" fill-opacity="0.4"/>
<path d="M174.476 133.681L174.759 132.209L174.476 133.681ZM487.684 8.27301C487.684 12.6913 491.266 16.273 495.684 16.273C500.103 16.273 503.684 12.6913 503.684 8.27301C503.684 3.85473 500.103 0.273009 495.684 0.273009C491.266 0.273009 487.684 3.85473 487.684 8.27301ZM4.34777 236.652C11.1687 215.615 27.8733 185.234 55.7578 162.627C83.5901 140.063 122.588 125.213 174.192 135.154L174.759 132.209C122.213 122.085 82.3288 137.224 53.8685 160.297C25.4604 183.328 8.4624 214.234 1.49402 235.727L4.34777 236.652ZM174.192 135.154C239.269 147.692 274.914 148.874 298.598 140.966C322.401 133.018 333.931 115.929 350.884 93.1375L348.477 91.347C331.362 114.357 320.383 130.529 297.648 138.12C274.792 145.752 239.868 144.752 174.759 132.209L174.192 135.154ZM350.884 93.1375C367.985 70.1467 386.09 43.6474 409.008 25.6747C431.807 7.79388 459.286 -1.57293 495.235 9.70424L496.133 6.84178C459.08 -4.78175 430.591 4.93535 407.156 23.314C383.839 41.6007 365.443 68.5364 348.477 91.347L350.884 93.1375Z" fill="#FFA800"/>
<defs>
<linearGradient id="paint0_linear_2077_10180" x1="221.927" y1="8.26885" x2="251.383" y2="221.89" gradientUnits="userSpaceOnUse">
<stop stop-color="#FFA800"/>
<stop offset="1" stop-color="#FFA800" stop-opacity="0"/>
</linearGradient>
</defs>
</svg>
