<svg width="221" height="117" viewBox="0 0 221 117" fill="none" xmlns="http://www.w3.org/2000/svg">
<path d="M34.0034 68.1829C13.6834 75.356 3.34828 103.716 0.720703 117L220.999 106.041C220.999 71.8358 179.396 13.1888 179.396 8.40677C163.631 2.9273 162.317 7.90864 152.244 12.3918C142.172 16.875 129.034 44.2724 117.648 59.7146C106.262 75.1567 92.686 70.1754 83.9274 70.1754C75.1688 70.1754 59.4033 59.2165 34.0034 68.1829Z" fill="url(#paint0_linear_1578_8900)" fill-opacity="0.4"/>
<path d="M63.3448 65.6924L63.7011 64.2353L63.3448 65.6924ZM170.958 8.40706C170.958 12.8253 174.54 16.4071 178.958 16.4071C183.377 16.4071 186.958 12.8253 186.958 8.40706C186.958 3.98878 183.377 0.407063 178.958 0.407063C174.54 0.407063 170.958 3.98878 170.958 8.40706ZM3.05 112.888C5.48633 103.352 11.45 89.6138 21.35 79.4278C31.1921 69.3015 44.8664 62.7186 62.9885 67.1495L63.7011 64.2353C44.3364 59.5006 29.6183 66.6164 19.1987 77.3369C8.83717 87.9978 2.67024 102.255 0.143358 112.146L3.05 112.888ZM62.9885 67.1495C86.3972 72.873 99.5528 73.5148 108.435 69.751C117.369 65.9649 121.668 57.8155 127.701 47.5218L125.113 46.0049C118.884 56.6329 115.08 63.6765 107.264 66.9888C99.3952 70.3234 87.1509 69.9689 63.7011 64.2353L62.9885 67.1495ZM127.701 47.5218C133.89 36.9614 140.34 24.987 148.485 16.88C152.532 12.8529 156.916 9.86824 161.795 8.48834C166.646 7.1161 172.109 7.29492 178.403 9.80068L179.513 7.01344C172.669 4.2888 166.528 4.03176 160.978 5.60161C155.455 7.16382 150.644 10.4993 146.369 14.7536C137.873 23.2096 131.185 35.6438 125.113 46.0049L127.701 47.5218Z" fill="#12B76A"/>
<defs>
<linearGradient id="paint0_linear_1578_8900" x1="80.4239" y1="8.40676" x2="97.3076" y2="104.887" gradientUnits="userSpaceOnUse">
<stop stop-color="#12B76A"/>
<stop offset="1" stop-color="#12B76A" stop-opacity="0"/>
</linearGradient>
</defs>
</svg>
