<svg width="437" height="396" viewBox="0 0 437 396" fill="none" xmlns="http://www.w3.org/2000/svg">
<path d="M423.253 375.93L415.562 368.422C421.964 359.26 419.204 352.512 413.706 346.299C410.392 342.556 401.728 343.126 391.084 344.478L332.267 287.082L323.218 290.434C323.218 290.434 347.695 319.875 370.623 346.947C361.099 347.785 351.518 347.797 343.578 345.182C319.825 337.361 300.596 320.601 300.596 320.601C273.449 322.836 314.169 366.411 330.005 378.701C361.676 403.282 378.506 398.813 400.993 382.254C405.031 386.813 407.949 389.953 409.182 390.992L409.42 391.193C419.554 399.506 432.619 385.081 423.253 375.93Z" fill="#DE771C"/>
<path opacity="0.5" d="M423.253 375.93L415.561 368.422C421.963 359.26 419.203 352.511 413.706 346.299C410.392 342.556 401.728 343.126 391.084 344.478L332.267 287.082L323.218 290.434C323.218 290.434 347.695 319.875 370.622 346.947C361.098 347.785 351.518 347.796 343.578 345.182C319.824 337.361 300.596 320.601 300.596 320.601C273.449 322.836 313.309 367.584 330.004 378.701C367.331 403.528 378.506 398.813 400.993 382.254C405.031 386.813 407.949 389.953 409.182 390.992L409.419 391.193C419.554 399.506 432.618 385.081 423.253 375.93Z" fill="white"/>
<path d="M63.867 173.462C63.867 173.462 93.6151 207.429 93.7734 249.507C93.9318 291.584 64.4552 325.83 64.4552 325.83C64.4552 325.83 34.7071 291.864 34.5487 249.797C34.3904 207.73 63.867 173.462 63.867 173.462Z" fill="#DE771C"/>
<path d="M129.233 269.708C129.233 269.708 129.414 297.361 114.382 314.937C99.3494 332.512 74.7931 333.361 74.7931 333.361C74.7931 333.361 74.6008 305.708 89.6445 288.132C104.688 270.557 129.233 269.708 129.233 269.708Z" fill="#DE771C"/>
<path d="M0.0271614 267.148C0.0271614 267.148 -1.21705 294.768 13.1367 313.047C27.4904 331.327 52.0015 333.36 52.0015 333.36C52.0015 333.36 53.2344 305.74 38.8807 287.461C24.5269 269.182 0.0271614 267.148 0.0271614 267.148Z" fill="#DE771C"/>
<g opacity="0.5">
<path d="M63.867 173.462C63.867 173.462 93.6151 207.429 93.7734 249.507C93.9318 291.584 64.4552 325.83 64.4552 325.83C64.4552 325.83 34.7071 291.864 34.5487 249.797C34.3904 207.73 63.867 173.462 63.867 173.462Z" fill="white"/>
<path d="M129.233 269.708C129.233 269.708 129.414 297.361 114.382 314.937C99.3494 332.512 74.7931 333.361 74.7931 333.361C74.7931 333.361 74.6008 305.708 89.6445 288.132C104.688 270.557 129.233 269.708 129.233 269.708Z" fill="white"/>
<path d="M0.0271614 267.148C0.0271614 267.148 -1.21705 294.768 13.1367 313.047C27.4904 331.327 52.0015 333.36 52.0015 333.36C52.0015 333.36 53.2344 305.74 38.8807 287.461C24.5269 269.182 0.0271614 267.148 0.0271614 267.148Z" fill="white"/>
</g>
<path d="M45.6108 286.959C45.6635 286.862 45.7388 286.778 45.8306 286.716C45.9224 286.653 46.028 286.613 46.1386 286.599C46.2492 286.585 46.3616 286.597 46.4665 286.634C46.5714 286.671 46.6659 286.733 46.7419 286.814L62.3738 300.612C62.4948 300.706 62.641 300.761 62.7941 300.773C62.9471 300.785 63.1002 300.751 63.2342 300.677C63.3682 300.603 63.4771 300.492 63.5474 300.357C63.6177 300.223 63.6462 300.07 63.6293 299.92L63.4597 268.087C63.4581 267.847 63.3653 267.616 63.1995 267.439L39.7291 244.076C39.5719 243.913 39.4787 243.699 39.4663 243.474C39.4538 243.249 39.5229 243.027 39.6612 242.847C39.7214 242.757 39.802 242.681 39.8967 242.626C39.9914 242.571 40.0976 242.539 40.2071 242.531C40.3166 242.524 40.4264 242.541 40.5279 242.583C40.6294 242.624 40.7199 242.688 40.7923 242.769L62.2041 264.087C62.3178 264.197 62.4634 264.268 62.6204 264.292C62.7774 264.315 62.9378 264.289 63.079 264.217C63.2202 264.146 63.3351 264.032 63.4075 263.892C63.4798 263.753 63.506 263.594 63.4823 263.439L63.3465 228.412C63.3497 228.17 63.2562 227.937 63.0864 227.764L47.5111 212.635C47.3522 212.473 47.257 212.26 47.2425 212.035C47.228 211.81 47.2951 211.587 47.4319 211.406C47.4912 211.315 47.571 211.238 47.6653 211.182C47.7595 211.127 47.8655 211.093 47.975 211.084C48.0845 211.076 48.1946 211.092 48.2966 211.133C48.3986 211.173 48.4898 211.236 48.563 211.317L62.0118 224.512C62.5095 225.004 63.29 224.602 63.29 223.853L63.0638 174.334C63.0513 174.118 63.1247 173.906 63.2685 173.743C63.4123 173.58 63.6148 173.479 63.8329 173.462C63.9414 173.468 64.0477 173.495 64.1457 173.541C64.2437 173.588 64.3314 173.653 64.4039 173.732C64.4764 173.812 64.5322 173.906 64.5682 174.007C64.6041 174.108 64.6195 174.215 64.6134 174.323L64.8962 247.641C64.8768 247.811 64.9165 247.984 65.009 248.129C65.1014 248.275 65.2411 248.385 65.4051 248.442C65.5692 248.499 65.748 248.499 65.9123 248.443C66.0767 248.387 66.2169 248.277 66.31 248.132L83.7291 219.451C83.7793 219.361 83.8486 219.282 83.9324 219.221C84.0162 219.159 84.1124 219.117 84.2144 219.095C84.3165 219.074 84.4219 219.075 84.5236 219.098C84.6253 219.121 84.7208 219.165 84.8036 219.227C84.9761 219.373 85.0911 219.573 85.1283 219.794C85.1656 220.015 85.1227 220.241 85.0072 220.434L65.0432 253.294L64.9188 253.194L65.0319 283.238C65.0123 283.393 65.0417 283.55 65.1158 283.688C65.19 283.826 65.3054 283.938 65.4464 284.009C65.5873 284.08 65.747 284.106 65.9035 284.084C66.0601 284.062 66.206 283.993 66.3214 283.886L87.5635 262.389C87.6338 262.305 87.7233 262.238 87.8246 262.195C87.9258 262.151 88.0361 262.132 88.1463 262.139C88.2566 262.145 88.3637 262.177 88.459 262.233C88.5543 262.288 88.635 262.364 88.6946 262.456C88.8329 262.636 88.902 262.858 88.8895 263.083C88.8771 263.308 88.784 263.522 88.6268 263.685L65.0884 287.517L65.2355 324.97C65.2432 325.077 65.2294 325.184 65.1948 325.286C65.1603 325.388 65.1057 325.482 65.0342 325.563C64.9628 325.644 64.8758 325.711 64.7784 325.758C64.6809 325.806 64.5749 325.834 64.4663 325.841C64.3573 325.837 64.2503 325.811 64.1516 325.765C64.0529 325.719 63.9646 325.654 63.8918 325.574C63.819 325.494 63.7632 325.4 63.7279 325.298C63.6925 325.196 63.6782 325.088 63.6859 324.981L63.6067 304.378C63.6084 304.25 63.5832 304.124 63.5325 304.006C63.4819 303.889 63.407 303.783 63.3126 303.696L45.7465 288.199C45.5762 288.043 45.4686 287.832 45.4436 287.604C45.4187 287.376 45.4781 287.147 45.6108 286.959Z" fill="white"/>
<path d="M0.852866 268.97C0.925289 268.888 1.01578 268.824 1.11728 268.783C1.21878 268.742 1.32855 268.724 1.43803 268.732C1.54751 268.74 1.65374 268.772 1.74844 268.827C1.84314 268.882 1.92374 268.957 1.98397 269.048L25.5788 298.701C26.0765 299.338 27.0153 298.869 26.9135 298.02L24.9794 280.724C24.9394 280.508 24.987 280.285 25.1118 280.103C25.2366 279.921 25.4287 279.795 25.6467 279.752C25.7534 279.743 25.861 279.755 25.9627 279.788C26.0645 279.821 26.1584 279.874 26.2388 279.944C26.3191 280.014 26.3843 280.1 26.4303 280.195C26.4763 280.291 26.5022 280.395 26.5063 280.5L29.04 303.037L38.1794 314.623C38.2785 314.744 38.4132 314.831 38.5648 314.872C38.7163 314.914 38.8772 314.908 39.0251 314.855C39.173 314.802 39.3007 314.705 39.3903 314.578C39.48 314.45 39.5272 314.298 39.5254 314.143L41.1881 297.606C41.1924 297.5 41.2182 297.395 41.2639 297.298C41.3097 297.202 41.3744 297.115 41.4544 297.043C41.5344 296.971 41.6281 296.916 41.73 296.88C41.8318 296.845 41.9398 296.829 42.0477 296.835C42.2655 296.876 42.4585 297 42.5853 297.179C42.7122 297.359 42.7628 297.58 42.7264 297.796L40.747 317.416C40.7198 317.659 40.7887 317.904 40.9393 318.098L53.257 333.595C53.3946 333.774 53.4643 333.995 53.454 334.22C53.4436 334.444 53.3539 334.658 53.2004 334.824C53.1288 334.906 53.039 334.971 52.938 335.013C52.837 335.055 52.7275 335.073 52.6181 335.067C52.5087 335.061 52.4022 335.029 52.307 334.975C52.2118 334.922 52.1305 334.847 52.0693 334.757L45.4184 326.388C45.3466 326.293 45.2523 326.217 45.1439 326.167C45.0355 326.116 44.9161 326.092 44.7963 326.098L32.5238 326.936C32.4154 326.936 32.308 326.915 32.2078 326.874C32.1077 326.833 32.0166 326.773 31.94 326.697C31.8633 326.621 31.8025 326.531 31.761 326.432C31.7195 326.333 31.6981 326.227 31.6981 326.12C31.6755 325.902 31.7394 325.683 31.8765 325.51C32.0136 325.337 32.2132 325.223 32.4333 325.193L42.2627 324.522C42.4163 324.493 42.5596 324.425 42.6787 324.325C42.7978 324.225 42.8885 324.096 42.9421 323.951C42.9957 323.805 43.0102 323.649 42.9843 323.497C42.9584 323.344 42.8929 323.201 42.7943 323.081L32.9423 310.69C32.8739 310.603 32.7864 310.533 32.6864 310.485C32.5865 310.437 32.4768 310.411 32.3655 310.411H14.8107C14.5926 310.394 14.39 310.293 14.2463 310.13C14.1025 309.967 14.029 309.755 14.0416 309.539C14.0339 309.432 14.0477 309.324 14.0822 309.223C14.1168 309.121 14.1713 309.027 14.2428 308.946C14.3143 308.865 14.4012 308.798 14.4987 308.751C14.5962 308.703 14.7022 308.675 14.8107 308.668H29.6056C29.7759 308.662 29.941 308.609 30.0821 308.514C30.2231 308.42 30.3343 308.288 30.4029 308.134C30.4714 307.98 30.4945 307.81 30.4695 307.643C30.4445 307.477 30.3725 307.321 30.2616 307.193L19.403 293.528C19.3345 293.438 19.2457 293.365 19.1436 293.314C19.0415 293.264 18.929 293.238 18.8148 293.238L7.50377 293.394C7.39528 293.388 7.289 293.362 7.19102 293.315C7.09304 293.269 7.00528 293.204 6.93278 293.124C6.86027 293.044 6.80445 292.951 6.7685 292.85C6.73256 292.748 6.7172 292.641 6.7233 292.534C6.71402 292.427 6.72629 292.319 6.75941 292.216C6.79252 292.114 6.84584 292.019 6.91628 291.937C6.98672 291.855 7.07289 291.787 7.16983 291.738C7.26678 291.689 7.37258 291.66 7.48115 291.651L16.0775 291.539C16.236 291.516 16.3855 291.452 16.5105 291.353C16.6355 291.254 16.7317 291.124 16.7893 290.976C16.8468 290.828 16.8636 290.668 16.8379 290.512C16.8122 290.356 16.745 290.209 16.6431 290.087L0.852866 270.199C0.707513 270.026 0.62793 269.809 0.62793 269.584C0.62793 269.36 0.707513 269.142 0.852866 268.97Z" fill="white"/>
<path d="M80.9005 308.623C81.0075 308.615 81.115 308.629 81.2168 308.662C81.3185 308.696 81.4126 308.749 81.4935 308.818C81.5744 308.888 81.6407 308.973 81.6884 309.068C81.7361 309.163 81.7643 309.266 81.7715 309.372L83.0949 320.355C83.0962 320.506 83.1439 320.653 83.2315 320.777C83.3192 320.901 83.4427 320.996 83.5859 321.049C83.7291 321.102 83.8853 321.111 84.0339 321.075C84.1824 321.039 84.3164 320.959 84.4183 320.846L94.6548 308.88C94.8076 308.691 94.8806 308.451 94.8584 308.21L93.6029 288.5C93.5738 288.284 93.6324 288.065 93.7659 287.892C93.8994 287.718 94.0969 287.603 94.3155 287.573C94.4228 287.57 94.5297 287.588 94.6297 287.627C94.7298 287.665 94.821 287.723 94.898 287.797C94.975 287.871 95.0362 287.96 95.0779 288.057C95.1197 288.155 95.1412 288.26 95.1412 288.366L96.2723 304.981C96.2678 305.135 96.3112 305.288 96.3969 305.417C96.4825 305.547 96.6061 305.648 96.7513 305.706C96.8964 305.764 97.0562 305.777 97.2091 305.744C97.362 305.71 97.5008 305.631 97.607 305.517L108.918 292.299C109.071 292.105 109.147 291.863 109.133 291.617L108.149 278.97C108.122 278.753 108.18 278.534 108.31 278.358C108.44 278.182 108.633 278.061 108.85 278.02C108.958 278.017 109.065 278.035 109.166 278.073C109.267 278.112 109.359 278.17 109.437 278.243C109.515 278.317 109.577 278.406 109.62 278.503C109.663 278.601 109.686 278.706 109.687 278.813L110.434 288.444C110.428 288.598 110.471 288.75 110.556 288.88C110.641 289.009 110.764 289.109 110.909 289.166C111.053 289.224 111.212 289.236 111.364 289.2C111.516 289.165 111.653 289.085 111.757 288.969L128.215 269.729C128.281 269.644 128.367 269.574 128.465 269.526C128.563 269.479 128.671 269.454 128.78 269.454C128.89 269.454 128.998 269.479 129.096 269.526C129.194 269.574 129.279 269.644 129.346 269.729C129.491 269.902 129.571 270.119 129.571 270.344C129.571 270.568 129.491 270.786 129.346 270.958L104.823 299.64C104.292 300.254 104.823 301.26 105.525 301.092L120.715 297.617C120.821 297.6 120.928 297.604 121.032 297.63C121.135 297.655 121.232 297.701 121.317 297.765C121.402 297.829 121.473 297.909 121.525 298.001C121.577 298.093 121.609 298.194 121.62 298.299C121.67 298.513 121.636 298.739 121.525 298.929C121.414 299.12 121.234 299.262 121.021 299.327L101.147 303.841L91.5669 315.014C91.4595 315.134 91.3867 315.28 91.3559 315.437C91.3251 315.594 91.3375 315.756 91.3918 315.906C91.4461 316.057 91.5403 316.191 91.6646 316.293C91.7889 316.395 91.9387 316.463 92.0985 316.489L106.871 317.126C106.979 317.136 107.085 317.166 107.181 317.217C107.278 317.267 107.363 317.336 107.433 317.419C107.502 317.502 107.554 317.598 107.586 317.701C107.617 317.804 107.628 317.912 107.617 318.02C107.622 318.127 107.604 318.233 107.566 318.333C107.528 318.434 107.469 318.525 107.394 318.602C107.319 318.68 107.229 318.741 107.13 318.783C107.03 318.825 106.923 318.846 106.814 318.846L89.282 318.098C89.1696 318.094 89.058 318.117 88.9559 318.163C88.8538 318.21 88.7641 318.279 88.6939 318.366L75.8897 333.338C75.8232 333.424 75.7376 333.493 75.6395 333.541C75.5414 333.589 75.4335 333.614 75.3242 333.614C75.2148 333.614 75.1069 333.589 75.0088 333.541C74.9108 333.493 74.8252 333.424 74.7586 333.338C74.6133 333.165 74.5337 332.948 74.5337 332.723C74.5337 332.499 74.6133 332.281 74.7586 332.109L81.681 324.02C81.7618 323.92 81.8215 323.805 81.8565 323.682C81.8915 323.56 81.901 323.431 81.8846 323.304L80.2332 309.584C80.2021 309.37 80.2535 309.153 80.3771 308.975C80.5007 308.797 80.6875 308.671 80.9005 308.623Z" fill="white"/>
<path d="M363.033 285.328L195.007 332.042C193.193 332.483 191.285 332.342 189.558 331.638C187.831 330.935 186.376 329.707 185.404 328.132L57.9848 101.608C57.5527 100.935 57.2923 100.168 57.2261 99.3739C57.1598 98.5795 57.2896 97.7811 57.6044 97.0472C57.9192 96.3133 58.4095 95.6658 59.0333 95.1602C59.657 94.6546 60.3957 94.306 61.1858 94.1444L229.212 47.4295C231.022 46.9868 232.929 47.1262 234.654 47.8275C236.379 48.5288 237.833 49.7554 238.803 51.329L366.2 277.853C366.632 278.524 366.893 279.289 366.961 280.082C367.029 280.875 366.902 281.673 366.591 282.407C366.28 283.141 365.794 283.79 365.175 284.298C364.555 284.807 363.82 285.16 363.033 285.328Z" fill="#263238" stroke="black" stroke-miterlimit="10"/>
<path d="M192.643 322.109C192.643 322.109 289.737 299.293 355.093 276.936L192.643 322.109Z" fill="#884849"/>
<path d="M355.092 276.937L192.643 322.11L66.988 98.7369L229.437 53.5752L355.092 276.937Z" fill="white" stroke="#263238" stroke-miterlimit="10"/>
<path d="M181.321 100.882L193.933 97.3734" stroke="#263238" stroke-miterlimit="10"/>
<path d="M93.8406 125.205L171.559 103.597" stroke="#263238" stroke-miterlimit="10"/>
<path d="M167.488 114.758L198.82 106.043" stroke="#263238" stroke-miterlimit="10"/>
<path d="M119.473 128.111L158.937 117.139" stroke="#263238" stroke-miterlimit="10"/>
<path d="M98.7166 133.876L112.143 130.144" stroke="#263238" stroke-miterlimit="10"/>
<path d="M142.659 131.697L203.705 114.725" stroke="#263238" stroke-miterlimit="10"/>
<path d="M103.602 142.557L129.233 135.429" stroke="#263238" stroke-miterlimit="10"/>
<path d="M237.888 94.3456C236.281 91.7511 233.882 89.7276 231.036 88.5669C228.189 87.4063 225.044 87.1684 222.052 87.8875C216.204 89.5188 213.84 95.0383 216.759 100.234C218.362 102.832 220.76 104.859 223.608 106.02C226.455 107.181 229.602 107.416 232.594 106.692C238.385 105.072 240.806 99.5411 237.888 94.3456Z" fill="white" stroke="#263238" stroke-miterlimit="10"/>
<path d="M128.216 160.379L115.604 163.887" stroke="#263238" stroke-miterlimit="10"/>
<path d="M215.695 136.055L137.977 157.664" stroke="#263238" stroke-miterlimit="10"/>
<path d="M151.81 163.853L120.479 172.568" stroke="#263238" stroke-miterlimit="10"/>
<path d="M199.825 150.502L160.361 161.474" stroke="#263238" stroke-miterlimit="10"/>
<path d="M220.581 144.737L207.155 148.468" stroke="#263238" stroke-miterlimit="10"/>
<path d="M186.4 164.267L125.365 181.239" stroke="#263238" stroke-miterlimit="10"/>
<path d="M225.468 153.406L199.826 160.535" stroke="#263238" stroke-miterlimit="10"/>
<path d="M259.65 133.038C258.047 130.44 255.648 128.413 252.801 127.252C249.954 126.091 246.806 125.855 243.814 126.58C237.967 128.2 235.603 133.731 238.521 138.87C240.122 141.47 242.521 143.497 245.369 144.659C248.216 145.82 251.365 146.055 254.356 145.328C260.193 143.753 262.568 138.222 259.65 133.038Z" fill="white" stroke="#263238" stroke-miterlimit="10"/>
<path d="M224.846 178.245L237.458 174.736" stroke="#263238" stroke-miterlimit="10"/>
<path d="M137.367 202.568L215.085 180.959" stroke="#263238" stroke-miterlimit="10"/>
<path d="M211.012 192.132L242.344 183.417" stroke="#263238" stroke-miterlimit="10"/>
<path d="M162.997 205.483L202.461 194.5" stroke="#263238" stroke-miterlimit="10"/>
<path d="M142.241 211.25L155.667 207.518" stroke="#263238" stroke-miterlimit="10"/>
<path d="M186.185 209.059L247.22 192.098" stroke="#263238" stroke-miterlimit="10"/>
<path d="M147.128 219.931L172.759 212.802" stroke="#263238" stroke-miterlimit="10"/>
<path d="M282.113 179.036C284.051 174.166 280.565 168.255 274.327 165.832C268.089 163.41 261.46 165.394 259.522 170.264C257.584 175.134 261.07 181.046 267.309 183.468C273.547 185.891 280.175 183.906 282.113 179.036Z" fill="white" stroke="#263238" stroke-miterlimit="10"/>
<path d="M171.74 237.752L159.128 241.26" stroke="#263238" stroke-miterlimit="10"/>
<path d="M259.221 213.428L181.502 235.037" stroke="#263238" stroke-miterlimit="10"/>
<path d="M195.335 241.227L164.004 249.931" stroke="#263238" stroke-miterlimit="10"/>
<path d="M243.351 227.875L203.887 238.847" stroke="#263238" stroke-miterlimit="10"/>
<path d="M264.106 222.098L250.68 225.83" stroke="#263238" stroke-miterlimit="10"/>
<path d="M229.924 241.64L168.889 258.612" stroke="#263238" stroke-miterlimit="10"/>
<path d="M268.981 230.779L243.351 237.908" stroke="#263238" stroke-miterlimit="10"/>
<path d="M303.163 210.401C301.559 207.804 299.16 205.778 296.313 204.617C293.466 203.456 290.319 203.22 287.328 203.943C281.48 205.574 279.116 211.094 282.034 216.289C283.637 218.887 286.036 220.914 288.883 222.075C291.73 223.236 294.878 223.472 297.87 222.747C303.718 221.161 306.093 215.574 303.163 210.401Z" fill="white" stroke="#263238" stroke-miterlimit="10"/>
<path d="M268.371 255.618L280.983 252.11" stroke="#263238" stroke-miterlimit="10"/>
<path d="M180.891 279.941L258.609 258.332" stroke="#263238" stroke-miterlimit="10"/>
<path d="M254.538 269.495L285.869 260.791" stroke="#263238" stroke-miterlimit="10"/>
<path d="M206.522 282.846L245.986 271.875" stroke="#263238" stroke-miterlimit="10"/>
<path d="M185.767 288.623L199.193 284.88" stroke="#263238" stroke-miterlimit="10"/>
<path d="M229.709 286.433L290.744 269.461" stroke="#263238" stroke-miterlimit="10"/>
<path d="M190.652 297.293L216.283 290.165" stroke="#263238" stroke-miterlimit="10"/>
<path d="M325.635 256.401C327.573 251.531 324.087 245.62 317.849 243.197C311.61 240.775 304.982 242.759 303.044 247.629C301.106 252.499 304.592 258.411 310.83 260.833C317.069 263.256 323.697 261.271 325.635 256.401Z" fill="white" stroke="#263238" stroke-miterlimit="10"/>
<path d="M174.444 57.3623L153.089 63.2953C151.471 63.3623 149.695 63.2394 149.198 62.4238C148.067 60.3232 149.514 58.3567 149.967 56.502C150.49 54.3642 150.154 52.1091 149.028 50.2116C147.38 47.5422 144.913 45.4609 141.987 44.2696C139.06 43.0783 135.825 42.8388 132.751 43.5859C126.757 45.2619 124.336 50.9266 127.322 56.245C128.787 58.7016 130.983 60.6524 133.611 61.8316C133.611 61.8316 137.943 63.7422 138.814 65.2841C139.278 66.0997 138.068 67.0606 136.835 67.7869L113.817 74.1891C112.949 74.3693 112.138 74.7543 111.453 75.3111C110.769 75.868 110.231 76.5802 109.885 77.387C109.539 78.1938 109.397 79.0712 109.469 79.9444C109.541 80.8175 109.826 81.6605 110.299 82.4013L113.409 87.9208L188.142 67.15L185.031 61.6193C183.956 59.888 182.349 58.5412 180.444 57.7754C178.54 57.0096 176.438 56.8649 174.444 57.3623ZM136.405 50.1445C137.39 49.9036 138.426 49.9795 139.364 50.3614C140.302 50.7433 141.092 51.411 141.619 52.2674C141.853 52.6327 141.994 53.0486 142.03 53.4796C142.065 53.9105 141.994 54.3435 141.823 54.7413C141.652 55.1391 141.385 55.4899 141.046 55.7635C140.707 56.0371 140.306 56.2254 139.877 56.3121C138.895 56.5533 137.861 56.4785 136.925 56.0987C135.99 55.7189 135.201 55.0538 134.674 54.2004C134.44 53.8349 134.299 53.4191 134.263 52.9883C134.227 52.5574 134.297 52.1244 134.467 51.726C134.637 51.3277 134.902 50.9758 135.24 50.7004C135.577 50.4251 135.977 50.2343 136.405 50.1445Z" fill="#DE771C" stroke="#263238" stroke-miterlimit="10"/>
<path d="M220.526 94.9932L229.744 101.351L239.245 80.3117" stroke="#DE771C" stroke-width="6" stroke-linecap="round" stroke-linejoin="round"/>
<path d="M241.948 133.083L251.166 139.429L260.668 118.401" stroke="#DE771C" stroke-width="6" stroke-linecap="round" stroke-linejoin="round"/>
<path d="M393.143 127.876C393.143 127.876 395.598 122.714 394.06 118.759C392.521 114.803 364.21 108.424 364.21 108.424C364.21 108.424 357.751 108.424 358.056 112.077C358.362 115.731 381.753 129.708 383.597 130.915C385.44 132.122 392.521 134.87 393.143 127.876Z" fill="white" stroke="#263238" stroke-linecap="round" stroke-linejoin="round"/>
<path d="M366.551 103.318C364.808 102.68 363.098 101.957 361.427 101.15C358.984 99.9433 361.665 105.496 362.649 105.731C363.633 105.966 366.042 106.457 366.042 106.457L366.551 103.318Z" fill="white" stroke="#263238" stroke-linecap="round" stroke-linejoin="round"/>
<path d="M282.058 157.361L267.907 174.378L269.129 176.814L289.138 171.998L429.972 91.0152C431.378 90.2024 432.606 89.1197 433.581 87.8311C434.557 86.5424 435.262 85.0738 435.654 83.5118C436.046 81.9499 436.118 80.3261 435.865 78.7364C435.612 77.1466 435.039 75.6231 434.18 74.2555C433.322 72.901 432.2 71.7286 430.879 70.8066C429.558 69.8847 428.065 69.2315 426.486 68.8853C424.907 68.539 423.274 68.5065 421.682 68.7897C420.09 69.0729 418.571 69.6661 417.213 70.5348L282.058 157.361Z" fill="#DE771C" stroke="#263238" stroke-linecap="round" stroke-linejoin="round"/>
<path d="M352.82 125.82L348.227 128.747" stroke="#263238" stroke-linecap="round" stroke-linejoin="round"/>
<path d="M392.352 100.703L358.43 122.267" stroke="#263238" stroke-linecap="round" stroke-linejoin="round"/>
<path d="M269.219 174.021C269.219 174.021 265.702 175.473 266.244 176.937C266.787 178.401 271.832 174.859 271.832 174.859L269.219 174.021Z" fill="#DE771C" stroke="#263238" stroke-linecap="round" stroke-linejoin="round"/>
<path d="M267.907 174.379L269.129 176.814L289.138 171.999C278.053 167.742 282.058 157.407 282.058 157.407L267.907 174.379Z" fill="white" stroke="#263238" stroke-linecap="round" stroke-linejoin="round"/>
<path d="M434.18 74.1778C433.322 72.8233 432.2 71.6509 430.879 70.7289C429.558 69.807 428.064 69.1538 426.485 68.8076C424.906 68.4613 423.273 68.4288 421.681 68.712C420.089 68.9952 418.571 69.5884 417.213 70.4571L392.645 86.2559C391.984 87.9215 391.646 89.6956 391.65 91.4849C391.58 95.0723 392.951 98.541 395.462 101.133C397.974 103.725 401.422 105.229 405.054 105.317L430.017 90.971C431.424 90.1545 432.651 89.0677 433.626 87.7746C434.6 86.4816 435.302 85.0087 435.69 83.443C436.078 81.8774 436.144 80.2507 435.885 78.6593C435.626 77.0678 435.046 75.544 434.18 74.1778Z" fill="white" stroke="#263238" stroke-linecap="round" stroke-linejoin="round"/>
<path d="M434.18 74.1778C433.322 72.8233 432.2 71.6509 430.879 70.7289C429.558 69.807 428.064 69.1538 426.485 68.8076C424.906 68.4613 423.273 68.4288 421.682 68.712C420.09 68.9952 418.571 69.5884 417.213 70.4571L398.55 82.4682C397.648 84.307 397.18 86.3242 397.181 88.3676C397.157 90.1068 397.481 91.8335 398.133 93.449C398.786 95.0645 399.754 96.5371 400.984 97.7825C402.213 99.0278 403.679 100.021 405.297 100.707C406.915 101.392 408.655 101.755 410.415 101.775C410.721 101.775 411.037 101.775 411.332 101.775L430.017 91.038C431.434 90.2217 432.669 89.1319 433.65 87.8335C434.63 86.5352 435.336 85.055 435.724 83.4813C436.113 81.9076 436.176 80.2727 435.911 78.6742C435.646 77.0758 435.057 75.5465 434.18 74.1778Z" fill="#263238" stroke="#263238" stroke-linecap="round" stroke-linejoin="round"/>
<path d="M350.93 108.871C350.93 108.871 348.193 108.871 348.193 110.1C348.193 111.329 347.469 115.686 349.052 115.563C350.636 115.44 350.5 112.703 350.636 111.742C350.772 110.781 350.93 108.871 350.93 108.871Z" fill="white" stroke="#263238" stroke-linecap="round" stroke-linejoin="round"/>
<path d="M353.917 104.424C353.917 104.424 351.474 103.675 350.908 105.161C350.343 106.647 349.777 113.709 351.474 113.519C353.17 113.329 353.544 107.027 353.917 104.424Z" fill="white" stroke="#263238" stroke-linecap="round" stroke-linejoin="round"/>
<path d="M357.683 104.792C357.683 104.792 354.855 102.378 353.917 104.423C352.978 106.468 352.785 112.244 353.917 112.244C355.048 112.244 356.744 109.831 357.118 108.535C357.399 107.303 357.588 106.052 357.683 104.792Z" fill="white" stroke="#263238" stroke-linecap="round" stroke-linejoin="round"/>
<path d="M361.676 105.909C361.676 105.909 358.101 102.937 357.536 103.495C356.97 104.054 354.708 109.775 356.405 110.926C358.101 112.076 360.25 106.937 360.25 106.937L361.676 105.909Z" fill="white" stroke="#263238" stroke-linecap="round" stroke-linejoin="round"/>
<path d="M310.018 123.541C310.018 123.541 310.414 129.496 312.02 130.893C312.991 131.723 313.867 132.656 314.633 133.675C314.855 135.19 314.991 136.715 315.04 138.245C315.04 140.032 316.251 139.831 317.302 139.831C318.354 139.831 320.119 143.183 321.126 144.792C323.044 147.133 325.336 149.148 327.912 150.759C329.722 151.753 332.742 147.977 332.742 147.977L334.145 151.954L348.431 142.815L341.395 129.295C340.98 124.609 339.536 120.068 337.165 115.988C333.138 108.837 327.709 104.815 318.66 107.44C309.611 110.066 310.018 123.541 310.018 123.541Z" fill="white" stroke="#263238" stroke-linecap="round" stroke-linejoin="round"/>
<path d="M326.544 97.0605C323.17 97.2063 319.839 97.8658 316.669 99.0158C311.387 100.859 310.086 108.122 305.482 110.725C300.879 113.329 302.847 108.491 300.539 109.742C298.232 110.993 295.936 122.424 300.867 125.675C305.799 128.926 313.049 124.703 313.049 124.703C313.049 124.703 312.393 126.937 314.362 127.63C315.553 128.02 316.765 128.345 317.992 128.602C317.992 128.602 317.653 132.513 320.617 132.178C323.58 131.842 320.956 127.306 320.956 127.306C320.956 127.306 326.555 138.032 330.842 139.34C335.129 140.647 341.372 134.781 343.012 132.178C344.653 129.574 343.34 111.049 339.721 103.898C336.101 96.7477 326.544 97.0605 326.544 97.0605Z" fill="#263238" stroke="#263238" stroke-linecap="round" stroke-linejoin="round"/>
<path d="M321.08 134.267C321.08 134.267 319.067 126.714 322.279 127.708C325.491 128.703 327.312 135.462 327.109 136.256C326.905 137.049 325.299 137.44 324.496 137.25" fill="white"/>
<path d="M321.08 134.267C321.08 134.267 319.067 126.714 322.279 127.708C325.491 128.703 327.312 135.462 327.109 136.256C326.905 137.049 325.299 137.44 324.496 137.25" stroke="#263238" stroke-linecap="round" stroke-linejoin="round"/>
<path d="M344.325 137.004C340.574 139.086 336.99 141.447 333.602 144.066C330.208 147.049 327.166 155.987 327.166 155.987C327.166 155.987 347.888 142.077 351.507 140.099C355.127 138.122 355.93 137.116 355.93 137.116C355.93 137.116 348.351 136.01 344.325 137.004Z" fill="white" stroke="#263238" stroke-linecap="round" stroke-linejoin="round"/>
<path d="M372.219 124.837C373.094 123.305 374.285 121.973 375.716 120.926C377.146 119.879 378.783 119.14 380.521 118.758C386.369 117.541 394.094 121.496 394.988 127.876C395.881 134.255 390.984 137.306 387.907 137.306C384.83 137.306 382.059 133.049 382.059 133.049C382.059 133.049 372.219 129.395 372.219 124.837Z" fill="white" stroke="#263238" stroke-linecap="round" stroke-linejoin="round"/>
<path d="M289.749 192.624L299.601 166.781C298.5 167.754 297.075 168.295 295.597 168.3C293.131 168.3 287.295 167.395 288.81 166.479C290.326 165.563 296.185 161.619 296.185 161.619C296.185 161.619 291.887 162.535 290.654 161.619C289.421 160.702 288.81 159.485 289.727 159.183C290.643 158.881 292.498 159.183 295.88 157.965C299.262 156.747 300.8 155.54 303.571 155.54C306.343 155.54 308.808 160.401 308.808 161.92C308.808 163.44 306.648 192.311 306.648 193.529C306.648 194.747 306.648 195.965 298.651 196.881C290.654 197.797 289.444 195.965 289.749 192.624Z" fill="white" stroke="#263238" stroke-linecap="round" stroke-linejoin="round"/>
<path d="M299.601 166.781L301.06 161.105" stroke="#263238" stroke-linecap="round" stroke-linejoin="round"/>
<path d="M299.284 186.233C299.284 186.233 289.444 188.97 287.6 193.227C285.756 197.484 286.062 203.864 289.749 207.518C293.436 211.171 294.986 212.076 298.979 210.557C302.972 209.037 303.91 206.601 304.216 204.166C304.521 201.73 306.67 193.529 299.284 186.233Z" fill="white" stroke="#263238" stroke-linecap="round" stroke-linejoin="round"/>
<path d="M295.292 315.115C295.292 315.115 286.673 311.16 283.291 312.679C279.909 314.199 279.898 315.719 284.207 322.411C288.517 329.104 300.518 337.305 304.567 335.473C308.616 333.64 304.872 321.495 304.872 321.495L295.292 315.115Z" fill="white" stroke="#263238" stroke-linecap="round" stroke-linejoin="round"/>
<path d="M289.139 324.533C286.149 321.263 283.636 317.596 281.673 313.639C280.09 315.025 280.768 317.058 284.207 322.41C288.516 329.114 300.517 337.304 304.567 335.472C305.081 335.146 305.504 334.698 305.799 334.169C306.093 333.64 306.249 333.047 306.252 332.444C300.597 334.801 294.749 330.656 289.139 324.533Z" fill="white" stroke="#263238" stroke-linecap="round" stroke-linejoin="round"/>
<path d="M339.596 222.099L339.902 231.227C339.902 231.227 321.136 238.211 311.907 244.635C302.677 251.06 296.524 255.875 295.596 261.954C294.669 268.032 295.291 315.149 295.291 315.149C295.291 315.149 292.519 315.752 293.447 317.573C294.375 319.395 296.207 326.087 298.673 326.691C301.139 327.294 304.215 328.523 304.826 327.003C305.437 325.484 307.292 316.367 308.525 313.328C309.758 310.288 311.907 296.02 313.75 285.965C314.83 280.351 315.447 274.66 315.594 268.948C322.091 268.054 328.483 266.527 334.676 264.389C345.444 260.736 361.132 254.054 361.132 254.054C361.132 254.054 373.756 285.339 376.527 291.439C379.298 297.54 390.1 311.193 392.215 315.149C394.33 319.104 407.904 336.121 407.904 336.121C407.904 336.121 413.141 331.562 416.523 331.562H421.138C421.138 331.562 415.595 316.367 410.958 307.238C406.32 298.11 396.807 283.227 396.807 283.227C396.807 283.227 388.2 230.054 387.883 226.389C387.284 219.373 382.736 208.781 382.736 208.781C382.736 208.781 367.908 205.686 339.596 222.099Z" fill="#263238" stroke="#263238" stroke-linecap="round" stroke-linejoin="round"/>
<path d="M407.904 336.086C407.113 337.36 406.396 338.677 405.755 340.031C405.449 340.947 398.674 341.863 399.602 344.902C400.529 347.941 407.598 350.366 410.98 350.678C414.362 350.991 421.16 346.422 422.371 345.204C423.095 344.489 424.18 339.762 423.604 336.086C423.228 334.369 422.374 332.79 421.138 331.528C421.138 331.528 415.29 322.712 407.904 336.086Z" fill="white" stroke="#263238" stroke-linecap="round" stroke-linejoin="round"/>
<path d="M423.604 336.087C423.289 334.544 422.567 333.11 421.511 331.931C420.238 331.941 418.979 332.206 417.813 332.712C416.646 333.217 415.595 333.951 414.725 334.869C411.648 338.512 413.187 346.724 409.488 347.942C406.739 348.847 401.932 345.529 399.67 343.786C399.544 344.148 399.544 344.541 399.67 344.903C400.586 347.942 407.667 350.366 411.049 350.679C414.431 350.992 421.229 346.422 422.439 345.204C423.095 344.489 424.181 339.763 423.604 336.087Z" fill="white" stroke="#263238" stroke-linecap="round" stroke-linejoin="round"/>
<path d="M415.596 338.21C414.374 343.685 415.913 347.327 410.981 350.679C414.374 350.981 421.161 346.422 422.371 345.204C423.095 344.489 424.181 339.763 423.604 336.087C423.472 335.325 423.216 334.589 422.846 333.908H422.371C422.371 333.908 416.829 332.746 415.596 338.21Z" fill="#263238" stroke="#263238" stroke-linecap="round" stroke-linejoin="round"/>
<path d="M364.209 253.406L382.363 244.601" stroke="white" stroke-linecap="round" stroke-linejoin="round"/>
<path d="M372.523 249.462L388.212 247.328" stroke="white" stroke-linecap="round" stroke-linejoin="round"/>
<path d="M378.643 122.714C373.417 123.318 359.878 132.435 358.95 133.351C358.023 134.267 354.335 136.39 352.797 137.608C352.797 137.608 321.126 157.06 318.332 158.837C315.538 160.613 310.03 164.312 310.335 165.541C310.64 166.77 294.025 193.474 294.025 193.474C294.025 193.474 289.104 199.865 293.719 205.63C298.334 211.395 302.644 207.462 304.793 206.244C306.942 205.027 323.874 189.217 323.874 189.217L339.484 226.088C339.484 226.088 361.099 211.775 384.185 212.68L368.791 153.105C368.791 153.105 390.033 137.306 390.644 131.876C391.254 126.446 383.902 122.1 378.643 122.714Z" fill="white"/>
<mask id="mask0_1466_5957" style="mask-type:luminance" maskUnits="userSpaceOnUse" x="291" y="122" width="100" height="105">
<path d="M378.643 122.714C373.417 123.318 359.878 132.435 358.95 133.351C358.023 134.267 354.335 136.39 352.797 137.608C352.797 137.608 321.126 157.06 318.332 158.837C315.538 160.613 310.03 164.312 310.335 165.541C310.64 166.77 294.025 193.474 294.025 193.474C294.025 193.474 289.104 199.865 293.719 205.63C298.334 211.395 302.644 207.462 304.793 206.244C306.942 205.027 323.874 189.217 323.874 189.217L339.484 226.088C339.484 226.088 361.099 211.775 384.185 212.68L368.791 153.105C368.791 153.105 390.033 137.306 390.644 131.876C391.254 126.446 383.902 122.1 378.643 122.714Z" fill="white"/>
</mask>
<g mask="url(#mask0_1466_5957)">
<path d="M378.642 122.714C376.55 122.96 373.122 124.569 369.695 126.468C370.476 126.32 371.284 126.401 372.018 126.703C372.753 127.005 373.38 127.514 373.824 128.167C376.369 131.396 370.917 141.798 370.917 141.798C370.917 141.798 368.655 127.429 368.745 131.742C368.836 136.055 367.614 149.317 367.614 149.317C367.614 149.317 360.352 140.714 360.714 142.859C361.076 145.004 365.793 165.094 368.7 172.624C371.607 180.155 366.517 201.306 363.621 207.395C360.726 213.484 362.49 181.585 359.255 189.518C356.02 197.451 345.105 219.272 342.56 221.429C340.015 223.585 343.374 192.189 344.279 188.099C343.148 191.518 335.672 213.183 335.672 213.183L325.492 187.362C325.492 187.362 308.073 173.384 309.882 175.887C311.692 178.39 316.058 186.289 316.058 186.289C316.058 186.289 305.528 184.133 307.349 184.859C309.17 185.585 317.144 189.518 317.144 189.518C317.144 189.518 300.811 200.993 296.094 202.423C294.826 202.791 293.521 203.027 292.203 203.127C292.543 204.064 293.036 204.939 293.662 205.719C298.277 211.496 302.587 207.552 304.736 206.334C306.885 205.116 323.818 189.306 323.818 189.306L339.427 226.177C339.427 226.177 361.042 211.864 384.128 212.769L368.734 153.194C368.734 153.194 389.976 137.396 390.587 131.965C391.198 126.535 383.902 122.1 378.642 122.714Z" fill="#DE771C"/>
<path opacity="0.5" d="M378.642 122.714C376.55 122.96 373.122 124.569 369.695 126.468C370.476 126.32 371.284 126.401 372.018 126.703C372.753 127.005 373.38 127.514 373.824 128.167C376.369 131.396 370.917 141.798 370.917 141.798C370.917 141.798 368.655 127.429 368.745 131.742C368.836 136.055 367.614 149.317 367.614 149.317C367.614 149.317 360.352 140.714 360.714 142.859C361.076 145.004 365.793 165.094 368.7 172.624C371.607 180.155 366.517 201.306 363.621 207.395C360.726 213.484 362.49 181.585 359.255 189.518C356.02 197.451 345.105 219.272 342.56 221.429C340.015 223.585 343.374 192.189 344.279 188.099C343.148 191.518 335.672 213.183 335.672 213.183L325.492 187.362C325.492 187.362 308.073 173.384 309.882 175.887C311.692 178.39 316.058 186.289 316.058 186.289C316.058 186.289 305.528 184.133 307.349 184.859C309.17 185.585 317.144 189.518 317.144 189.518C317.144 189.518 300.811 200.993 296.094 202.423C294.826 202.791 293.521 203.027 292.203 203.127C292.543 204.064 293.036 204.939 293.662 205.719C298.277 211.496 302.587 207.552 304.736 206.334C306.885 205.116 323.818 189.306 323.818 189.306L339.427 226.177C339.427 226.177 361.042 211.864 384.128 212.769L368.734 153.194C368.734 153.194 389.976 137.396 390.587 131.965C391.198 126.535 383.902 122.1 378.642 122.714Z" fill="white"/>
</g>
<path d="M378.643 122.714C373.417 123.318 359.878 132.435 358.95 133.351C358.023 134.267 354.335 136.39 352.797 137.608C352.797 137.608 321.126 157.06 318.332 158.837C315.538 160.613 310.03 164.312 310.335 165.541C310.64 166.77 294.025 193.474 294.025 193.474C294.025 193.474 289.104 199.865 293.719 205.63C298.334 211.395 302.644 207.462 304.793 206.244C306.942 205.027 323.874 189.217 323.874 189.217L339.484 226.088C339.484 226.088 361.099 211.775 384.185 212.68L368.791 153.105C368.791 153.105 390.033 137.306 390.644 131.876C391.254 126.446 383.902 122.1 378.643 122.714Z" stroke="#263238" stroke-linecap="round" stroke-linejoin="round"/>
<path d="M339.518 226.088C338.617 217.726 339.056 209.276 340.819 201.049L339.518 226.088Z" fill="white"/>
<path d="M339.518 226.088C338.617 217.726 339.056 209.276 340.819 201.049" stroke="#263238" stroke-linecap="round" stroke-linejoin="round"/>
<path d="M336.599 207.462C336.599 207.462 336.599 202.322 342.447 186.233L336.599 207.462Z" fill="white"/>
<path d="M336.599 207.462C336.599 207.462 336.599 202.322 342.447 186.233" stroke="#263238" stroke-linecap="round" stroke-linejoin="round"/>
<path d="M311.907 175.909L323.908 189.272L311.602 180.457" fill="white"/>
<path d="M311.907 175.909L323.908 189.272L311.602 180.457" stroke="#263238" stroke-linecap="round" stroke-linejoin="round"/>
<path d="M368.825 136.089V153.105L372.829 131.228" fill="white"/>
<path d="M368.825 136.089V153.105L372.829 131.228" stroke="#263238" stroke-linecap="round" stroke-linejoin="round"/>
<path d="M344.46 187.641C344.415 187.765 344.381 187.892 344.358 188.021C344.494 187.641 344.54 187.496 344.46 187.641Z" fill="#263238"/>
</svg>
