<svg width="613" height="247" viewBox="0 0 613 247" fill="none" xmlns="http://www.w3.org/2000/svg">
<path d="M93.2006 139.474C36.7458 155.177 8.03164 217.264 0.731445 246.344L612.731 222.352C612.731 147.471 497.145 19.0815 497.145 8.61263C453.344 -3.38298 449.694 7.52212 421.71 17.3367C393.725 27.1513 357.224 87.1293 325.59 120.935C293.956 154.741 256.238 143.836 231.904 143.836C207.57 143.836 163.769 119.845 93.2006 139.474Z" fill="url(#paint0_linear_2077_10168)" fill-opacity="0.4"/>
<path d="M174.72 134.025L175.003 132.552L174.72 134.025ZM487.928 8.61615C487.928 13.0344 491.51 16.6161 495.928 16.6161C500.347 16.6161 503.928 13.0344 503.928 8.61615C503.928 4.19787 500.347 0.616149 495.928 0.616149C491.51 0.616149 487.928 4.19787 487.928 8.61615ZM4.59191 236.995C11.4128 215.958 28.1174 185.577 56.0019 162.971C83.8343 140.406 122.833 125.556 174.436 135.498L175.003 132.552C122.457 122.428 82.5729 137.567 54.1126 160.64C25.7045 183.671 8.70654 214.577 1.73816 236.07L4.59191 236.995ZM174.436 135.498C239.514 148.035 275.158 149.217 298.842 141.309C322.645 133.361 334.175 116.272 351.128 93.4806L348.721 91.6902C331.606 114.7 320.627 130.872 297.892 138.463C275.036 146.095 240.113 145.096 175.003 132.552L174.436 135.498ZM351.128 93.4806C368.229 70.4898 386.334 43.9906 409.252 26.0178C432.052 8.13702 459.53 -1.22979 495.479 10.0474L496.377 7.18492C459.324 -4.43861 430.835 5.27849 407.4 23.6572C384.083 41.9438 365.688 68.8796 348.721 91.6902L351.128 93.4806Z" fill="#12B76A"/>
<defs>
<linearGradient id="paint0_linear_2077_10168" x1="222.171" y1="8.6126" x2="251.627" y2="222.233" gradientUnits="userSpaceOnUse">
<stop stop-color="#12B76A"/>
<stop offset="1" stop-color="#12B76A" stop-opacity="0"/>
</linearGradient>
</defs>
</svg>
