<svg width="58" height="58" viewBox="0 0 58 58" fill="none" xmlns="http://www.w3.org/2000/svg">
<g filter="url(#filter0_d_1636_236)">
<path d="M4 25C4 38.8071 15.1929 50 29 50C42.8071 50 54 38.8071 54 25C54 11.1929 42.8071 0 29 0C15.1929 0 4 11.1929 4 25Z" fill="#3D6498"/>
<path d="M29.8333 15V17.5H28.1667V15H29.8333ZM32.4333 16.2167L33.6167 17.3917L31.8417 19.1667L30.6667 17.9833L32.4333 16.2167ZM25.5667 16.2167L27.3333 17.9833L26.1583 19.1667L24.3833 17.4L25.5667 16.2167ZM29 19.1667C29.442 19.1667 29.866 19.3423 30.1785 19.6548C30.4911 19.9674 30.6667 20.3913 30.6667 20.8333V21.6667H33.5833C34.1333 21.6667 34.6 22.0167 34.7667 22.5L36.5 27.5V34.1667C36.5 34.3877 36.4122 34.5996 36.2559 34.7559C36.0996 34.9122 35.8877 35 35.6667 35H34.8333C34.6123 35 34.4004 34.9122 34.2441 34.7559C34.0878 34.5996 34 34.3877 34 34.1667V33.3333H24V34.1667C24 34.3877 23.9122 34.5996 23.7559 34.7559C23.5996 34.9122 23.3877 35 23.1667 35H22.3333C22.1123 35 21.9004 34.9122 21.7441 34.7559C21.5878 34.5996 21.5 34.3877 21.5 34.1667V27.5L23.2333 22.5C23.4 22.0167 23.8667 21.6667 24.4167 21.6667H27.3333V20.8333C27.3333 20.3913 27.5089 19.9674 27.8215 19.6548C28.134 19.3423 28.558 19.1667 29 19.1667ZM33.5833 22.9167H24.4167L23.1667 26.6667H34.8333L33.5833 22.9167ZM33.5833 28.3333C33.2518 28.3333 32.9339 28.465 32.6994 28.6995C32.465 28.9339 32.3333 29.2518 32.3333 29.5833C32.3333 29.9149 32.465 30.2328 32.6994 30.4672C32.9339 30.7016 33.2518 30.8333 33.5833 30.8333C33.9149 30.8333 34.2328 30.7016 34.4672 30.4672C34.7016 30.2328 34.8333 29.9149 34.8333 29.5833C34.8333 29.2518 34.7016 28.9339 34.4672 28.6995C34.2328 28.465 33.9149 28.3333 33.5833 28.3333ZM24.4167 28.3333C24.0851 28.3333 23.7672 28.465 23.5328 28.6995C23.2984 28.9339 23.1667 29.2518 23.1667 29.5833C23.1667 29.9149 23.2984 30.2328 23.5328 30.4672C23.7672 30.7016 24.0851 30.8333 24.4167 30.8333C24.7482 30.8333 25.0661 30.7016 25.3005 30.4672C25.535 30.2328 25.6667 29.9149 25.6667 29.5833C25.6667 29.2518 25.535 28.9339 25.3005 28.6995C25.0661 28.465 24.7482 28.3333 24.4167 28.3333Z" fill="white"/>
</g>
<defs>
<filter id="filter0_d_1636_236" x="0" y="0" width="58" height="58" filterUnits="userSpaceOnUse" color-interpolation-filters="sRGB">
<feFlood flood-opacity="0" result="BackgroundImageFix"/>
<feColorMatrix in="SourceAlpha" type="matrix" values="0 0 0 0 0 0 0 0 0 0 0 0 0 0 0 0 0 0 127 0" result="hardAlpha"/>
<feOffset dy="4"/>
<feGaussianBlur stdDeviation="2"/>
<feComposite in2="hardAlpha" operator="out"/>
<feColorMatrix type="matrix" values="0 0 0 0 0 0 0 0 0 0 0 0 0 0 0 0 0 0 0.25 0"/>
<feBlend mode="normal" in2="BackgroundImageFix" result="effect1_dropShadow_1636_236"/>
<feBlend mode="normal" in="SourceGraphic" in2="effect1_dropShadow_1636_236" result="shape"/>
</filter>
</defs>
</svg>
