<svg width="21" height="21" viewBox="0 0 21 21" fill="none" xmlns="http://www.w3.org/2000/svg">
<path d="M17.9736 15.8733C17.9655 16.1609 17.8997 16.444 17.7801 16.7057C17.6605 16.9674 17.4895 17.2024 17.2773 17.3967C17.0651 17.5911 16.816 17.7408 16.5448 17.837C16.2736 17.9331 15.9858 17.9738 15.6986 17.9566C13.9044 17.9666 12.1102 17.9566 10.3161 17.9566C10.2056 17.9566 10.0996 17.9127 10.0215 17.8346C9.94331 17.7565 9.89941 17.6505 9.89941 17.54C9.89941 17.4295 9.94331 17.3235 10.0215 17.2453C10.0996 17.1672 10.2056 17.1233 10.3161 17.1233C12.1494 17.1233 13.9827 17.15 15.8161 17.1233C16.7386 17.11 17.1402 16.4166 17.1402 15.5916V5.2058C17.1462 4.94362 17.0722 4.68584 16.9281 4.46672C16.784 4.24761 16.5767 4.07754 16.3336 3.97914C16.0459 3.90022 15.7465 3.8734 15.4494 3.89997H10.3161C10.2056 3.89997 10.0996 3.85607 10.0215 3.77793C9.94331 3.69979 9.89941 3.59381 9.89941 3.4833C9.89941 3.3728 9.94331 3.26682 10.0215 3.18868C10.0996 3.11054 10.2056 3.06664 10.3161 3.06664C12.1694 3.06664 14.0369 2.9958 15.8886 3.06664C16.1721 3.07381 16.4514 3.1373 16.7102 3.25342C16.969 3.36955 17.2021 3.53598 17.396 3.74303C17.5899 3.95008 17.7406 4.19363 17.8395 4.45949C17.9384 4.72535 17.9834 5.00822 17.9719 5.29164L17.9736 15.8733Z" fill="#FAFAFA"/>
<path d="M3.14624 10.2192C3.07619 10.2878 3.03504 10.3805 3.03124 10.4784C3.03235 10.4901 3.03069 10.502 3.02624 10.5142C3.01958 10.5326 3.02624 10.5367 3.03124 10.5484C3.03483 10.6466 3.076 10.7397 3.14624 10.8084L6.20374 13.8659C6.28233 13.9418 6.38758 13.9838 6.49683 13.9829C6.60607 13.9819 6.71058 13.9381 6.78783 13.8608C6.86509 13.7836 6.90891 13.6791 6.90986 13.5698C6.91081 13.4606 6.86881 13.3553 6.79291 13.2767L4.44708 10.9301H13.3987C13.5092 10.9301 13.6152 10.8862 13.6934 10.808C13.7715 10.7299 13.8154 10.6239 13.8154 10.5134C13.8154 10.4029 13.7715 10.2969 13.6934 10.2188C13.6152 10.1406 13.5092 10.0967 13.3987 10.0967H4.44708L6.79291 7.75008C6.86881 7.67149 6.91081 7.56624 6.90986 7.45699C6.90891 7.34774 6.86509 7.24324 6.78783 7.16598C6.71058 7.08873 6.60607 7.04491 6.49683 7.04396C6.38758 7.04301 6.28233 7.08501 6.20374 7.16091L3.14624 10.2192Z" fill="#FAFAFA"/>
</svg>
