<svg width="20" height="21" viewBox="0 0 20 21" fill="none" xmlns="http://www.w3.org/2000/svg">
<path d="M10 1.33334C13.0675 1.33334 15.8333 3.47084 15.8333 6.33334V10.1158C15.8333 10.6508 15.9908 11.1733 16.2875 11.6183L18.1208 14.3667C18.2481 14.5571 18.3213 14.7786 18.3325 15.0074C18.3437 15.2362 18.2925 15.4637 18.1844 15.6657C18.0763 15.8676 17.9154 16.0364 17.7188 16.154C17.5222 16.2716 17.2974 16.3336 17.0683 16.3333H12.9167C12.9167 16.7164 12.8412 17.0956 12.6946 17.4495C12.5481 17.8034 12.3332 18.1249 12.0624 18.3957C11.7916 18.6666 11.47 18.8814 11.1162 19.028C10.7623 19.1746 10.383 19.25 10 19.25C9.61698 19.25 9.23771 19.1746 8.88384 19.028C8.52997 18.8814 8.20844 18.6666 7.9376 18.3957C7.66677 18.1249 7.45193 17.8034 7.30535 17.4495C7.15877 17.0956 7.08333 16.7164 7.08333 16.3333H2.9325C2.70353 16.3335 2.47881 16.2716 2.28229 16.1541C2.08577 16.0366 1.92483 15.8679 1.81662 15.6662C1.70842 15.4644 1.65701 15.237 1.66788 15.0083C1.67874 14.7796 1.75148 14.5581 1.87833 14.3675L3.71167 11.6183C4.00834 11.1734 4.16666 10.6506 4.16667 10.1158V6.33334C4.16667 3.47084 6.93167 1.33334 10 1.33334ZM5.41667 6.33334V10.1158C5.41688 10.8973 5.18579 11.6613 4.7525 12.3117L2.91917 15.06L2.91667 15.0683L2.9175 15.0742L2.92083 15.0792L2.92583 15.0825L2.93167 15.0833H17.0683L17.0742 15.0825L17.0792 15.0792L17.0825 15.0742L17.0833 15.0692L17.0808 15.0608L15.2483 12.3117C14.8147 11.6614 14.5834 10.8974 14.5833 10.1158V6.33334C14.5833 4.36334 12.5975 2.58334 10 2.58334C7.4025 2.58334 5.41667 4.36334 5.41667 6.33334ZM11.6667 16.3333H8.33333C8.33333 16.7754 8.50893 17.1993 8.82149 17.5118C9.13405 17.8244 9.55797 18 10 18C10.442 18 10.8659 17.8244 11.1785 17.5118C11.4911 17.1993 11.6667 16.7754 11.6667 16.3333Z" fill="white"/>
</svg>
