<svg width="20" height="21" viewBox="0 0 20 21" fill="none" xmlns="http://www.w3.org/2000/svg">
<path d="M9.99956 1.33301C13.0671 1.33301 15.8329 3.47051 15.8329 6.33301V10.1155C15.8329 10.6505 15.9904 11.173 16.2871 11.618L18.1204 14.3663C18.2477 14.5568 18.3208 14.7782 18.332 15.007C18.3432 15.2358 18.2921 15.4634 18.184 15.6653C18.0759 15.8673 17.915 16.0361 17.7184 16.1537C17.5218 16.2713 17.297 16.3333 17.0679 16.333H12.9162C12.9162 16.716 12.8408 17.0953 12.6942 17.4492C12.5476 17.803 12.3328 18.1246 12.062 18.3954C11.7911 18.6662 11.4696 18.8811 11.1157 19.0277C10.7619 19.1742 10.3826 19.2497 9.99956 19.2497C9.61654 19.2497 9.23727 19.1742 8.8834 19.0277C8.52954 18.8811 8.20801 18.6662 7.93717 18.3954C7.66633 18.1246 7.45149 17.803 7.30491 17.4492C7.15834 17.0953 7.0829 16.716 7.0829 16.333H2.93206C2.7031 16.3332 2.47837 16.2712 2.28186 16.1537C2.08534 16.0362 1.9244 15.8676 1.81619 15.6658C1.70798 15.464 1.65657 15.2367 1.66744 15.008C1.67831 14.7793 1.75105 14.5578 1.8779 14.3672L3.71123 11.618C4.00791 11.1731 4.16623 10.6503 4.16623 10.1155V6.33301C4.16623 3.47051 6.93123 1.33301 9.99956 1.33301ZM5.41623 6.33301V10.1155C5.41645 10.897 5.18535 11.661 4.75206 12.3113L2.91873 15.0597L2.91623 15.068L2.91706 15.0738L2.9204 15.0788L2.9254 15.0822L2.93123 15.083H17.0679L17.0737 15.0822L17.0787 15.0788L17.0821 15.0738L17.0829 15.0688L17.0804 15.0605L15.2479 12.3113C14.8143 11.6611 14.5829 10.8971 14.5829 10.1155V6.33301C14.5829 4.36301 12.5971 2.58301 9.99956 2.58301C7.40206 2.58301 5.41623 4.36301 5.41623 6.33301ZM11.6662 16.333H8.3329C8.3329 16.775 8.50849 17.199 8.82105 17.5115C9.13361 17.8241 9.55754 17.9997 9.99956 17.9997C10.4416 17.9997 10.8655 17.8241 11.1781 17.5115C11.4906 17.199 11.6662 16.775 11.6662 16.333Z" fill="#5C5858"/>
</svg>
