<svg width="48" height="48" viewBox="0 0 48 48" fill="none" xmlns="http://www.w3.org/2000/svg">
<path d="M23.9995 2C31.3615 2 37.9995 7.13 37.9995 14V23.078C37.9995 24.362 38.3775 25.616 39.0895 26.684L43.4895 33.28C43.795 33.7371 43.9706 34.2686 43.9975 34.8177C44.0244 35.3668 43.9016 35.9129 43.6421 36.3976C43.3827 36.8823 42.9965 37.2874 42.5247 37.5697C42.0529 37.8519 41.5133 38.0007 40.9635 38H30.9995C30.9995 38.9193 30.8185 39.8295 30.4667 40.6788C30.1149 41.5281 29.5993 42.2997 28.9493 42.9497C28.2993 43.5998 27.5276 44.1154 26.6783 44.4672C25.829 44.8189 24.9188 45 23.9995 45C23.0803 45 22.17 44.8189 21.3208 44.4672C20.4715 44.1154 19.6998 43.5998 19.0498 42.9497C18.3998 42.2997 17.8842 41.5281 17.5324 40.6788C17.1806 39.8295 16.9995 38.9193 16.9995 38H7.03754C6.48802 38.0005 5.94869 37.8518 5.47704 37.5698C5.0054 37.2878 4.61913 36.883 4.35944 36.3988C4.09975 35.9145 3.97636 35.3688 4.00245 34.8199C4.02853 34.271 4.2031 33.7395 4.50754 33.282L8.90754 26.684C9.61957 25.6162 9.99953 24.3614 9.99954 23.078V14C9.99954 7.13 16.6355 2 23.9995 2ZM12.9995 14V23.078C13.0001 24.9535 12.4454 26.7872 11.4055 28.348L7.00554 34.944L6.99954 34.964L7.00154 34.978L7.00954 34.99L7.02154 34.998L7.03554 35H40.9635L40.9775 34.998L40.9895 34.99L40.9975 34.978L40.9995 34.966L40.9935 34.946L36.5955 28.348C35.5549 26.7874 34.9996 24.9537 34.9995 23.078V14C34.9995 9.272 30.2335 5 23.9995 5C17.7655 5 12.9995 9.272 12.9995 14ZM27.9995 38H19.9995C19.9995 39.0609 20.421 40.0783 21.1711 40.8284C21.9213 41.5786 22.9387 42 23.9995 42C25.0604 42 26.0778 41.5786 26.828 40.8284C27.5781 40.0783 27.9995 39.0609 27.9995 38Z" fill="#263238"/>
<ellipse cx="36" cy="7.5" rx="7.5" ry="7.5" fill="#DE771C"/>
</svg>
