<svg width="613" height="247" viewBox="0 0 613 247" fill="none" xmlns="http://www.w3.org/2000/svg">
<path d="M93.3891 139.169C36.9342 154.872 8.22012 216.959 0.919922 246.039L612.92 222.048C612.92 147.166 497.333 18.7768 497.333 8.30794C453.532 -3.68767 449.882 7.21743 421.898 17.032C393.914 26.8466 357.413 86.8246 325.779 120.63C294.145 154.436 256.427 143.531 232.093 143.531C207.759 143.531 163.958 119.54 93.3891 139.169Z" fill="url(#paint0_linear_2077_10156)" fill-opacity="0.4"/>
<path d="M174.909 133.72L175.193 132.247L174.909 133.72ZM488.118 8.31146C488.118 12.7297 491.7 16.3115 496.118 16.3115C500.536 16.3115 504.118 12.7297 504.118 8.31146C504.118 3.89318 500.536 0.311461 496.118 0.311461C491.7 0.311461 488.118 3.89318 488.118 8.31146ZM4.78137 236.69C11.6023 215.653 28.3069 185.272 56.1914 162.666C84.0237 140.101 123.022 125.251 174.625 135.193L175.193 132.247C122.647 122.124 82.7624 137.262 54.3021 160.335C25.894 183.367 8.89599 214.273 1.92762 235.765L4.78137 236.69ZM174.625 135.193C239.703 147.731 275.348 148.912 299.031 141.004C322.835 133.056 334.365 115.968 351.317 93.1759L348.91 91.3855C331.795 114.395 320.817 130.567 298.081 138.159C275.226 145.79 240.302 144.791 175.193 132.247L174.625 135.193ZM351.317 93.1759C368.418 70.1851 386.524 43.6859 409.441 25.7131C432.241 7.83233 459.72 -1.53448 495.669 9.74269L496.567 6.88023C459.514 -4.7433 431.025 4.9738 407.59 23.3525C384.272 41.6391 365.877 68.5749 348.91 91.3855L351.317 93.1759Z" fill="#3D6498"/>
<defs>
<linearGradient id="paint0_linear_2077_10156" x1="222.359" y1="8.30792" x2="251.815" y2="221.929" gradientUnits="userSpaceOnUse">
<stop stop-color="#3D6498"/>
<stop offset="1" stop-color="#3D6498" stop-opacity="0"/>
</linearGradient>
</defs>
</svg>
