<svg width="15" height="15" viewBox="0 0 15 15" fill="none" xmlns="http://www.w3.org/2000/svg">
<path d="M13.333 0H12.4997C11.5792 0 10.833 0.746192 10.833 1.66667V13.3333C10.833 14.2538 11.5792 15 12.4997 15H13.333C14.2535 15 14.9997 14.2538 14.9997 13.3333V1.66667C14.9997 0.746192 14.2535 0 13.333 0Z" fill="#5C5858"/>
<path d="M7.91699 5H7.08366C6.16318 5 5.41699 5.74619 5.41699 6.66667V13.3333C5.41699 14.2538 6.16318 15 7.08366 15H7.91699C8.83747 15 9.58366 14.2538 9.58366 13.3333V6.66667C9.58366 5.74619 8.83747 5 7.91699 5Z" fill="#5C5858"/>
<path d="M2.5 10.833H1.66667C0.746192 10.833 0 11.5792 0 12.4997V13.333C0 14.2535 0.746192 14.9997 1.66667 14.9997H2.5C3.42047 14.9997 4.16667 14.2535 4.16667 13.333V12.4997C4.16667 11.5792 3.42047 10.833 2.5 10.833Z" fill="#5C5858"/>
</svg>
