<svg width="20" height="21" viewBox="0 0 20 21" fill="none" xmlns="http://www.w3.org/2000/svg">
<path d="M10.0002 7.16699C10.8843 7.16699 11.7321 7.51818 12.3572 8.1433C12.9823 8.76842 13.3335 9.61627 13.3335 10.5003C13.3335 11.3844 12.9823 12.2322 12.3572 12.8573C11.7321 13.4825 10.8843 13.8337 10.0002 13.8337C9.11614 13.8337 8.26829 13.4825 7.64317 12.8573C7.01805 12.2322 6.66686 11.3844 6.66686 10.5003C6.66686 9.61627 7.01805 8.76842 7.64317 8.1433C8.26829 7.51818 9.11614 7.16699 10.0002 7.16699ZM10.0002 8.83366C9.55817 8.83366 9.13424 9.00925 8.82168 9.32182C8.50912 9.63438 8.33353 10.0583 8.33353 10.5003C8.33353 10.9424 8.50912 11.3663 8.82168 11.6788C9.13424 11.9914 9.55817 12.167 10.0002 12.167C10.4422 12.167 10.8661 11.9914 11.1787 11.6788C11.4913 11.3663 11.6669 10.9424 11.6669 10.5003C11.6669 10.0583 11.4913 9.63438 11.1787 9.32182C10.8661 9.00925 10.4422 8.83366 10.0002 8.83366ZM8.33353 18.8337C8.1252 18.8337 7.9502 18.6837 7.91686 18.4837L7.60853 16.2753C7.08353 16.067 6.63353 15.7837 6.2002 15.4503L4.1252 16.292C3.94186 16.3587 3.71686 16.292 3.61686 16.1087L1.9502 13.2253C1.89919 13.1395 1.88121 13.038 1.89962 12.9398C1.91802 12.8416 1.97155 12.7535 2.0502 12.692L3.80853 11.3087L3.7502 10.5003L3.80853 9.66699L2.0502 8.30866C1.97155 8.2471 1.91802 8.15901 1.89962 8.06085C1.88121 7.96269 1.89919 7.86119 1.9502 7.77533L3.61686 4.89199C3.71686 4.70866 3.94186 4.63366 4.1252 4.70866L6.2002 5.54199C6.63353 5.21699 7.08353 4.93366 7.60853 4.72533L7.91686 2.51699C7.9502 2.31699 8.1252 2.16699 8.33353 2.16699H11.6669C11.8752 2.16699 12.0502 2.31699 12.0835 2.51699L12.3919 4.72533C12.9169 4.93366 13.3669 5.21699 13.8002 5.54199L15.8752 4.70866C16.0585 4.63366 16.2835 4.70866 16.3835 4.89199L18.0502 7.77533C18.1585 7.95866 18.1085 8.18366 17.9502 8.30866L16.1919 9.66699L16.2502 10.5003L16.1919 11.3337L17.9502 12.692C18.1085 12.817 18.1585 13.042 18.0502 13.2253L16.3835 16.1087C16.2835 16.292 16.0585 16.367 15.8752 16.292L13.8002 15.4587C13.3669 15.7837 12.9169 16.067 12.3919 16.2753L12.0835 18.4837C12.0502 18.6837 11.8752 18.8337 11.6669 18.8337H8.33353ZM9.3752 3.83366L9.06686 6.00866C8.06686 6.21699 7.18353 6.75033 6.54186 7.49199L4.53353 6.62533L3.90853 7.70866L5.66686 9.00033C5.33353 9.97255 5.33353 11.0281 5.66686 12.0003L3.9002 13.3003L4.5252 14.3837L6.5502 13.517C7.19186 14.2503 8.06686 14.7837 9.05853 14.9837L9.36686 17.167H10.6335L10.9419 14.992C11.9335 14.7837 12.8085 14.2503 13.4502 13.517L15.4752 14.3837L16.1002 13.3003L14.3335 12.0087C14.6669 11.0337 14.6669 9.97533 14.3335 9.00033L16.0919 7.70866L15.4669 6.62533L13.4585 7.49199C12.8037 6.73393 11.9155 6.21505 10.9335 6.01699L10.6252 3.83366H9.3752Z" fill="#5C5858"/>
</svg>
