<svg width="378" height="350" viewBox="0 0 378 350" fill="none" xmlns="http://www.w3.org/2000/svg">
<path d="M20.3614 230.821C20.1465 228.636 20.0969 226.625 20.0721 224.841C20.0721 223.828 20.0721 222.913 20.0721 222.059C20.8988 221.417 24.3462 218.809 25.297 217.047C26.2477 215.286 26.8925 212.889 25.8839 211.045C25.6667 210.605 25.3514 210.211 24.9581 209.89C24.5648 209.568 24.1022 209.325 23.6001 209.176C23.098 209.027 22.5674 208.976 22.0424 209.026C21.5174 209.075 21.0096 209.225 20.5516 209.465C17.8813 210.977 17.6581 216.2 18.3773 218.718C18.4352 218.937 19.8323 222.233 19.8737 222.203L19.9315 222.165C19.8902 222.989 19.8489 223.874 19.8323 224.834C19.8323 226.618 19.8323 228.613 19.9812 230.836C19.9812 231.199 20.039 231.592 20.0721 231.962C20.3697 232.371 20.5351 232.635 20.5351 232.635C20.502 232.023 20.4193 231.403 20.3614 230.821Z" fill="#5C5858"/>
<path d="M11.772 225.28C8.18405 225.816 7.72108 228.893 11.0693 230.859C13.9049 232.522 18.7495 232.635 20.1632 232.635C20.1632 232.408 20.1632 232.182 20.1053 231.962C18.7495 230.065 14.7151 224.834 11.772 225.28Z" fill="#5C5858"/>
<path d="M83.1593 210.841C79.993 210.75 76.653 214.938 75.7188 217.372C75.6361 217.584 74.826 221.016 74.8921 221.008H74.9582C74.4209 221.666 73.8587 222.377 73.3048 223.17C72.2135 224.637 70.9983 226.3 69.816 228.19L69.4027 228.848C69.3448 229.377 69.2952 229.694 69.2952 229.694L69.0141 229.483C68.0155 231.105 67.1077 232.773 66.2942 234.48C65.1199 236.893 64.1848 239.398 63.4999 241.964C63.4999 241.964 63.4999 242.024 63.4999 242.054C63.4338 241.208 63.1527 238.842 63.1114 238.668C62.4913 236.128 59.6805 231.539 56.4976 231.229C55.9755 231.189 55.4501 231.251 54.9563 231.411C54.4624 231.571 54.0116 231.825 53.6338 232.157C53.2559 232.489 52.9598 232.891 52.7651 233.336C52.5704 233.781 52.4816 234.258 52.5045 234.737C52.5045 236.785 54.3399 238.713 56.0346 239.885C57.9526 241.215 63.0039 242.281 63.4007 242.364C62.779 244.999 62.3481 247.668 62.111 250.355C61.9622 251.92 61.8713 253.5 61.7969 255.095C61.7059 254.339 61.6315 253.704 61.6067 253.583C60.9867 251.05 58.1758 246.462 54.993 246.152C54.4713 246.112 53.9461 246.173 53.4527 246.334C52.9593 246.494 52.5089 246.748 52.1317 247.08C51.7545 247.412 51.4592 247.814 51.2654 248.259C51.0717 248.704 50.984 249.181 51.0082 249.659C51.0082 251.708 52.8435 253.628 54.5383 254.808C56.2331 255.987 60.5485 256.992 61.6894 257.234C61.6894 257.847 61.6398 258.451 61.6233 259.064C61.5323 261.989 61.4497 264.907 61.2843 267.772C61.2264 268.778 61.1272 269.768 61.028 270.758C60.9536 270.108 60.8875 269.564 60.8627 269.481C60.2509 266.948 57.4318 262.36 54.2489 262.05C53.7269 262.008 53.2012 262.069 52.7072 262.229C52.2131 262.389 51.7622 262.643 51.3847 262.975C51.0072 263.308 50.7119 263.71 50.5186 264.155C50.3253 264.601 50.2386 265.079 50.2641 265.557C50.2641 267.606 52.0912 269.526 53.786 270.706C55.4807 271.885 59.3829 272.784 60.7304 273.087C60.6395 273.782 60.5485 274.478 60.4411 275.158C60.9205 275.287 61.4083 275.393 61.9126 275.483C62.0945 274.168 62.235 272.83 62.3508 271.477C63.5247 271.779 67.7244 272.8 69.7912 272.52C71.858 272.24 74.4374 271.356 75.4873 269.556C75.7464 269.137 75.907 268.672 75.9589 268.193C76.0108 267.713 75.9528 267.229 75.7887 266.771C75.6246 266.313 75.3579 265.891 75.0057 265.532C74.6535 265.174 74.2234 264.886 73.743 264.688C70.7998 263.554 66.0214 266.344 64.2026 268.302C64.0952 268.423 62.9625 269.965 62.359 270.819C62.4334 269.829 62.5078 268.846 62.5409 267.848C62.6484 264.953 62.6567 262.02 62.6732 259.102C62.6732 258.202 62.6732 257.31 62.6732 256.418C63.0948 256.531 68.0551 257.839 70.403 257.522C72.4946 257.242 75.0492 256.357 76.0991 254.566C76.3592 254.146 76.5204 253.681 76.5724 253.2C76.6244 252.72 76.566 252.235 76.4009 251.777C76.2359 251.318 75.9679 250.897 75.6141 250.539C75.2603 250.18 74.8285 249.894 74.3465 249.697C71.4116 248.563 66.6332 251.345 64.8144 253.303C64.6821 253.454 63.0618 255.669 62.6815 256.252C62.6815 254.286 62.7641 252.328 62.8964 250.4C63.0666 247.797 63.4201 245.206 63.9546 242.644C64.153 242.697 69.3283 244.08 71.7258 243.763C73.8174 243.483 76.3802 242.591 77.4219 240.8C77.6809 240.38 77.8415 239.915 77.8934 239.436C77.9453 238.956 77.8873 238.472 77.7232 238.014C77.5591 237.556 77.2924 237.134 76.9402 236.775C76.588 236.417 76.158 236.129 75.6775 235.931C72.7426 234.797 67.9559 237.587 66.1371 239.545C65.9966 239.696 64.2605 242.085 63.9711 242.569C63.9711 242.417 64.0207 242.259 64.0538 242.115C64.6707 239.567 65.5367 237.075 66.6414 234.669C67.2284 233.331 67.8733 232.091 68.5346 230.889C69.4688 231.237 73.7678 232.786 75.9751 232.718C78.1824 232.65 80.7453 232.03 82.0019 230.352C82.3114 229.962 82.528 229.517 82.6377 229.045C82.7473 228.574 82.7476 228.086 82.6386 227.615C82.5295 227.143 82.3135 226.698 82.0044 226.307C81.6954 225.917 81.3002 225.59 80.8445 225.348C78.0584 223.926 72.9576 226.209 70.9238 227.971C70.8164 228.062 69.8078 229.158 69.0803 229.959C69.3862 229.422 69.692 228.863 69.9979 228.356C71.1388 226.444 72.3127 224.758 73.3627 223.276C73.9662 222.437 74.5366 221.689 75.074 221.008C76.1735 220.918 80.6295 220.487 82.5145 219.496C84.3994 218.506 86.3587 216.873 86.648 214.847C86.7269 214.372 86.6976 213.887 86.562 213.422C86.4264 212.958 86.1873 212.524 85.8598 212.148C85.5323 211.772 85.1234 211.462 84.6587 211.237C84.194 211.012 83.6836 210.877 83.1593 210.841Z" fill="#5C5858"/>
<path d="M39.6987 273.253C39.9137 273.639 40.1204 274.009 40.327 274.417L41.7407 273.994C41.2034 273.019 40.6495 272.044 40.0873 271.084C41.2364 270.743 45.3204 269.481 46.8746 268.188C48.4289 266.896 50.0079 264.854 49.793 262.821C49.7576 262.339 49.6134 261.868 49.3694 261.439C49.1254 261.011 48.7869 260.633 48.3753 260.329C47.9636 260.026 47.4877 259.804 46.9776 259.677C46.4675 259.551 45.9342 259.522 45.4114 259.593C42.3029 260.122 40.0377 264.885 39.7235 267.447C39.7235 267.614 39.7235 269.481 39.7235 270.471C39.1779 269.609 38.6488 268.74 38.0701 267.878C36.4167 265.384 34.6475 262.912 32.8948 260.44L31.3075 258.172C31.7209 258.058 36.6068 256.66 38.3512 255.201C39.9054 253.916 41.4844 251.874 41.2695 249.841C41.2353 249.358 41.0919 248.887 40.8483 248.458C40.6047 248.029 40.2662 247.65 39.8543 247.347C39.4423 247.043 38.966 246.821 38.4553 246.695C37.9447 246.569 37.4109 246.541 36.8879 246.613C33.7794 247.142 31.5142 251.905 31.2001 254.467C31.2001 254.664 31.2001 257.348 31.2001 258.036C30.0344 256.357 28.8935 254.679 27.8436 252.986C26.4142 250.705 25.144 248.345 24.0407 245.917C24.2308 245.865 29.3399 244.406 31.1257 242.931C32.6799 241.646 34.2589 239.605 34.044 237.564C34.0087 237.082 33.8645 236.612 33.6204 236.183C33.3763 235.755 33.0377 235.377 32.6259 235.075C32.2141 234.772 31.7381 234.551 31.228 234.425C30.7179 234.299 30.1848 234.271 29.6624 234.344C26.5539 234.873 24.2887 239.635 23.9745 242.198C23.9745 242.402 23.9745 245.29 23.9745 245.819C23.9167 245.676 23.834 245.532 23.7761 245.396C22.7488 242.944 21.9577 240.414 21.4117 237.836C21.0893 236.415 20.8743 235.039 20.6925 233.694C21.6763 233.52 26.1571 232.65 27.9345 231.486C29.712 230.322 31.4481 228.462 31.4811 226.451C31.5033 225.968 31.4156 225.486 31.2237 225.035C31.0318 224.584 30.7398 224.175 30.3662 223.833C29.9925 223.49 29.5454 223.222 29.0528 223.046C28.5603 222.87 28.0332 222.788 27.5046 222.808C24.3466 223.019 21.5192 227.517 20.8909 230.035C20.8909 230.171 20.6759 231.6 20.5602 232.643H20.1551C20.3122 234.321 20.5354 236.09 20.8991 237.934C21.3815 240.565 22.1202 243.15 23.1065 245.66C23.1152 245.69 23.1291 245.718 23.1478 245.744C22.5774 245.063 20.9239 243.211 20.7834 243.083C18.7414 241.261 13.6571 238.811 10.8628 240.142C10.4059 240.378 10.0089 240.7 9.69775 241.087C9.38663 241.473 9.16847 241.915 9.0576 242.384C8.94672 242.854 8.94564 243.339 9.05444 243.808C9.16323 244.278 9.37943 244.721 9.68883 245.109C10.9454 246.825 13.5992 247.535 15.7073 247.664C18.0883 247.823 22.8998 246.152 23.2801 246.038C24.3503 248.574 25.6042 251.041 27.0334 253.424C27.8601 254.823 28.7282 256.206 29.6293 257.582C29.1167 257.007 28.6538 256.493 28.5794 256.433C26.5456 254.604 21.453 252.154 18.6587 253.485C18.2006 253.721 17.8025 254.043 17.4905 254.43C17.1786 254.817 16.96 255.26 16.849 255.731C16.7381 256.201 16.7374 256.687 16.847 257.157C16.9566 257.627 17.174 258.071 17.4848 258.459C18.7331 260.175 21.3952 260.878 23.5033 261.014C25.6114 261.15 29.7781 259.805 30.8776 259.427C31.2331 259.948 31.5721 260.477 31.9276 260.999C33.581 263.509 35.3171 266.011 36.8879 268.506C37.4418 269.39 37.9626 270.275 38.4752 271.159C38.0205 270.645 37.6485 270.222 37.5741 270.161C35.5321 268.339 30.4395 265.89 27.6534 267.221C27.1959 267.456 26.7981 267.778 26.4862 268.164C26.1742 268.55 25.9552 268.992 25.8435 269.461C25.7319 269.93 25.7301 270.416 25.8383 270.886C25.9464 271.356 26.1622 271.799 26.4712 272.187C27.7196 273.903 30.3816 274.614 32.4897 274.75C34.5979 274.886 38.3842 273.677 39.6987 273.253Z" fill="#5C5858"/>
<path d="M67.526 218.899C64.3762 217.244 61.8878 219.368 63.1279 222.823C64.1861 225.779 67.9311 228.704 68.9893 229.475L69.3779 228.84C69.6424 226.542 70.0971 220.245 67.526 218.899Z" fill="#5C5858"/>
<path d="M258.208 338.848C254.72 338.931 251.338 343.762 250.503 346.514C250.462 346.657 250.189 348.162 250.007 349.303C251.661 349.439 253.314 349.545 254.968 349.621C256.097 349.373 257.182 348.981 258.192 348.457C260.135 347.3 262.243 345.327 262.392 343.067C262.448 342.533 262.382 341.994 262.197 341.485C262.013 340.976 261.714 340.508 261.32 340.111C260.926 339.714 260.446 339.397 259.91 339.179C259.374 338.962 258.795 338.849 258.208 338.848Z" fill="#5C5858"/>
<path d="M228.099 296.091C224.081 296.091 222.99 299.387 226.272 302.063C229.042 304.331 234.308 305.23 235.846 305.457L235.92 304.701C234.804 302.396 231.398 296.045 228.099 296.091Z" fill="#5C5858"/>
<path d="M292.798 338.304C293.162 337.887 293.426 337.406 293.575 336.89C293.724 336.375 293.753 335.836 293.661 335.31C293.569 334.783 293.358 334.28 293.042 333.832C292.725 333.385 292.31 333.002 291.823 332.71C288.838 331.009 283.084 333.284 280.736 335.129C280.555 335.265 278.372 337.435 277.843 338.009C278.248 335.862 278.67 333.738 279.199 331.651C279.875 328.83 280.753 326.052 281.828 323.336C282.034 323.426 287.408 325.762 290.095 325.8C292.426 325.8 295.386 325.263 296.866 323.479C297.229 323.063 297.494 322.581 297.642 322.066C297.791 321.55 297.82 321.012 297.729 320.485C297.637 319.959 297.426 319.456 297.109 319.008C296.793 318.56 296.378 318.178 295.89 317.885C292.906 316.184 287.152 318.46 284.804 320.304C284.614 320.448 282.266 322.776 281.869 323.23C281.935 323.071 281.977 322.905 282.043 322.746C283.202 320.065 284.622 317.485 286.284 315.035C287.177 313.675 288.119 312.42 289.07 311.255C290.021 311.785 294.419 314.158 296.833 314.43C299.247 314.703 302.165 314.43 303.851 312.813C304.263 312.436 304.583 311.984 304.793 311.487C305.002 310.991 305.095 310.459 305.066 309.927C305.037 309.395 304.887 308.875 304.625 308.399C304.363 307.924 303.996 307.504 303.546 307.166C300.776 305.17 294.782 306.856 292.22 308.443C292.079 308.534 290.773 309.562 289.83 310.318C290.26 309.781 290.707 309.222 291.128 308.715C292.74 306.81 294.336 305.162 295.766 303.711C296.593 302.894 297.345 302.199 298.064 301.496C299.288 301.572 304.232 301.813 306.456 301.05C308.68 300.286 311.151 298.782 311.821 296.628C311.997 296.118 312.055 295.581 311.991 295.05C311.928 294.52 311.745 294.007 311.453 293.544C311.162 293.081 310.768 292.679 310.298 292.363C309.828 292.046 309.291 291.823 308.721 291.706C305.29 291.094 300.851 295.138 299.387 297.648C299.263 297.867 297.734 301.473 297.783 301.481H297.858C297.155 302.108 296.403 302.796 295.601 303.56C294.138 304.988 292.492 306.584 290.831 308.489L290.26 309.139C290.095 309.706 289.987 310.038 289.987 310.038C289.987 310.038 289.88 309.94 289.715 309.766C288.4 311.278 287.061 312.956 285.796 314.778C284.055 317.226 282.558 319.812 281.323 322.504C281.323 322.504 281.323 322.572 281.323 322.602C281.414 321.665 281.563 319.042 281.547 318.823C281.365 315.958 279.166 310.507 275.76 309.66C275.198 309.535 274.613 309.52 274.044 309.617C273.475 309.714 272.935 309.92 272.461 310.223C271.986 310.525 271.587 310.917 271.291 311.371C270.994 311.825 270.807 312.332 270.741 312.858C270.378 315.126 271.981 317.477 273.61 319.034C275.445 320.788 280.753 322.754 281.175 322.912C279.988 325.686 279.007 328.53 278.24 331.425C277.785 333.103 277.413 334.819 276.991 336.535C277.041 335.726 277.074 335.023 277.066 334.902C276.876 332.037 274.685 326.586 271.279 325.74C270.717 325.611 270.132 325.594 269.563 325.69C268.993 325.785 268.453 325.991 267.978 326.293C267.502 326.595 267.103 326.987 266.807 327.442C266.511 327.896 266.325 328.404 266.261 328.93C265.897 331.198 267.501 333.556 269.129 335.114C270.758 336.671 275.272 338.447 276.462 338.894L276.041 340.874C275.479 343.588 274.925 346.294 274.313 348.963L275.801 348.774C276.313 346.226 276.785 343.656 277.248 341.086C277.421 340.111 277.611 339.143 277.802 338.168C278.231 338.357 283.398 340.572 286.019 340.61C288.359 340.647 291.318 340.088 292.798 338.304Z" fill="#5C5858"/>
<path d="M290.137 297.988C287.012 295.683 283.903 297.603 284.589 301.564C285.184 304.966 288.723 308.746 289.715 309.759L290.261 309.131C291.021 306.674 292.675 299.871 290.137 297.988Z" fill="#5C5858"/>
<path d="M236.457 303.469C236.639 301.057 236.97 298.85 237.284 296.907C237.466 295.804 237.656 294.806 237.846 293.883C238.905 293.324 243.129 291.018 244.501 289.249C245.874 287.48 247.031 284.971 246.287 282.801C246.133 282.287 245.864 281.808 245.497 281.394C245.129 280.981 244.671 280.642 244.152 280.399C243.633 280.157 243.065 280.016 242.483 279.985C241.901 279.955 241.319 280.036 240.773 280.223C237.565 281.455 236.333 287.11 236.639 289.967C236.639 290.217 237.557 294.035 237.615 294.012L237.681 293.974C237.474 294.866 237.268 295.826 237.069 296.877C236.705 298.82 236.325 301.02 236.085 303.446C236.044 303.847 236.003 304.27 235.97 304.686C236.209 305.185 236.35 305.495 236.35 305.495C236.333 304.815 236.367 304.119 236.457 303.469Z" fill="#5C5858"/>
<path d="M237.45 344.344C236.755 344.558 236.142 344.948 235.681 345.468C235.219 345.989 234.93 346.619 234.846 347.285C239.12 348.041 243.394 348.668 247.66 349.084C245.758 346.74 240.724 343.346 237.45 344.344Z" fill="#5C5858"/>
<path d="M267.476 342.961C266.914 342.832 266.329 342.815 265.76 342.911C265.191 343.006 264.65 343.212 264.175 343.514C263.7 343.816 263.3 344.208 263.004 344.663C262.708 345.117 262.522 345.625 262.458 346.151C262.319 347.392 262.608 348.643 263.284 349.727C266.409 349.666 269.512 349.477 272.593 349.16C271.676 346.499 269.882 343.573 267.476 342.961Z" fill="#5C5858"/>
<path d="M248.619 346.74C247.288 343.762 245.833 340.776 244.402 337.797C243.964 336.89 243.534 335.975 243.104 335.061C243.576 335 249.172 334.252 251.372 332.944C253.314 331.787 255.422 329.814 255.571 327.554C255.626 327.025 255.561 326.491 255.378 325.986C255.196 325.481 254.902 325.016 254.513 324.62C254.125 324.225 253.651 323.907 253.122 323.687C252.592 323.467 252.019 323.35 251.438 323.343C247.949 323.419 244.568 328.257 243.733 331.001C243.667 331.213 243.154 334.146 243.071 334.894C242.121 332.884 241.195 330.873 240.376 328.847C239.247 326.133 238.311 323.355 237.574 320.531C237.789 320.531 243.633 319.775 245.841 318.414C247.775 317.258 249.892 315.277 250.041 313.024C250.095 312.495 250.03 311.96 249.848 311.455C249.666 310.95 249.371 310.484 248.983 310.088C248.595 309.692 248.121 309.374 247.592 309.153C247.062 308.932 246.489 308.814 245.907 308.806C242.418 308.889 239.037 313.72 238.202 316.472C238.136 316.683 237.59 319.843 237.541 320.418C237.499 320.259 237.433 320.093 237.392 319.926C236.741 317.079 236.365 314.185 236.267 311.278C236.185 309.675 236.21 308.141 236.267 306.652C237.367 306.614 242.418 306.379 244.584 305.389C246.75 304.399 248.991 302.69 249.404 300.468C249.521 299.945 249.519 299.405 249.396 298.883C249.273 298.361 249.033 297.868 248.691 297.435C248.349 297.002 247.913 296.639 247.409 296.369C246.906 296.098 246.346 295.926 245.766 295.864C242.286 295.584 238.326 300.045 237.177 302.668C237.119 302.811 236.656 304.346 236.35 305.465L235.895 305.404C235.747 307.256 235.656 309.184 235.705 311.271C235.733 314.216 236.045 317.153 236.639 320.047V320.146C236.152 319.314 234.697 317.031 234.564 316.865C232.688 314.551 227.603 311.066 224.305 312.072C223.763 312.26 223.27 312.55 222.859 312.923C222.447 313.296 222.127 313.744 221.917 314.238C221.707 314.732 221.613 315.261 221.642 315.791C221.67 316.32 221.82 316.838 222.081 317.311C223.114 319.375 225.884 320.577 228.157 321.091C230.72 321.635 236.284 320.599 236.73 320.516C237.415 323.452 238.31 326.343 239.409 329.172C240.046 330.827 240.74 332.475 241.451 334.116C241.004 333.413 240.624 332.778 240.533 332.702C238.657 330.381 233.572 326.904 230.274 327.909C229.733 328.097 229.241 328.387 228.831 328.76C228.42 329.132 228.1 329.58 227.89 330.073C227.68 330.566 227.586 331.094 227.614 331.622C227.641 332.151 227.79 332.668 228.05 333.141C229.083 335.212 231.844 336.406 234.126 336.92C236.408 337.435 241.195 336.618 242.451 336.391C242.732 337.019 243.005 337.646 243.278 338.274C244.642 341.297 246.023 344.284 247.271 347.262C247.536 347.897 247.784 348.532 248.032 349.16L249.685 349.311C249.346 348.434 248.999 347.587 248.619 346.74Z" fill="#5C5858"/>
<path d="M232.348 117.457L232.893 120.443L236.531 120.738L237.622 117.911C238.815 117.813 239.99 117.579 241.119 117.215L243.418 119.347L246.576 117.676L245.708 114.804C246.622 114.092 247.436 113.28 248.13 112.385L251.338 112.929L252.884 109.905L250.362 108.008C250.661 106.946 250.814 105.854 250.817 104.757L253.809 103.517L253.173 100.229L249.866 99.9943C249.446 98.9829 248.891 98.023 248.213 97.1368L249.916 94.506L247.336 92.1474L244.443 93.7198C242.775 92.6901 240.892 91.9874 238.912 91.656L238.085 88.6322H234.431L233.604 91.656C232.464 91.8488 231.353 92.1687 230.298 92.6085L227.693 90.5447L224.701 92.4573L225.933 95.4056C225.128 96.1546 224.426 96.9897 223.841 97.8927L220.402 97.5677L219.153 100.705L221.997 102.466C221.864 103.198 221.798 103.939 221.799 104.681C221.799 104.999 221.799 105.309 221.799 105.619L218.814 107.131L219.757 110.351L223.138 110.313C223.641 111.276 224.265 112.182 224.998 113.012L223.535 115.794L226.329 117.933L229.091 116.232M244.253 100.644C245.231 102.236 245.609 104.078 245.329 105.886C245.049 107.694 244.125 109.368 242.701 110.648C241.278 111.929 239.432 112.745 237.451 112.971C235.469 113.197 233.461 112.82 231.737 111.899C230.013 110.977 228.668 109.563 227.911 107.873C227.153 106.183 227.025 104.313 227.546 102.55C228.067 100.787 229.208 99.2299 230.793 98.119C232.378 97.0082 234.319 96.4053 236.316 96.4035C236.753 96.4028 237.19 96.4331 237.622 96.4942M240.706 97.4316C241.405 97.7854 242.05 98.2226 242.624 98.7319" stroke="#5C5858" stroke-miterlimit="10"/>
<path d="M240.962 287.731L241.508 290.717L245.146 291.011L246.237 288.184C247.43 288.086 248.604 287.853 249.734 287.489L252.032 289.62L255.19 287.95L254.363 285.077C255.278 284.366 256.091 283.553 256.786 282.658L259.993 283.202L261.539 280.178L259.059 278.281C259.358 277.219 259.511 276.127 259.514 275.03L262.507 273.791L261.87 270.502L258.563 270.268C258.147 269.255 257.591 268.295 256.91 267.41L258.613 264.779L256.033 262.421L253.14 263.993C251.472 262.964 249.589 262.261 247.609 261.929L246.782 258.906H243.128L242.302 261.929C241.161 262.122 240.05 262.442 238.995 262.882L236.366 260.841L233.373 262.753L234.605 265.702C233.801 266.451 233.098 267.286 232.513 268.189L229.074 267.864L227.826 271.001L230.67 272.762C230.536 273.494 230.47 274.235 230.471 274.977C230.471 275.295 230.471 275.605 230.471 275.915L227.487 277.427L228.429 280.647L231.811 280.609C232.313 281.572 232.937 282.478 233.671 283.308L232.232 286.105L235.026 288.245L237.738 286.476M252.9 270.888C253.879 272.48 254.257 274.322 253.977 276.13C253.696 277.938 252.773 279.611 251.349 280.891C249.925 282.172 248.08 282.988 246.098 283.214C244.117 283.44 242.109 283.063 240.385 282.142C238.66 281.221 237.316 279.806 236.558 278.116C235.801 276.427 235.673 274.556 236.194 272.793C236.715 271.03 237.856 269.473 239.441 268.362C241.026 267.251 242.967 266.649 244.964 266.647C245.401 266.646 245.838 266.676 246.27 266.737M249.354 267.675C250.053 268.029 250.698 268.466 251.272 268.975" stroke="#5C5858" stroke-miterlimit="10"/>
<path d="M258.687 81.6395L259.167 82.7886C258.927 83.0078 258.696 83.2421 258.472 83.4765M257.257 84.9884C257.191 85.0791 257.133 85.1699 257.075 85.2606L253.636 84.9431L252.388 88.0728L255.232 89.8342C255.096 90.566 255.027 91.3068 255.025 92.0491C255.025 92.3666 255.025 92.6766 255.025 92.9865L252.032 94.4985L252.983 97.7189H256.364C256.862 98.6867 257.486 99.5956 258.224 100.425L256.761 103.2L259.555 105.347L262.267 103.57C263.293 104.11 264.386 104.534 265.524 104.832L266.07 107.819L269.699 108.106L270.799 105.279C271.991 105.183 273.166 104.952 274.296 104.591L276.586 106.715L279.744 105.052L278.917 102.179C279.829 101.466 280.643 100.654 281.339 99.76L284.547 100.297L286.093 97.2728L283.572 95.3678C283.867 94.3077 284.019 93.2186 284.026 92.1247L287.019 90.8774L286.382 87.5965L283.076 87.3621C282.654 86.3491 282.099 85.3869 281.422 84.497L283.125 81.8738L280.546 79.5152L277.652 81.0876C275.988 80.0516 274.103 79.3484 272.121 79.0239L271.295 76H267.649L266.822 79.0239C265.683 79.2203 264.572 79.54 263.515 79.9764L260.903 77.9126L257.918 79.8252L258.299 80.7323M278.429 93.7652C278.306 94.3131 278.121 94.8477 277.875 95.3603M277.189 96.532C276.014 98.22 274.213 99.4641 272.116 100.036C270.02 100.608 267.768 100.469 265.773 99.6453C263.779 98.8216 262.177 97.368 261.26 95.5512C260.343 93.7344 260.174 91.6762 260.782 89.7543C261.391 87.8324 262.737 86.1755 264.573 85.0878C266.41 84 268.614 83.5542 270.781 83.8322C272.948 84.1102 274.932 85.0933 276.371 86.6012C277.809 88.1091 278.605 90.0407 278.611 92.0416C278.611 92.2432 278.611 92.4473 278.611 92.6539" stroke="#5C5858" stroke-miterlimit="10"/>
<path d="M40.6237 184.488L37.8872 189.682L43.1121 193.689L48.1716 190.37C50.0906 191.384 52.14 192.177 54.2728 192.729L55.2814 198.308L62.077 198.852L64.119 193.56C66.3497 193.378 68.5466 192.941 70.6584 192.26L74.9408 196.244L80.8436 193.129L79.1901 187.762C80.9009 186.426 82.4253 184.903 83.7288 183.226L89.7225 184.231L92.6078 178.584L87.9037 175.031C88.4521 173.055 88.7298 171.023 88.7305 168.984L94.3191 166.655L93.1369 160.517L86.9695 160.078C86.1812 158.19 85.1458 156.395 83.8859 154.734L87.0605 149.82L82.2407 145.413L76.8257 148.353C73.7155 146.419 70.1943 145.105 66.4917 144.498L64.9292 138.843H58.1088L56.538 144.528C54.4256 144.898 52.3691 145.497 50.412 146.312L45.5344 142.457L39.954 146.033L42.2523 151.544C40.753 152.944 39.4404 154.502 38.3419 156.185L31.9183 155.58L29.587 161.439L34.9028 164.735C34.6502 166.104 34.523 167.49 34.5225 168.878C34.5225 169.467 34.5473 170.05 34.5969 170.624L29 173.482L30.7692 179.529L37.0936 179.461C37.7927 180.824 38.6227 182.126 39.5737 183.355M55.8932 154.235C56.6359 153.997 57.3955 153.805 58.1666 153.66M62.3664 153.358C66.5311 153.534 70.4802 155.102 73.4632 157.766C76.4462 160.429 78.2553 164.002 78.5466 167.805C78.838 171.608 77.5914 175.376 75.0437 178.394C72.496 181.412 68.8247 183.469 64.7274 184.174C60.6301 184.879 56.3924 184.183 52.8194 182.218C49.2463 180.254 46.5871 177.157 45.3469 173.517C44.1066 169.878 44.3718 165.948 46.0921 162.475C47.8124 159.003 50.8678 156.229 54.6779 154.681" stroke="#5C5858" stroke-miterlimit="10"/>
<path d="M142.113 159.329L135.35 155.338" stroke="#3D6498" stroke-width="3" stroke-linecap="round" stroke-linejoin="round"/>
<path d="M153.861 147.325L152.108 145.987" stroke="#3D6498" stroke-width="3" stroke-linecap="round" stroke-linejoin="round"/>
<path d="M134.118 182.522L120.122 179.317" stroke="#3D6498" stroke-width="3" stroke-linecap="round" stroke-linejoin="round"/>
<path d="M209.763 261.188C209.66 261.187 209.557 261.174 209.457 261.15C209.135 261.073 208.859 260.883 208.689 260.621C208.259 259.933 208.027 259.563 211.516 255.904C203.993 260.114 203.191 259.941 202.753 259.842C202.41 259.75 202.116 259.545 201.926 259.268C201.232 258.172 201.099 257.952 215.021 247.535C212.789 248.858 210.466 250.279 208.408 251.534C196.156 259.011 192.344 261.135 190.658 260.78C190.454 260.737 190.261 260.657 190.092 260.544C189.923 260.431 189.78 260.287 189.674 260.122C188.93 258.943 188.93 258.943 205.382 248.072L208.639 245.925C206.738 247.082 204.844 248.261 203.108 249.342C190.162 257.393 184.267 260.87 182.06 260.417C181.83 260.369 181.613 260.277 181.425 260.147C181.237 260.017 181.081 259.851 180.969 259.661C180.142 258.383 179.977 258.096 203.902 243.234L172.437 259.865C172.157 260.008 171.827 260.044 171.517 259.966C171.208 259.888 170.945 259.703 170.784 259.449C170.23 258.572 170.66 257.499 172.933 255.669C169.312 257.574 167.212 258.338 166.179 258.119C165.964 258.073 165.761 257.989 165.582 257.871C165.403 257.753 165.252 257.603 165.137 257.431C164.451 256.342 164.715 255.337 173.47 249.954C164.443 255.118 161.111 256.637 159.813 256.357C159.62 256.316 159.438 256.239 159.279 256.131C159.12 256.023 158.987 255.887 158.887 255.73C158.284 254.785 158.846 254.445 160.921 253.19L165.493 250.461L172.487 246.326C164.782 249.985 163.624 249.735 162.979 249.591C162.762 249.546 162.557 249.461 162.377 249.342C162.196 249.222 162.044 249.071 161.929 248.896C161.777 248.64 161.738 248.34 161.821 248.058C161.904 247.777 162.103 247.535 162.376 247.384C186.64 234.23 224.099 213.131 233.126 206.154C224.123 209.896 197.206 225.181 181.87 233.913C162.12 245.139 162.029 245.116 161.202 244.92C161.031 244.884 160.87 244.818 160.728 244.725C160.586 244.631 160.466 244.512 160.375 244.375C159.706 243.317 159.739 242.637 167.642 238.161C164.004 239.726 161.607 240.429 160.549 240.202C160.317 240.153 160.099 240.06 159.909 239.93C159.718 239.8 159.559 239.635 159.441 239.446C159.283 239.195 159.237 238.898 159.312 238.616C159.387 238.334 159.579 238.09 159.846 237.934C184.334 223.669 218.783 203.47 232.837 194.935C228.927 196.757 223.677 199.471 217.84 202.669C213.12 205.443 207.523 208.671 200.901 212.436C192.154 217.418 183.308 222.354 175.942 226.436C158.151 236.702 157.936 236.657 157.068 236.46C156.898 236.423 156.737 236.355 156.595 236.26C156.453 236.165 156.333 236.046 156.242 235.908C156.089 235.652 156.05 235.352 156.134 235.071C156.217 234.789 156.415 234.548 156.688 234.397C162.045 231.486 167.956 228.243 174.09 224.841L177.315 222.981C164.467 229.702 157.366 232.643 155.274 232.174C155.032 232.131 154.803 232.041 154.602 231.911C154.402 231.78 154.233 231.612 154.109 231.418C153.34 230.208 154.431 228.666 163.492 223.254C157.647 226.512 155.332 227.479 154.348 227.26C154.161 227.222 153.984 227.148 153.829 227.044C153.674 226.94 153.544 226.808 153.447 226.655C152.926 225.831 152.505 225.143 158.556 221.129C155.299 222.641 153.241 223.254 152.257 223.034C152.034 222.99 151.823 222.904 151.638 222.782C151.453 222.66 151.298 222.504 151.182 222.324C151.099 222.194 151.045 222.05 151.024 221.901C151.002 221.751 151.014 221.6 151.058 221.454C151.145 221.165 151.353 220.918 151.637 220.766C178.464 206.819 219.089 184.73 231.457 175.817C217.89 182.666 180.489 202.744 154.39 216.896C154.249 216.972 154.093 217.022 153.931 217.042C153.769 217.063 153.604 217.054 153.445 217.016C153.287 216.978 153.138 216.912 153.008 216.821C152.878 216.731 152.769 216.617 152.687 216.488C152.56 216.28 152.481 216.051 152.454 215.815C152.427 215.578 152.452 215.339 152.53 215.112C152.99 214.153 153.686 213.305 154.563 212.632C152.637 213.35 151.347 213.615 150.612 213.449C150.383 213.398 150.168 213.304 149.98 213.174C149.792 213.044 149.636 212.88 149.52 212.693C148.776 211.521 150.198 210.614 152.348 209.246C154.001 208.225 156.341 206.811 159.615 204.937C165.724 201.444 174.107 196.817 182.986 191.926C192.964 186.423 204.82 179.884 214.236 174.471C194.089 185.055 162.359 202.003 147.123 210.153C146.834 210.302 146.493 210.343 146.172 210.266C146.015 210.228 145.867 210.162 145.738 210.071C145.608 209.98 145.5 209.867 145.42 209.737C144.783 208.724 144.593 208.429 155.547 202.124C151.256 204.279 148.545 205.209 147.164 204.914C146.904 204.864 146.657 204.765 146.441 204.623C146.224 204.481 146.043 204.3 145.908 204.09C145.081 202.79 145.081 202.79 164.972 192.229C174.173 187.345 185.152 181.509 195.254 175.9C203.737 170.744 210.375 166.828 215.41 164.107C218.051 162.501 220.557 160.717 222.908 158.77C212.582 163.011 171.809 185.554 146.023 200.219C145.745 200.38 145.408 200.432 145.087 200.366C144.766 200.299 144.487 200.119 144.312 199.864C144.137 199.609 144.079 199.301 144.152 199.008C144.225 198.715 144.422 198.46 144.701 198.299L152.703 193.642C146.089 196.749 143.609 197.271 142.592 197.037C142.362 196.988 142.145 196.895 141.955 196.765C141.766 196.635 141.609 196.47 141.493 196.281C141.333 196.03 141.285 195.732 141.361 195.45C141.436 195.168 141.629 194.923 141.898 194.769L159.515 184.442C145.114 191.881 143.948 191.616 143.237 191.45C143.048 191.41 142.87 191.335 142.714 191.23C142.557 191.124 142.426 190.991 142.328 190.838C142.173 190.584 142.131 190.286 142.209 190.005C142.288 189.724 142.481 189.481 142.75 189.326C161.318 178.826 187.698 163.623 203.1 154.09C190.658 160.645 172.511 170.381 159.747 177.246L145.519 184.805C142.361 186.491 140.832 187.315 140.013 187.693L139.798 187.814C139.228 188.063 139.087 188.026 138.847 187.965C138.614 187.908 138.404 187.79 138.243 187.626C138.082 187.461 137.977 187.257 137.941 187.039C137.905 186.82 137.94 186.597 138.04 186.396C138.141 186.196 138.304 186.026 138.508 185.909C158.201 174.774 187.285 157.991 200.314 149.736C193.378 153.41 183.019 159.45 174.686 164.326C151.323 177.933 144.221 181.849 142.163 181.381C141.967 181.338 141.783 181.26 141.621 181.151C141.459 181.042 141.322 180.904 141.22 180.746C140.708 179.922 140.336 179.34 148.098 174.222C145.982 175.076 144.552 175.401 143.717 175.22C143.481 175.17 143.258 175.078 143.062 174.948C142.866 174.818 142.7 174.654 142.576 174.464C142.422 174.211 142.38 173.914 142.457 173.633C142.533 173.352 142.724 173.109 142.989 172.952C158.242 164.175 181.423 150.416 189.393 144.724C182.416 147.846 167.187 156.819 158.226 162.066C143.585 170.601 143.039 170.812 142.105 170.601C141.933 170.564 141.772 170.497 141.63 170.402C141.488 170.307 141.368 170.187 141.278 170.049C140.617 169.013 140.038 168.091 154.373 159.08C152.604 160.108 150.794 161.174 148.942 162.262C148.789 162.376 148.609 162.456 148.417 162.496C148.225 162.537 148.026 162.537 147.834 162.497C147.671 162.461 147.518 162.395 147.384 162.303C147.25 162.21 147.139 162.094 147.057 161.96C146.172 160.561 147.445 159.359 157.506 152.306C157.322 152.271 157.148 152.199 156.995 152.098C156.843 151.996 156.716 151.866 156.622 151.717C156.469 151.456 156.432 151.151 156.52 150.866C156.608 150.581 156.813 150.339 157.093 150.19C157.325 150.073 157.59 150.023 157.854 150.046C159.161 149.352 160.428 148.595 161.648 147.778C165.683 145.185 166.824 144.565 167.807 144.754C167.999 144.793 168.181 144.867 168.34 144.972C168.499 145.077 168.633 145.212 168.733 145.367C169.444 146.5 168.89 147.181 162.12 151.974C164.004 150.908 165.947 149.804 167.907 148.715C187.02 138.026 188.5 138.344 189.401 138.54C189.6 138.579 189.787 138.656 189.951 138.765C190.114 138.875 190.251 139.014 190.352 139.175C190.507 139.428 190.551 139.725 190.474 140.006C190.398 140.288 190.206 140.531 189.939 140.687C180.613 145.979 170.924 151.709 162.797 156.661C181.663 145.646 190.732 140.785 193.287 141.375C193.508 141.42 193.718 141.507 193.901 141.629C194.084 141.751 194.238 141.907 194.353 142.086C195.139 143.333 195.709 144.24 169.61 159.949L165.856 162.217C171.114 159.193 176.438 156.018 180.737 153.448C197.478 143.514 200.19 142.055 201.455 142.328C201.628 142.369 201.791 142.442 201.933 142.542C202.075 142.642 202.193 142.767 202.282 142.91C202.44 143.161 202.486 143.458 202.411 143.74C202.335 144.022 202.144 144.266 201.876 144.422C185.689 153.856 162.045 167.94 150.355 175.507C156.638 172.12 165.542 166.927 173.297 162.406C197.875 148.043 205.894 143.696 208.16 144.195C208.362 144.239 208.553 144.32 208.72 144.433C208.888 144.546 209.029 144.689 209.135 144.852C209.739 145.813 210.177 146.493 195.8 155.27C215.947 144.58 216.336 144.686 216.972 144.822C217.134 144.86 217.286 144.927 217.42 145.019C217.553 145.112 217.665 145.227 217.749 145.359C218.576 146.667 219.163 147.627 181.151 169.837C178.389 171.455 175.62 173.065 172.883 174.637C187.93 166.503 205.861 156.494 219.444 148.738C219.586 148.659 219.744 148.606 219.909 148.583C220.074 148.559 220.241 148.566 220.403 148.602C220.728 148.678 221.008 148.868 221.18 149.131C221.767 150.069 220.899 150.643 219.982 151.218C219.419 151.573 218.593 152.087 217.501 152.73C215.501 153.947 212.541 155.753 208.722 158.021C202.29 161.854 193.303 167.169 182.01 173.821C171.131 180.224 160.169 186.672 152.654 191.065C162.583 186.264 181.895 175.892 219.097 154.158C224.454 151.036 224.454 151.036 225 151.135C225.163 151.171 225.317 151.238 225.452 151.33C225.587 151.422 225.7 151.538 225.785 151.671C226.091 152.155 226.265 152.427 225.273 153.236C223.95 154.294 220.66 156.26 213.153 160.72C223.785 155.391 224.777 155.61 225.421 155.761C225.609 155.8 225.786 155.873 225.941 155.977C226.096 156.082 226.226 156.214 226.323 156.366C226.769 157.076 226.876 157.931 225.223 159.624C225.875 159.438 226.565 159.391 227.24 159.488C227.51 159.539 227.765 159.642 227.988 159.789C228.212 159.936 228.399 160.125 228.538 160.342C229.365 161.642 229.778 162.308 205.216 176.474C231.225 162.701 231.481 162.761 232.101 162.912C232.26 162.95 232.41 163.015 232.54 163.106C232.671 163.197 232.78 163.311 232.862 163.442C233.689 164.697 232.201 165.959 228.646 168.333C226.356 169.845 223.123 171.84 218.791 174.38C233.234 166.133 236.855 164.424 238.145 164.712C238.327 164.752 238.499 164.826 238.649 164.929C238.8 165.031 238.926 165.161 239.021 165.309C239.104 165.438 239.158 165.58 239.179 165.728C239.2 165.876 239.189 166.027 239.145 166.171C239.103 166.317 239.03 166.453 238.929 166.573C238.828 166.692 238.702 166.792 238.558 166.866C230.125 171.236 221.552 175.756 213.269 180.217L204.687 185.176C187.814 194.943 175.504 201.966 166.865 206.562C164.128 208.278 161.789 209.805 159.912 211.098C167.601 206.94 180.696 199.872 193.808 192.879C235.144 170.759 235.772 170.918 236.557 171.107C236.719 171.145 236.871 171.212 237.005 171.304C237.138 171.396 237.25 171.512 237.334 171.644C237.454 171.837 237.53 172.051 237.557 172.272C237.584 172.493 237.561 172.716 237.492 172.929C237.248 173.661 236.78 174.314 236.144 174.811C238.98 173.519 240.757 172.989 241.633 173.178C241.847 173.223 242.047 173.307 242.224 173.426C242.4 173.544 242.548 173.694 242.659 173.866C243.32 174.91 242.394 175.477 240.352 176.716C239.12 177.472 237.301 178.523 234.78 179.959L234.292 180.239C238.145 178.553 240.848 177.76 242.204 178.062C242.481 178.114 242.743 178.218 242.973 178.368C243.204 178.518 243.398 178.71 243.543 178.931C244.684 180.738 243.543 181.887 203.208 203.704C186.268 212.935 163.889 225.03 157.788 229.566C161.152 228.485 169.535 224.781 190.369 213.252C207.349 203.856 226.05 192.886 235.011 187.617C241.237 183.966 241.228 183.974 241.782 184.095C242.111 184.171 242.394 184.364 242.568 184.631C243.072 185.433 243.584 186.242 236.781 190.876C237.741 190.479 238.797 190.312 239.848 190.392C240.079 190.442 240.297 190.535 240.487 190.665C240.678 190.795 240.837 190.959 240.955 191.148C241.683 192.304 241.683 192.304 228.307 200.318C221.693 204.264 212.516 209.714 200.942 216.518C189.782 223.08 178.53 229.664 170.825 234.162C186.433 226.512 215.683 209.548 228.695 202.003C240.269 195.313 240.269 195.313 240.898 195.457C241.06 195.495 241.212 195.562 241.345 195.654C241.478 195.746 241.59 195.862 241.675 195.993C242.559 197.4 241.154 199.395 235.714 203.092C235.873 203.071 236.035 203.071 236.194 203.092C236.396 203.136 236.587 203.217 236.754 203.33C236.922 203.443 237.063 203.586 237.169 203.75C238.037 205.126 239.021 206.683 202.331 227.691C212.88 221.749 223.826 215.429 232.664 210.191C232.805 210.106 232.964 210.049 233.13 210.023C233.296 209.997 233.467 210.002 233.631 210.038C233.795 210.074 233.949 210.14 234.084 210.233C234.219 210.325 234.332 210.442 234.416 210.576C235.02 211.544 234.185 212.088 232.763 212.995C231.936 213.532 230.688 214.318 229.051 215.316C227.414 216.314 225.38 217.584 222.925 219.035C226.347 217.448 228.464 216.805 229.539 217.047C229.772 217.095 229.992 217.187 230.184 217.317C230.376 217.448 230.536 217.613 230.655 217.803C231.349 218.899 231.192 219.315 222.826 224.259C224.586 223.571 225.835 223.322 226.637 223.503C226.886 223.552 227.121 223.648 227.327 223.785C227.534 223.921 227.707 224.096 227.835 224.297C228.811 225.809 228.075 226.519 205.671 238.925C199.256 242.478 191.179 246.946 184.639 250.801L228.629 227.585C228.77 227.509 228.926 227.46 229.088 227.44C229.25 227.421 229.414 227.431 229.572 227.472C229.887 227.549 230.157 227.736 230.324 227.993C230.936 228.969 230.068 229.551 228.629 230.518C227.761 231.101 226.488 231.924 224.735 233.028C221.47 235.1 216.931 237.904 212.128 240.883C206.531 244.345 199.487 248.707 193.717 252.373C196.371 250.771 199.132 249.055 201.587 247.528C214.376 239.575 219.775 236.392 221.883 236.816C222.104 236.86 222.313 236.945 222.496 237.066C222.679 237.187 222.834 237.341 222.95 237.519C223.669 238.668 223.702 238.721 209.036 248.435C219.676 241.964 223.156 240.119 224.744 240.444C224.948 240.487 225.141 240.567 225.31 240.68C225.479 240.793 225.621 240.937 225.727 241.102C226.306 242.024 226.306 242.024 218.907 247.55C216.675 249.213 213.575 251.527 210.78 253.666C213.045 252.388 215.542 250.937 217.915 249.531C218.056 249.447 218.215 249.39 218.381 249.363C218.548 249.337 218.718 249.342 218.882 249.378C219.046 249.415 219.2 249.481 219.335 249.573C219.47 249.666 219.583 249.783 219.667 249.916C220.13 250.672 219.957 250.824 218.262 252.487C216.881 253.84 215.699 255.027 214.699 256.04C222.206 251.95 222.478 252.018 223.007 252.139C223.168 252.177 223.319 252.244 223.451 252.337C223.583 252.429 223.694 252.544 223.776 252.676C223.859 252.805 223.913 252.947 223.935 253.095C223.956 253.243 223.946 253.393 223.904 253.538C223.861 253.682 223.788 253.817 223.688 253.935C223.588 254.053 223.464 254.152 223.322 254.225C223.202 254.291 223.07 254.338 222.933 254.362C221.833 254.815 215.724 258.104 210.342 261.082C210.161 261.158 209.963 261.194 209.763 261.188ZM221.693 253.757C221.824 253.96 222.02 254.121 222.255 254.218C222.022 254.118 221.827 253.957 221.693 253.757ZM191.17 242.213C184.028 246.288 177.001 250.37 172.42 253.281C177.406 250.567 184.648 246.197 191.17 242.213ZM221.916 222.082C213.806 226.194 200.686 233.92 190.716 239.809C194.386 237.715 198.57 235.349 203.323 232.673C209.871 228.991 216.923 225.03 221.916 222.082ZM221.387 227.374C216.981 229.521 210.292 233.421 203.77 237.315L204.456 236.937C210.549 233.55 217.163 229.883 221.387 227.358V227.374ZM180.737 210.395C175.281 213.517 170.321 216.457 166.187 218.982C170.469 216.48 175.545 213.479 180.737 210.395ZM239.591 180.663C237.194 181.418 232.11 183.535 221.354 189.439C210.598 195.343 197.602 203.107 186.028 209.986C180.977 213.01 176.728 215.505 173.14 217.607C180.101 213.691 189.451 208.573 201.943 201.814C217.146 193.567 234.143 184.374 239.591 180.663ZM231.829 202.843L230.076 203.863C224.289 207.225 218.808 210.387 213.632 213.35C220.536 209.555 227.058 205.844 231.829 202.843ZM177.001 197.815C169.419 202.003 162.053 206.131 157.159 208.951C159.639 207.794 162.624 206.244 165.997 204.415C169.312 202.351 173.024 200.121 177.001 197.815ZM196.412 177.843C193.237 179.778 190.112 181.698 187.186 183.49C181.399 187.058 176.256 190.173 171.8 192.849L176.356 190.278C193.097 180.844 217.27 167.206 224.38 162.262C221.75 163.337 219.201 164.569 216.749 165.951C213.922 167.758 210.326 169.928 205.77 172.559C202.802 174.26 199.653 176.028 196.412 177.828V177.843Z" fill="#FFB441"/>
<g opacity="0.4">
<path d="M209.763 261.188C209.66 261.187 209.557 261.174 209.457 261.15C209.135 261.073 208.859 260.883 208.689 260.621C208.259 259.933 208.027 259.563 211.516 255.904C203.993 260.114 203.191 259.941 202.753 259.842C202.41 259.75 202.116 259.545 201.926 259.268C201.232 258.172 201.099 257.952 215.021 247.535C212.789 248.858 210.466 250.279 208.408 251.534C196.156 259.011 192.344 261.135 190.658 260.78C190.454 260.737 190.261 260.657 190.092 260.544C189.923 260.431 189.78 260.287 189.674 260.122C188.93 258.943 188.93 258.943 205.382 248.072L208.639 245.925C206.738 247.082 204.844 248.261 203.108 249.342C190.162 257.393 184.267 260.87 182.06 260.417C181.83 260.369 181.613 260.277 181.425 260.147C181.237 260.017 181.081 259.851 180.969 259.661C180.142 258.383 179.977 258.096 203.902 243.234L172.437 259.865C172.157 260.008 171.827 260.044 171.517 259.966C171.208 259.888 170.945 259.703 170.784 259.449C170.23 258.572 170.66 257.499 172.933 255.669C169.312 257.574 167.212 258.338 166.179 258.119C165.964 258.073 165.761 257.989 165.582 257.871C165.403 257.753 165.252 257.603 165.137 257.431C164.451 256.342 164.715 255.337 173.47 249.954C164.443 255.118 161.111 256.637 159.813 256.357C159.62 256.316 159.438 256.239 159.279 256.131C159.12 256.023 158.987 255.887 158.887 255.73C158.284 254.785 158.846 254.445 160.921 253.19L165.493 250.461L172.487 246.326C164.782 249.985 163.624 249.735 162.979 249.591C162.762 249.546 162.557 249.461 162.377 249.342C162.196 249.222 162.044 249.071 161.929 248.896C161.777 248.64 161.738 248.34 161.821 248.058C161.904 247.777 162.103 247.535 162.376 247.384C186.64 234.23 224.099 213.131 233.126 206.154C224.123 209.896 197.206 225.181 181.87 233.913C162.12 245.139 162.029 245.116 161.202 244.92C161.031 244.884 160.87 244.818 160.728 244.725C160.586 244.631 160.466 244.512 160.375 244.375C159.706 243.317 159.739 242.637 167.642 238.161C164.004 239.726 161.607 240.429 160.549 240.202C160.317 240.153 160.099 240.06 159.909 239.93C159.718 239.8 159.559 239.635 159.441 239.446C159.283 239.195 159.237 238.898 159.312 238.616C159.387 238.334 159.579 238.09 159.846 237.934C184.334 223.669 218.783 203.47 232.837 194.935C228.927 196.757 223.677 199.471 217.84 202.669C213.12 205.443 207.523 208.671 200.901 212.436C192.154 217.418 183.308 222.354 175.942 226.436C158.151 236.702 157.936 236.657 157.068 236.46C156.898 236.423 156.737 236.355 156.595 236.26C156.453 236.165 156.333 236.046 156.242 235.908C156.089 235.652 156.05 235.352 156.134 235.071C156.217 234.789 156.415 234.548 156.688 234.397C162.045 231.486 167.956 228.243 174.09 224.841L177.315 222.981C164.467 229.702 157.366 232.643 155.274 232.174C155.032 232.131 154.803 232.041 154.602 231.911C154.402 231.78 154.233 231.612 154.109 231.418C153.34 230.208 154.431 228.666 163.492 223.254C157.647 226.512 155.332 227.479 154.348 227.26C154.161 227.222 153.984 227.148 153.829 227.044C153.674 226.94 153.544 226.808 153.447 226.655C152.926 225.831 152.505 225.143 158.556 221.129C155.299 222.641 153.241 223.254 152.257 223.034C152.034 222.99 151.823 222.904 151.638 222.782C151.453 222.66 151.298 222.504 151.182 222.324C151.099 222.194 151.045 222.05 151.024 221.901C151.002 221.751 151.014 221.6 151.058 221.454C151.145 221.165 151.353 220.918 151.637 220.766C178.464 206.819 219.089 184.73 231.457 175.817C217.89 182.666 180.489 202.744 154.39 216.896C154.249 216.972 154.093 217.022 153.931 217.042C153.769 217.063 153.604 217.054 153.445 217.016C153.287 216.978 153.138 216.912 153.008 216.821C152.878 216.731 152.769 216.617 152.687 216.488C152.56 216.28 152.481 216.051 152.454 215.815C152.427 215.578 152.452 215.339 152.53 215.112C152.99 214.153 153.686 213.305 154.563 212.632C152.637 213.35 151.347 213.615 150.612 213.449C150.383 213.398 150.168 213.304 149.98 213.174C149.792 213.044 149.636 212.88 149.52 212.693C148.776 211.521 150.198 210.614 152.348 209.246C154.001 208.225 156.341 206.811 159.615 204.937C165.724 201.444 174.107 196.817 182.986 191.926C192.964 186.423 204.82 179.884 214.236 174.471C194.089 185.055 162.359 202.003 147.123 210.153C146.834 210.302 146.493 210.343 146.172 210.266C146.015 210.228 145.867 210.162 145.738 210.071C145.608 209.98 145.5 209.867 145.42 209.737C144.783 208.724 144.593 208.429 155.547 202.124C151.256 204.279 148.545 205.209 147.164 204.914C146.904 204.864 146.657 204.765 146.441 204.623C146.224 204.481 146.043 204.3 145.908 204.09C145.081 202.79 145.081 202.79 164.972 192.229C174.173 187.345 185.152 181.509 195.254 175.9C203.737 170.744 210.375 166.828 215.41 164.107C218.051 162.501 220.557 160.717 222.908 158.77C212.582 163.011 171.809 185.554 146.023 200.219C145.745 200.38 145.408 200.432 145.087 200.366C144.766 200.299 144.487 200.119 144.312 199.864C144.137 199.609 144.079 199.301 144.152 199.008C144.225 198.715 144.422 198.46 144.701 198.299L152.703 193.642C146.089 196.749 143.609 197.271 142.592 197.037C142.362 196.988 142.145 196.895 141.955 196.765C141.766 196.635 141.609 196.47 141.493 196.281C141.333 196.03 141.285 195.732 141.361 195.45C141.436 195.168 141.629 194.923 141.898 194.769L159.515 184.442C145.114 191.881 143.948 191.616 143.237 191.45C143.048 191.41 142.87 191.335 142.714 191.23C142.557 191.124 142.426 190.991 142.328 190.838C142.173 190.584 142.131 190.286 142.209 190.005C142.288 189.724 142.481 189.481 142.75 189.326C161.318 178.826 187.698 163.623 203.1 154.09C190.658 160.645 172.511 170.381 159.747 177.246L145.519 184.805C142.361 186.491 140.832 187.315 140.013 187.693L139.798 187.814C139.228 188.063 139.087 188.026 138.847 187.965C138.614 187.908 138.404 187.79 138.243 187.626C138.082 187.461 137.977 187.257 137.941 187.039C137.905 186.82 137.94 186.597 138.04 186.396C138.141 186.196 138.304 186.026 138.508 185.909C158.201 174.774 187.285 157.991 200.314 149.736C193.378 153.41 183.019 159.45 174.686 164.326C151.323 177.933 144.221 181.849 142.163 181.381C141.967 181.338 141.783 181.26 141.621 181.151C141.459 181.042 141.322 180.904 141.22 180.746C140.708 179.922 140.336 179.34 148.098 174.222C145.982 175.076 144.552 175.401 143.717 175.22C143.481 175.17 143.258 175.078 143.062 174.948C142.866 174.818 142.7 174.654 142.576 174.464C142.422 174.211 142.38 173.914 142.457 173.633C142.533 173.352 142.724 173.109 142.989 172.952C158.242 164.175 181.423 150.416 189.393 144.724C182.416 147.846 167.187 156.819 158.226 162.066C143.585 170.601 143.039 170.812 142.105 170.601C141.933 170.564 141.772 170.497 141.63 170.402C141.488 170.307 141.368 170.187 141.278 170.049C140.617 169.013 140.038 168.091 154.373 159.08C152.604 160.108 150.794 161.174 148.942 162.262C148.789 162.376 148.609 162.456 148.417 162.496C148.225 162.537 148.026 162.537 147.834 162.497C147.671 162.461 147.518 162.395 147.384 162.303C147.25 162.21 147.139 162.094 147.057 161.96C146.172 160.561 147.445 159.359 157.506 152.306C157.322 152.271 157.148 152.199 156.995 152.098C156.843 151.996 156.716 151.866 156.622 151.717C156.469 151.456 156.432 151.151 156.52 150.866C156.608 150.581 156.813 150.339 157.093 150.19C157.325 150.073 157.59 150.023 157.854 150.046C159.161 149.352 160.428 148.595 161.648 147.778C165.683 145.185 166.824 144.565 167.807 144.754C167.999 144.793 168.181 144.867 168.34 144.972C168.499 145.077 168.633 145.212 168.733 145.367C169.444 146.5 168.89 147.181 162.12 151.974C164.004 150.908 165.947 149.804 167.907 148.715C187.02 138.026 188.5 138.344 189.401 138.54C189.6 138.579 189.787 138.656 189.951 138.765C190.114 138.875 190.251 139.014 190.352 139.175C190.507 139.428 190.551 139.725 190.474 140.006C190.398 140.288 190.206 140.531 189.939 140.687C180.613 145.979 170.924 151.709 162.797 156.661C181.663 145.646 190.732 140.785 193.287 141.375C193.508 141.42 193.718 141.507 193.901 141.629C194.084 141.751 194.238 141.907 194.353 142.086C195.139 143.333 195.709 144.24 169.61 159.949L165.856 162.217C171.114 159.193 176.438 156.018 180.737 153.448C197.478 143.514 200.19 142.055 201.455 142.328C201.628 142.369 201.791 142.442 201.933 142.542C202.075 142.642 202.193 142.767 202.282 142.91C202.44 143.161 202.486 143.458 202.411 143.74C202.335 144.022 202.144 144.266 201.876 144.422C185.689 153.856 162.045 167.94 150.355 175.507C156.638 172.12 165.542 166.927 173.297 162.406C197.875 148.043 205.894 143.696 208.16 144.195C208.362 144.239 208.553 144.32 208.72 144.433C208.888 144.546 209.029 144.689 209.135 144.852C209.739 145.813 210.177 146.493 195.8 155.27C215.947 144.58 216.336 144.686 216.972 144.822C217.134 144.86 217.286 144.927 217.42 145.019C217.553 145.112 217.665 145.227 217.749 145.359C218.576 146.667 219.163 147.627 181.151 169.837C178.389 171.455 175.62 173.065 172.883 174.637C187.93 166.503 205.861 156.494 219.444 148.738C219.586 148.659 219.744 148.606 219.909 148.583C220.074 148.559 220.241 148.566 220.403 148.602C220.728 148.678 221.008 148.868 221.18 149.131C221.767 150.069 220.899 150.643 219.982 151.218C219.419 151.573 218.593 152.087 217.501 152.73C215.501 153.947 212.541 155.753 208.722 158.021C202.29 161.854 193.303 167.169 182.01 173.821C171.131 180.224 160.169 186.672 152.654 191.065C162.583 186.264 181.895 175.892 219.097 154.158C224.454 151.036 224.454 151.036 225 151.135C225.163 151.171 225.317 151.238 225.452 151.33C225.587 151.422 225.7 151.538 225.785 151.671C226.091 152.155 226.265 152.427 225.273 153.236C223.95 154.294 220.66 156.26 213.153 160.72C223.785 155.391 224.777 155.61 225.421 155.761C225.609 155.8 225.786 155.873 225.941 155.977C226.096 156.082 226.226 156.214 226.323 156.366C226.769 157.076 226.876 157.931 225.223 159.624C225.875 159.438 226.565 159.391 227.24 159.488C227.51 159.539 227.765 159.642 227.988 159.789C228.212 159.936 228.399 160.125 228.538 160.342C229.365 161.642 229.778 162.308 205.216 176.474C231.225 162.701 231.481 162.761 232.101 162.912C232.26 162.95 232.41 163.015 232.54 163.106C232.671 163.197 232.78 163.311 232.862 163.442C233.689 164.697 232.201 165.959 228.646 168.333C226.356 169.845 223.123 171.84 218.791 174.38C233.234 166.133 236.855 164.424 238.145 164.712C238.327 164.752 238.499 164.826 238.649 164.929C238.8 165.031 238.926 165.161 239.021 165.309C239.104 165.438 239.158 165.58 239.179 165.728C239.2 165.876 239.189 166.027 239.145 166.171C239.103 166.317 239.03 166.453 238.929 166.573C238.828 166.692 238.702 166.792 238.558 166.866C230.125 171.236 221.552 175.756 213.269 180.217L204.687 185.176C187.814 194.943 175.504 201.966 166.865 206.562C164.128 208.278 161.789 209.805 159.912 211.098C167.601 206.94 180.696 199.872 193.808 192.879C235.144 170.759 235.772 170.918 236.557 171.107C236.719 171.145 236.871 171.212 237.005 171.304C237.138 171.396 237.25 171.512 237.334 171.644C237.454 171.837 237.53 172.051 237.557 172.272C237.584 172.493 237.561 172.716 237.492 172.929C237.248 173.661 236.78 174.314 236.144 174.811C238.98 173.519 240.757 172.989 241.633 173.178C241.847 173.223 242.047 173.307 242.224 173.426C242.4 173.544 242.548 173.694 242.659 173.866C243.32 174.91 242.394 175.477 240.352 176.716C239.12 177.472 237.301 178.523 234.78 179.959L234.292 180.239C238.145 178.553 240.848 177.76 242.204 178.062C242.481 178.114 242.743 178.218 242.973 178.368C243.204 178.518 243.398 178.71 243.543 178.931C244.684 180.738 243.543 181.887 203.208 203.704C186.268 212.935 163.889 225.03 157.788 229.566C161.152 228.485 169.535 224.781 190.369 213.252C207.349 203.856 226.05 192.886 235.011 187.617C241.237 183.966 241.228 183.974 241.782 184.095C242.111 184.171 242.394 184.364 242.568 184.631C243.072 185.433 243.584 186.242 236.781 190.876C237.741 190.479 238.797 190.312 239.848 190.392C240.079 190.442 240.297 190.535 240.487 190.665C240.678 190.795 240.837 190.959 240.955 191.148C241.683 192.304 241.683 192.304 228.307 200.318C221.693 204.264 212.516 209.714 200.942 216.518C189.782 223.08 178.53 229.664 170.825 234.162C186.433 226.512 215.683 209.548 228.695 202.003C240.269 195.313 240.269 195.313 240.898 195.457C241.06 195.495 241.212 195.562 241.345 195.654C241.478 195.746 241.59 195.862 241.675 195.993C242.559 197.4 241.154 199.395 235.714 203.092C235.873 203.071 236.035 203.071 236.194 203.092C236.396 203.136 236.587 203.217 236.754 203.33C236.922 203.443 237.063 203.586 237.169 203.75C238.037 205.126 239.021 206.683 202.331 227.691C212.88 221.749 223.826 215.429 232.664 210.191C232.805 210.106 232.964 210.049 233.13 210.023C233.296 209.997 233.467 210.002 233.631 210.038C233.795 210.074 233.949 210.14 234.084 210.233C234.219 210.325 234.332 210.442 234.416 210.576C235.02 211.544 234.185 212.088 232.763 212.995C231.936 213.532 230.688 214.318 229.051 215.316C227.414 216.314 225.38 217.584 222.925 219.035C226.347 217.448 228.464 216.805 229.539 217.047C229.772 217.095 229.992 217.187 230.184 217.317C230.376 217.448 230.536 217.613 230.655 217.803C231.349 218.899 231.192 219.315 222.826 224.259C224.586 223.571 225.835 223.322 226.637 223.503C226.886 223.552 227.121 223.648 227.327 223.785C227.534 223.921 227.707 224.096 227.835 224.297C228.811 225.809 228.075 226.519 205.671 238.925C199.256 242.478 191.179 246.946 184.639 250.801L228.629 227.585C228.77 227.509 228.926 227.46 229.088 227.44C229.25 227.421 229.414 227.431 229.572 227.472C229.887 227.549 230.157 227.736 230.324 227.993C230.936 228.969 230.068 229.551 228.629 230.518C227.761 231.101 226.488 231.924 224.735 233.028C221.47 235.1 216.931 237.904 212.128 240.883C206.531 244.345 199.487 248.707 193.717 252.373C196.371 250.771 199.132 249.055 201.587 247.528C214.376 239.575 219.775 236.392 221.883 236.816C222.104 236.86 222.313 236.945 222.496 237.066C222.679 237.187 222.834 237.341 222.95 237.519C223.669 238.668 223.702 238.721 209.036 248.435C219.676 241.964 223.156 240.119 224.744 240.444C224.948 240.487 225.141 240.567 225.31 240.68C225.479 240.793 225.621 240.937 225.727 241.102C226.306 242.024 226.306 242.024 218.907 247.55C216.675 249.213 213.575 251.527 210.78 253.666C213.045 252.388 215.542 250.937 217.915 249.531C218.056 249.447 218.215 249.39 218.381 249.363C218.548 249.337 218.718 249.342 218.882 249.378C219.046 249.415 219.2 249.481 219.335 249.573C219.47 249.666 219.583 249.783 219.667 249.916C220.13 250.672 219.957 250.824 218.262 252.487C216.881 253.84 215.699 255.027 214.699 256.04C222.206 251.95 222.478 252.018 223.007 252.139C223.168 252.177 223.319 252.244 223.451 252.337C223.583 252.429 223.694 252.544 223.776 252.676C223.859 252.805 223.913 252.947 223.935 253.095C223.956 253.243 223.946 253.393 223.904 253.538C223.861 253.682 223.788 253.817 223.688 253.935C223.588 254.053 223.464 254.152 223.322 254.225C223.202 254.291 223.07 254.338 222.933 254.362C221.833 254.815 215.724 258.104 210.342 261.082C210.161 261.158 209.963 261.194 209.763 261.188ZM221.693 253.757C221.824 253.96 222.02 254.121 222.255 254.218C222.022 254.118 221.827 253.957 221.693 253.757ZM191.17 242.213C184.028 246.288 177.001 250.37 172.42 253.281C177.406 250.567 184.648 246.197 191.17 242.213ZM221.916 222.082C213.806 226.194 200.686 233.92 190.716 239.809C194.386 237.715 198.57 235.349 203.323 232.673C209.871 228.991 216.923 225.03 221.916 222.082ZM221.387 227.374C216.981 229.521 210.292 233.421 203.77 237.315L204.456 236.937C210.549 233.55 217.163 229.883 221.387 227.358V227.374ZM180.737 210.395C175.281 213.517 170.321 216.457 166.187 218.982C170.469 216.48 175.545 213.479 180.737 210.395ZM239.591 180.663C237.194 181.418 232.11 183.535 221.354 189.439C210.598 195.343 197.602 203.107 186.028 209.986C180.977 213.01 176.728 215.505 173.14 217.607C180.101 213.691 189.451 208.573 201.943 201.814C217.146 193.567 234.143 184.374 239.591 180.663ZM231.829 202.843L230.076 203.863C224.289 207.225 218.808 210.387 213.632 213.35C220.536 209.555 227.058 205.844 231.829 202.843ZM177.001 197.815C169.419 202.003 162.053 206.131 157.159 208.951C159.639 207.794 162.624 206.244 165.997 204.415C169.312 202.351 173.024 200.121 177.001 197.815ZM196.412 177.843C193.237 179.778 190.112 181.698 187.186 183.49C181.399 187.058 176.256 190.173 171.8 192.849L176.356 190.278C193.097 180.844 217.27 167.206 224.38 162.262C221.75 163.337 219.201 164.569 216.749 165.951C213.922 167.758 210.326 169.928 205.77 172.559C202.802 174.26 199.653 176.028 196.412 177.828V177.843Z" fill="white"/>
</g>
<path d="M192.204 140.022H191.65C161.673 140.528 139.079 161.499 139.079 187.3C139.065 195.005 141.121 202.595 145.064 209.404C146.718 212.995 150.719 221.787 154.679 233.157C158.349 243.65 160.267 254.21 160.267 255.836C160.267 255.987 160.267 256.146 160.267 256.32C160.251 256.794 160.339 257.267 160.526 257.709C160.712 258.152 160.995 258.556 161.355 258.897C161.716 259.239 162.148 259.51 162.626 259.696C163.104 259.882 163.617 259.978 164.137 259.978H217.824C218.343 259.978 218.856 259.882 219.334 259.696C219.812 259.51 220.244 259.239 220.605 258.897C220.966 258.556 221.248 258.152 221.435 257.709C221.622 257.267 221.709 256.794 221.693 256.32C221.693 256.146 221.693 255.987 221.693 255.836C221.693 254.241 223.611 243.68 227.273 233.157C231.241 221.817 235.201 212.995 236.888 209.404C241.011 202.271 243.07 194.293 242.868 186.227C242.667 178.161 240.213 170.276 235.739 163.322C231.264 156.369 224.919 150.577 217.306 146.499C209.693 142.42 201.066 140.191 192.245 140.022H192.204Z" stroke="#3D6498" stroke-width="2" stroke-linecap="round" stroke-linejoin="round"/>
<path d="M210.317 147.612C208.82 146.997 207.285 146.462 205.721 146.009" stroke="#3D6498" stroke-width="3" stroke-linecap="round" stroke-linejoin="round"/>
<path d="M227.546 159.617C227.546 159.617 223.33 153.493 214.062 149.328" stroke="#3D6498" stroke-width="3" stroke-linecap="round" stroke-linejoin="round"/>
<path d="M187.549 238.539V214.258C187.549 214.258 189.591 202.434 182.87 202.434C176.149 202.434 176.661 208.588 184.416 215.203C192.171 221.817 204.075 215.679 205.629 210.478C207.184 205.277 203.042 202.918 200.454 207.167C197.867 211.415 200.454 259.668 200.454 259.668" stroke="#3D6498" stroke-width="3" stroke-linecap="round" stroke-linejoin="round"/>
<path d="M173.172 127.737L176.033 135.97" stroke="#3D6498" stroke-width="3" stroke-linecap="round" stroke-linejoin="round"/>
<path d="M243.262 145.692L233.846 152.427" stroke="#3D6498" stroke-width="3" stroke-linecap="round" stroke-linejoin="round"/>
<path d="M208.349 121.728L204.803 135.97" stroke="#3D6498" stroke-width="3" stroke-linecap="round" stroke-linejoin="round"/>
<path d="M219.32 263.516H162.615C161.889 263.516 161.301 264.055 161.301 264.718V265.316C161.301 265.979 161.889 266.518 162.615 266.518H219.32C220.046 266.518 220.634 265.979 220.634 265.316V264.718C220.634 264.055 220.046 263.516 219.32 263.516Z" fill="#3D6498" stroke="#3D6498" stroke-linecap="round" stroke-linejoin="round"/>
<path d="M219.32 270.275H162.615C161.889 270.275 161.301 270.813 161.301 271.477V272.074C161.301 272.738 161.889 273.276 162.615 273.276H219.32C220.046 273.276 220.634 272.738 220.634 272.074V271.477C220.634 270.813 220.046 270.275 219.32 270.275Z" fill="#3D6498" stroke="#3D6498" stroke-linecap="round" stroke-linejoin="round"/>
<path d="M219.32 277.033H162.615C161.889 277.033 161.301 277.571 161.301 278.235V278.832C161.301 279.496 161.889 280.034 162.615 280.034H219.32C220.046 280.034 220.634 279.496 220.634 278.832V278.235C220.634 277.571 220.046 277.033 219.32 277.033Z" fill="#3D6498" stroke="#3D6498" stroke-linecap="round" stroke-linejoin="round"/>
<path d="M192.708 283.633H163.591L171.974 294.216C172.692 295.125 173.637 295.865 174.729 296.375C175.821 296.885 177.03 297.15 178.257 297.149H203.885C205.114 297.148 206.325 296.88 207.419 296.368C208.513 295.855 209.458 295.113 210.176 294.201L218.493 283.67L192.708 283.633Z" fill="#3D6498" stroke="#3D6498" stroke-linecap="round" stroke-linejoin="round"/>
<path d="M255.216 170.601C255.216 170.601 249.925 175.892 245.593 178.523C241.261 181.154 238.244 184.654 242.22 186.446C244.609 187.519 248.007 186.007 248.007 186.007C248.007 186.007 242.708 187.323 241.749 191.73C240.79 196.137 251.339 194.353 251.339 194.353C251.339 194.353 243.642 199.191 246.048 200.953C248.454 202.714 253.265 201.391 255.671 201.391C258.077 201.391 270.114 194.353 273.032 194.353C275.95 194.353 281.696 200.076 281.696 204.475C281.696 208.875 289.368 208.437 290.352 194.792C291.336 181.146 287.467 169.709 281.208 166.186C274.95 162.663 255.216 170.601 255.216 170.601Z" fill="white" stroke="#3D6498" stroke-miterlimit="10" stroke-linecap="round"/>
<path d="M252.331 185.546L271.535 178.984C271.535 178.984 279.968 177.314 286.019 186.431" stroke="#3D6498" stroke-miterlimit="10" stroke-linecap="round"/>
<path d="M255.695 190.83L273.056 188.192C273.056 188.192 280.761 187.754 285.573 196.114" stroke="#3D6498" stroke-miterlimit="10" stroke-linecap="round"/>
<path d="M276.876 201.391L263.88 204.037L271.577 232.197C271.577 232.197 278.323 244.519 280.241 249.803C282.159 255.087 301.901 272.656 301.901 272.656L325 252.411C325 252.411 314.418 240.973 313.938 238.328C313.459 235.682 311.524 204.884 311.524 200.484C311.524 196.084 301.901 185.516 301.901 185.516C301.901 185.516 297.949 180.338 296.023 171.538C294.097 162.739 285.276 159.118 280.448 159.556C275.62 159.994 262.433 161.317 257.142 164.848C251.851 168.378 247.032 172.77 251.851 174.093C259.846 176.286 272.925 166.534 279.232 173.277C282.126 176.354 285.54 189.908 286.02 191.7C286.02 191.7 283.614 200.061 276.876 201.376" fill="white"/>
<path d="M276.876 201.391L263.88 204.037L271.577 232.197C271.577 232.197 278.323 244.519 280.241 249.803C282.159 255.087 301.901 272.656 301.901 272.656L325 252.411C325 252.411 314.418 240.973 313.938 238.328C313.459 235.682 311.524 204.884 311.524 200.484C311.524 196.084 301.901 185.516 301.901 185.516C301.901 185.516 297.949 180.338 296.023 171.538C294.097 162.739 285.276 159.118 280.448 159.556C275.62 159.994 262.433 161.317 257.142 164.848C251.851 168.378 247.032 172.77 251.851 174.093C259.846 176.286 272.925 166.534 279.232 173.277C282.126 176.354 285.54 189.908 286.02 191.7C286.02 191.7 283.614 200.061 276.876 201.376" stroke="#3D6498" stroke-miterlimit="10" stroke-linecap="round"/>
<path d="M228.414 160.486C228.561 160.345 228.759 160.256 228.971 160.237C229.183 160.218 229.396 160.268 229.571 160.38L231.539 161.627C231.733 161.752 231.865 161.942 231.907 162.156C231.949 162.37 231.897 162.59 231.762 162.769C231.627 162.946 231.42 163.067 231.188 163.105C230.955 163.143 230.716 163.096 230.522 162.973L228.554 161.718C228.361 161.594 228.228 161.406 228.186 161.193C228.145 160.981 228.197 160.762 228.331 160.584C228.354 160.548 228.382 160.515 228.414 160.486Z" fill="#3D6498" stroke="#3D6498" stroke-miterlimit="10" stroke-linecap="round"/>
<path d="M230.671 161.937C231.004 161.611 231.456 161.406 231.942 161.36C232.428 161.314 232.916 161.431 233.316 161.688L239.483 164.591L300.032 201.013C300.549 201.341 300.989 201.759 301.329 202.243C301.668 202.727 301.9 203.267 302.012 203.833C302.123 204.398 302.111 204.979 301.977 205.54C301.843 206.102 301.59 206.634 301.231 207.106C300.872 207.578 300.415 207.981 299.886 208.292C299.357 208.602 298.766 208.814 298.148 208.916C297.529 209.018 296.894 209.007 296.28 208.885C295.666 208.762 295.084 208.53 294.568 208.202L235.804 168.56L231.001 164.78C230.781 164.64 230.592 164.462 230.447 164.255C230.302 164.049 230.203 163.818 230.155 163.577C230.108 163.335 230.113 163.087 230.17 162.848C230.227 162.608 230.335 162.381 230.489 162.179C230.541 162.093 230.601 162.012 230.671 161.937Z" fill="black" stroke="#3D6498" stroke-miterlimit="10" stroke-linecap="round"/>
<path d="M300.04 201.013L282.564 190.505C281.215 190.863 280.026 191.603 279.168 192.62C278.311 193.637 277.829 194.876 277.793 196.16C277.795 196.413 277.817 196.666 277.86 196.916L294.576 208.195C295.618 208.857 296.906 209.114 298.156 208.909C299.405 208.703 300.515 208.052 301.239 207.099C301.964 206.145 302.245 204.968 302.02 203.825C301.795 202.682 301.083 201.668 300.04 201.006V201.013Z" fill="#3D6498" stroke="#3D6498" stroke-miterlimit="10" stroke-linecap="round"/>
<path d="M280.274 249.803C274.983 242.765 268.245 224.72 265.393 221.197C262.541 217.675 254.761 209.858 251.876 201.966C248.991 194.073 247.098 187.754 247.098 181.146C247.098 174.539 253.306 173.405 258.118 180.451C262.929 187.496 268.7 198.314 268.7 198.314C268.7 198.314 272.552 202.714 280.274 201.391" fill="white"/>
<path d="M280.274 249.803C274.983 242.765 268.245 224.72 265.393 221.197C262.541 217.675 254.761 209.858 251.876 201.966C248.991 194.073 247.098 187.754 247.098 181.146C247.098 174.539 253.306 173.405 258.118 180.451C262.929 187.496 268.7 198.314 268.7 198.314C268.7 198.314 272.552 202.714 280.274 201.391" stroke="#3D6498" stroke-miterlimit="10" stroke-linecap="round"/>
<path d="M253.066 178.395L254.72 181.335C254.72 181.335 254.356 181.335 251.785 182.673C250.251 183.473 248.962 184.615 248.04 185.992C248.04 185.992 245.56 179.657 247.751 177.676C248.283 177.162 248.986 176.825 249.751 176.716C250.425 176.652 251.105 176.778 251.698 177.078C252.291 177.378 252.769 177.838 253.066 178.395Z" fill="white" stroke="#3D6498" stroke-miterlimit="10" stroke-linecap="round"/>
<path d="M319.956 243.445C319.956 243.445 307.217 246.893 300.603 252.94C296.223 257.022 292.123 261.347 288.326 265.89L300.132 278.409C300.132 278.409 310.052 268.045 316.666 263.29C321.171 260.126 325.902 257.242 330.828 254.656L319.956 243.445Z" fill="white" stroke="#3D6498" stroke-miterlimit="10" stroke-linecap="round"/>
<path d="M331.786 334.524L294.493 279.702C294.493 279.702 303.934 266.752 311.962 260.281C319.989 253.81 330.373 252.079 330.373 252.079L377 292.999" fill="#3D6498"/>
<path d="M331.786 334.524L294.493 279.702C294.493 279.702 303.934 266.752 311.962 260.281C319.989 253.81 330.373 252.079 330.373 252.079L377 292.999" stroke="#3D6498" stroke-miterlimit="10" stroke-linecap="round"/>
<path d="M259.937 194.406L260.763 194.33" stroke="#3D6498" stroke-miterlimit="10" stroke-linecap="round"/>
<path d="M252.736 198.065C252.736 198.065 253.174 195.653 258.473 194.64" stroke="#3D6498" stroke-miterlimit="10" stroke-linecap="round"/>
<path d="M258.49 196.364C258.49 196.364 258.118 197.385 254.406 198.745" stroke="#3D6498" stroke-miterlimit="10" stroke-linecap="round"/>
<path d="M258.341 193.136C256.483 193.403 254.718 194.057 253.182 195.049" stroke="#3D6498" stroke-miterlimit="10" stroke-linecap="round"/>
<path d="M142.014 117.948C142.014 117.948 149.818 118.53 154.762 120.034C159.705 121.539 164.566 121.546 163.665 117.6C163.128 115.219 159.738 113.699 159.738 113.699C159.738 113.699 164.128 116.723 168.518 114.705C172.908 112.686 164.889 106.14 164.889 106.14C164.889 106.14 173.801 108.725 173.842 105.905C173.884 103.085 169.791 100.424 168.311 98.6857C166.832 96.947 153.373 92.5851 151.595 90.5062C149.818 88.4273 151.215 80.7391 155.018 78.0328C158.821 75.3264 153.712 70.0574 141.385 77.7228C129.059 85.3883 121.544 95.2083 122.296 101.914C123.049 108.619 142.014 117.948 142.014 117.948Z" fill="white" stroke="#3D6498" stroke-miterlimit="10" stroke-linecap="round"/>
<path d="M156.704 110.879L139.244 101.052C139.244 101.052 132.63 95.9945 136.763 86.0309" stroke="#3D6498" stroke-miterlimit="10" stroke-linecap="round"/>
<path d="M159.193 105.172L146.279 94.286C146.279 94.286 141.17 88.9943 145.452 80.3914" stroke="#3D6498" stroke-miterlimit="10" stroke-linecap="round"/>
<path d="M155.315 83.4002L165.567 91.1639L185.201 68.3111C185.201 68.3111 197.85 63.1176 201.182 58.4836C204.513 53.8495 207.349 28.7515 207.349 28.7515L175.611 24.6995C175.611 24.6995 172.379 39.3954 170.411 41.3836C168.444 43.3718 137.078 56.2232 133.283 58.9296C129.489 61.6359 126.273 75.0619 126.273 75.0619C124.581 80.5205 122.368 85.8326 119.659 90.9371C112.425 104.333 113.715 103.305 117.047 106.51C120.378 109.715 128.488 116.232 134.78 117.895C141.071 119.558 148.892 125.5 147.139 118.235C145.337 110.789 127.678 107.652 129.621 98.973C130.506 94.9967 140.137 84.1939 141.36 82.7651C141.36 82.7651 150.049 79.3709 155.332 83.4228" fill="white"/>
<path d="M155.315 83.4002L165.567 91.1639L185.201 68.3111C185.201 68.3111 197.85 63.1176 201.182 58.4836C204.513 53.8495 207.349 28.7515 207.349 28.7515L175.611 24.6995C175.611 24.6995 172.379 39.3954 170.411 41.3836C168.444 43.3718 137.078 56.2232 133.283 58.9296C129.489 61.6359 126.273 75.0619 126.273 75.0619C124.581 80.5205 122.368 85.8326 119.659 90.9371C112.425 104.333 113.715 103.305 117.047 106.51C120.378 109.715 128.488 116.232 134.78 117.895C141.071 119.558 148.892 125.5 147.139 118.235C145.337 110.789 127.678 107.652 129.621 98.973C130.506 94.9967 140.137 84.1939 141.36 82.7651C141.36 82.7651 150.049 79.3709 155.332 83.4228" stroke="#3D6498" stroke-miterlimit="10" stroke-linecap="round"/>
<path d="M149.752 143.499C149.538 143.485 149.336 143.401 149.184 143.262C149.032 143.123 148.94 142.939 148.925 142.743L148.801 140.551C148.785 140.44 148.793 140.326 148.827 140.218C148.861 140.109 148.919 140.009 148.997 139.922C149.076 139.835 149.173 139.764 149.283 139.713C149.393 139.662 149.513 139.633 149.636 139.627C149.759 139.62 149.882 139.637 149.997 139.677C150.113 139.716 150.218 139.777 150.307 139.855C150.395 139.933 150.465 140.028 150.512 140.132C150.559 140.236 150.581 140.348 150.578 140.46L150.711 142.653C150.724 142.867 150.645 143.077 150.491 143.239C150.336 143.4 150.118 143.499 149.884 143.514L149.752 143.499Z" fill="#3D6498" stroke="#3D6498" stroke-miterlimit="10" stroke-linecap="round"/>
<path d="M149.652 140.967C149.165 140.927 148.71 140.728 148.371 140.406C148.032 140.083 147.833 139.66 147.808 139.213L146.535 132.976L140.806 66.9126C140.738 65.7527 141.177 64.6157 142.026 63.7516C142.875 62.8875 144.064 62.3671 145.332 62.305C146.601 62.2428 147.844 62.6439 148.789 63.4201C149.734 64.1963 150.303 65.284 150.371 66.4439L152.223 133.203L151.876 139.016C151.89 139.261 151.852 139.505 151.763 139.736C151.674 139.967 151.536 140.179 151.357 140.361C151.178 140.543 150.962 140.691 150.72 140.796C150.479 140.901 150.217 140.962 149.95 140.974C149.85 140.979 149.751 140.977 149.652 140.967Z" fill="black" stroke="#3D6498" stroke-miterlimit="10" stroke-linecap="round"/>
<path d="M140.765 66.9125L142.419 85.978C143.552 86.7366 144.92 87.1455 146.325 87.1455C147.729 87.1455 149.098 86.7366 150.231 85.978C150.451 85.8205 150.658 85.6487 150.851 85.4639L150.33 66.4741C150.262 65.3142 149.693 64.2266 148.748 63.4504C147.803 62.6742 146.56 62.273 145.291 62.3352C144.023 62.3973 142.834 62.9177 141.985 63.7818C141.136 64.6459 140.697 65.7829 140.765 66.9428V66.9125Z" fill="#3D6498" stroke="#3D6498" stroke-miterlimit="10" stroke-linecap="round"/>
<path d="M201.14 58.4533C198.429 66.6253 186.458 77.8589 184.375 81.8202C179.703 90.7953 174.297 99.4353 168.204 107.667C166.145 110.486 163.922 110.887 162.566 111.9C160.582 113.412 159.565 114.962 156.175 117.366C150.479 121.418 145.684 117.645 148.809 109.851C151.934 102.057 157.672 91.2244 157.672 91.2244C157.672 91.2244 159.11 85.7436 153.249 80.9962" fill="white"/>
<path d="M201.14 58.4533C198.429 66.6253 186.458 77.8589 184.375 81.8202C179.703 90.7953 174.297 99.4353 168.204 107.667C166.145 110.486 163.922 110.887 162.566 111.9C160.582 113.412 159.565 114.962 156.175 117.366C150.479 121.418 145.684 117.645 148.809 109.851C151.934 102.057 157.672 91.2244 157.672 91.2244C157.672 91.2244 159.11 85.7436 153.249 80.9962" stroke="#3D6498" stroke-miterlimit="10" stroke-linecap="round"/>
<path d="M150.066 114.705L151.62 111.741C151.62 111.741 151.843 112.006 154.579 113.034C156.21 113.65 157.985 113.879 159.738 113.699C159.738 113.699 155.795 119.384 152.711 119.029C151.942 118.962 151.22 118.661 150.661 118.175C150.179 117.725 149.862 117.149 149.756 116.527C149.649 115.905 149.757 115.268 150.066 114.705Z" fill="white" stroke="#3D6498" stroke-miterlimit="10" stroke-linecap="round"/>
<path d="M172.933 1.01512L166.36 40.0456C166.36 40.0456 174.289 46.4184 184.821 48.1344C195.353 49.8504 214.583 52.451 214.583 52.451L231.415 1" fill="#3D6498"/>
<path d="M172.933 1.01512L166.36 40.0456C166.36 40.0456 174.289 46.4184 184.821 48.1344C195.353 49.8504 214.583 52.451 214.583 52.451L231.415 1" stroke="#3D6498" stroke-miterlimit="10" stroke-linecap="round"/>
<path d="M211.193 43.7271C211.193 44.3147 211.003 44.8891 210.646 45.3777C210.289 45.8663 209.781 46.2471 209.188 46.4719C208.594 46.6968 207.941 46.7556 207.31 46.641C206.68 46.5263 206.101 46.2434 205.647 45.8279C205.193 45.4124 204.883 44.883 204.758 44.3067C204.632 43.7304 204.697 43.1331 204.943 42.5902C205.189 42.0473 205.605 41.5833 206.139 41.2569C206.674 40.9304 207.302 40.7562 207.944 40.7562C208.806 40.7562 209.632 41.0692 210.242 41.6263C210.851 42.1835 211.193 42.9392 211.193 43.7271Z" fill="white" stroke="#3D6498" stroke-width="2" stroke-linecap="round" stroke-linejoin="round"/>
<path d="M157.266 105.066L156.712 104.552" stroke="#3D6498" stroke-miterlimit="10" stroke-linecap="round"/>
<path d="M164.839 108.022C164.839 108.022 162.491 109.186 158.366 105.988" stroke="#3D6498" stroke-miterlimit="10" stroke-linecap="round"/>
<path d="M159.837 104.907C159.837 104.907 160.945 104.552 164.401 106.419" stroke="#3D6498" stroke-miterlimit="10" stroke-linecap="round"/>
<path d="M157.15 107.009C158.521 108.181 160.167 109.05 161.962 109.549" stroke="#3D6498" stroke-miterlimit="10" stroke-linecap="round"/>
<path d="M159.524 234.23C159.524 234.23 160.276 241.359 162.004 245.857C163.732 250.355 163.831 254.8 159.474 254.036C156.862 253.575 155.15 250.506 155.15 250.506C155.15 250.506 158.515 254.475 156.382 258.512C154.249 262.549 146.957 255.322 146.957 255.322C146.957 255.322 149.917 263.426 146.842 263.509C143.766 263.592 140.782 259.888 138.864 258.565C136.946 257.242 131.969 244.957 129.662 243.4C127.356 241.843 118.981 243.196 116.088 246.711C113.194 250.226 107.325 245.638 115.542 234.215C123.76 222.792 134.367 215.77 141.675 216.405C148.983 217.04 159.524 234.23 159.524 234.23Z" fill="white" stroke="#3D6498" stroke-miterlimit="10" stroke-linecap="round"/>
<path d="M151.975 247.77L140.963 231.947C140.963 231.947 135.333 225.968 124.495 229.921" stroke="#3D6498" stroke-miterlimit="10" stroke-linecap="round"/>
<path d="M145.808 250.128L133.713 238.479C133.713 238.479 127.852 233.89 118.51 237.919" stroke="#3D6498" stroke-miterlimit="10" stroke-linecap="round"/>
<path d="M121.949 246.9L130.58 256.168L105.886 274.417C105.886 274.417 92.3938 280.541 87.3839 283.701C82.3739 286.861 55.0178 290.043 55.0178 290.043L49.9087 261.165C49.9087 261.165 65.8974 257.862 68.0138 256.017C70.1302 254.173 91.9887 230.639 94.8574 227.124C97.7261 223.609 112.4 220.472 112.4 220.472C112.4 220.472 118.965 218.514 126.298 212.549C133.631 206.585 143.063 208.558 146.618 211.559C150.173 214.56 159.846 222.898 161.756 228.598C163.665 234.298 164.608 240.49 159.895 238.895C152.066 236.241 148.04 221.265 138.566 223.163C134.234 224.032 122.561 232.99 121.023 234.14C121.023 234.14 117.435 242.138 121.949 246.9Z" fill="white" stroke="#3D6498" stroke-miterlimit="10" stroke-linecap="round"/>
<path d="M187.574 240.905C187.559 240.71 187.467 240.525 187.315 240.386C187.163 240.248 186.962 240.163 186.747 240.149L184.35 240.066C184.233 240.062 184.116 240.08 184.006 240.117C183.896 240.154 183.795 240.211 183.709 240.284C183.623 240.357 183.553 240.445 183.505 240.542C183.456 240.64 183.428 240.745 183.424 240.852C183.42 240.96 183.438 241.067 183.479 241.167C183.52 241.268 183.582 241.36 183.662 241.439C183.742 241.517 183.838 241.581 183.945 241.625C184.051 241.67 184.166 241.695 184.284 241.699L186.681 241.782C186.912 241.789 187.137 241.714 187.309 241.573C187.482 241.433 187.588 241.237 187.607 241.026C187.601 240.985 187.59 240.945 187.574 240.905Z" fill="#3D6498" stroke="#3D6498" stroke-miterlimit="10" stroke-linecap="round"/>
<path d="M184.813 240.837C184.76 240.392 184.533 239.98 184.175 239.674C183.817 239.369 183.351 239.192 182.862 239.174L176.025 238.101L103.703 233.845C103.075 233.822 102.448 233.913 101.857 234.113C101.267 234.312 100.726 234.616 100.264 235.006C99.8024 235.397 99.4293 235.867 99.1662 236.39C98.9031 236.912 98.7551 237.477 98.7307 238.052C98.7062 238.626 98.8059 239.2 99.0238 239.74C99.2418 240.279 99.5739 240.774 100.001 241.196C100.428 241.619 100.942 241.96 101.514 242.201C102.085 242.441 102.703 242.576 103.331 242.599L176.355 243.294L182.705 242.901C183.245 242.92 183.771 242.741 184.168 242.405C184.565 242.07 184.8 241.604 184.821 241.11C184.827 241.019 184.824 240.928 184.813 240.837Z" fill="black" stroke="#3D6498" stroke-miterlimit="10" stroke-linecap="round"/>
<path d="M103.703 233.845L124.57 235.077C125.413 236.105 125.876 237.351 125.892 238.635C125.909 239.92 125.477 241.176 124.661 242.221C124.487 242.421 124.302 242.613 124.107 242.795L103.356 242.599C102.728 242.576 102.11 242.441 101.539 242.201C100.967 241.96 100.453 241.619 100.026 241.196C99.5988 240.774 99.2667 240.279 99.0487 239.74C98.8308 239.2 98.7311 238.626 98.7556 238.052C98.78 237.477 98.928 236.912 99.1911 236.39C99.4542 235.867 99.8273 235.397 100.289 235.006C100.751 234.616 101.292 234.312 101.882 234.113C102.472 233.913 103.1 233.822 103.728 233.845H103.703Z" fill="#3D6498" stroke="#3D6498" stroke-miterlimit="10" stroke-linecap="round"/>
<path d="M87.3838 283.701C96.2462 280.994 113.508 270.297 118.129 269.073C122.751 267.848 134.06 265.898 141.583 261.165C149.107 256.433 154.753 252.441 159.102 247.165C163.45 241.888 159.25 237.572 150.768 240.543C142.286 243.513 130.505 248.949 130.505 248.949C130.505 248.949 124.537 250.34 119.254 245.048" fill="white"/>
<path d="M87.3838 283.701C96.2462 280.994 113.508 270.297 118.129 269.073C122.751 267.848 134.06 265.898 141.583 261.165C149.107 256.433 154.753 252.441 159.102 247.165C163.45 241.888 159.25 237.572 150.768 240.543C142.286 243.513 130.505 248.949 130.505 248.949C130.505 248.949 124.537 250.34 119.254 245.048" stroke="#3D6498" stroke-miterlimit="10" stroke-linecap="round"/>
<path d="M156.101 241.661L152.876 243.12C152.876 243.12 153.174 243.324 154.34 245.804C155.047 247.287 155.331 248.91 155.166 250.521C155.166 250.521 161.326 246.832 160.887 244.012C160.803 243.31 160.465 242.653 159.928 242.145C159.426 241.708 158.787 241.426 158.1 241.339C157.413 241.252 156.714 241.365 156.101 241.661Z" fill="white" stroke="#3D6498" stroke-miterlimit="10" stroke-linecap="round"/>
<path d="M66.3025 254.944C66.3025 254.944 74.206 264.718 75.5039 273.185C76.3139 278.853 76.7391 284.561 76.7771 290.278L52.6451 295.569C52.6451 295.569 51.5539 281.841 49.4044 274.402C47.8909 269.397 46.0128 264.49 43.7827 259.714L66.3025 254.944Z" fill="white" stroke="#3D6498" stroke-miterlimit="10" stroke-linecap="round"/>
<path d="M67.4021 271.998C65.2526 262.413 58.1015 255.314 58.1015 255.314L1 263.63V322.595L68.5595 297.111C68.5595 297.111 69.5433 281.584 67.4021 271.998Z" fill="#3D6498" stroke="#3D6498" stroke-miterlimit="10" stroke-linecap="round"/>
<path d="M52.0996 297.603C52.1094 298.064 51.9681 298.517 51.694 298.905C51.4198 299.292 51.0253 299.596 50.561 299.776C50.0968 299.957 49.5841 300.006 49.0888 299.919C48.5935 299.831 48.1382 299.61 47.7815 299.283C47.4247 298.957 47.1828 298.541 47.0868 298.088C46.9907 297.635 47.045 297.166 47.2426 296.742C47.4402 296.317 47.7721 295.957 48.1956 295.706C48.6192 295.455 49.115 295.326 49.6194 295.335C50.2732 295.347 50.8967 295.589 51.3591 296.012C51.8215 296.435 52.0869 297.005 52.0996 297.603Z" fill="white"/>
<path d="M59.1928 294.851C59.1912 295.308 59.0414 295.755 58.7624 296.134C58.4835 296.514 58.0878 296.809 57.6254 296.983C57.163 297.157 56.6546 297.202 56.1645 297.111C55.6743 297.021 55.2243 296.8 54.8713 296.477C54.5184 296.153 54.2783 295.741 54.1813 295.292C54.0844 294.844 54.1349 294.379 54.3267 293.957C54.5184 293.534 54.8426 293.173 55.2584 292.92C55.6743 292.666 56.1631 292.53 56.663 292.53C56.996 292.53 57.3256 292.59 57.6331 292.707C57.9405 292.824 58.2198 292.995 58.4548 293.211C58.6898 293.426 58.876 293.682 59.0026 293.964C59.1293 294.245 59.1939 294.547 59.1928 294.851Z" fill="white"/>
<path d="M140.062 250.65L139.5 250.151" stroke="#3D6498" stroke-miterlimit="10" stroke-linecap="round"/>
<path d="M143.41 257.537C143.41 257.537 144.651 255.367 141.087 251.64" stroke="#3D6498" stroke-miterlimit="10" stroke-linecap="round"/>
<path d="M139.938 253.001C139.938 253.001 139.558 254.021 141.633 257.151" stroke="#3D6498" stroke-miterlimit="10" stroke-linecap="round"/>
<path d="M142.212 250.514C143.518 251.75 144.494 253.245 145.064 254.883" stroke="#3D6498" stroke-miterlimit="10" stroke-linecap="round"/>
</svg>
