<svg width="15" height="15" viewBox="0 0 15 15" fill="none" xmlns="http://www.w3.org/2000/svg">
<path d="M3.125 4.82115C3.125 3.82656 3.58594 2.8727 4.40641 2.16942C5.22688 1.46614 6.33968 1.07104 7.5 1.07104C8.66032 1.07104 9.77312 1.46614 10.5936 2.16942C11.4141 2.8727 11.875 3.82656 11.875 4.82115C11.875 4.96323 11.9408 5.0995 12.0581 5.19996C12.1753 5.30043 12.3342 5.35688 12.5 5.35688C12.6658 5.35688 12.8247 5.30043 12.9419 5.19996C13.0592 5.0995 13.125 4.96323 13.125 4.82115C13.1249 3.99887 12.8795 3.19028 12.4121 2.47222C11.9447 1.75416 11.2708 1.1505 10.4544 0.718615C9.63812 0.286729 8.7065 0.0409689 7.74815 0.0046946C6.78978 -0.0315797 5.83652 0.142837 4.97897 0.511366C4.12142 0.879896 3.38807 1.43029 2.84863 2.11024C2.30918 2.79019 1.98157 3.57709 1.89694 4.39616C1.8123 5.21523 1.97345 6.03924 2.36506 6.78988C2.75667 7.54051 3.36574 8.19283 4.13437 8.68483C4.79349 9.10686 5.55257 9.39982 6.35813 9.54306C6.47002 9.75821 6.66152 9.93575 6.90298 10.0482C7.14444 10.1607 7.42241 10.2018 7.69389 10.1652C7.96536 10.1287 8.21521 10.0164 8.40478 9.84589C8.59435 9.67535 8.71307 9.45602 8.74258 9.22182C8.77208 8.98763 8.71073 8.75163 8.56802 8.55033C8.4253 8.34903 8.20917 8.19365 7.95306 8.10824C7.69696 8.02282 7.41515 8.01213 7.15124 8.07782C6.88733 8.1435 6.65603 8.2819 6.49312 8.4716C5.53412 8.2772 4.67977 7.81097 4.06847 7.14843C3.45717 6.48589 3.12473 5.66585 3.125 4.82115ZM3.75 4.82115C3.75025 4.2298 3.94079 3.64998 4.30068 3.14547C4.66056 2.64097 5.17583 2.23134 5.7898 1.96165C6.40376 1.69197 7.09261 1.57268 7.78056 1.61693C8.4685 1.66117 9.12888 1.86722 9.68902 2.21241C10.2492 2.5576 10.6874 3.02855 10.9554 3.57343C11.2234 4.11832 11.3109 4.71603 11.2082 5.30078C11.1055 5.88553 10.8166 6.43467 10.3733 6.88777C9.93003 7.34087 9.3495 7.68037 8.69563 7.86891C8.35936 7.63032 7.93652 7.49978 7.5 7.49979C7.04563 7.49979 6.62937 7.63855 6.30437 7.86891C5.55984 7.65423 4.91276 7.24456 4.45444 6.69772C3.99613 6.15088 3.74972 5.49447 3.75 4.82115ZM7.5 2.67823C6.83696 2.67823 6.20107 2.904 5.73223 3.30588C5.26339 3.70775 5 4.25281 5 4.82115C5 5.38948 5.26339 5.93454 5.73223 6.33642C6.20107 6.73829 6.83696 6.96406 7.5 6.96406C8.16304 6.96406 8.79893 6.73829 9.26777 6.33642C9.73661 5.93454 10 5.38948 10 4.82115C10 4.25281 9.73661 3.70775 9.26777 3.30588C8.79893 2.904 8.16304 2.67823 7.5 2.67823ZM2.1875 8.57125H3.03688C3.53929 9.01124 4.12643 9.3737 4.7725 9.64271H2.1875C1.93886 9.64271 1.7004 9.72737 1.52459 9.87808C1.34877 10.0288 1.25 10.2332 1.25 10.4463V10.7142C1.25 11.5033 1.8375 12.294 2.97437 12.9139C4.10375 13.53 5.70187 13.9285 7.49937 13.9285C9.29812 13.9285 10.8962 13.53 12.0256 12.9139C13.1631 12.2946 13.75 11.5028 13.75 10.7142V10.4463C13.75 10.2332 13.6512 10.0288 13.4754 9.87808C13.2996 9.72737 13.0611 9.64271 12.8125 9.64271H9.26875C9.41173 9.29607 9.41173 8.91789 9.26875 8.57125H12.8125C13.3927 8.57125 13.9491 8.7688 14.3593 9.12044C14.7695 9.47208 15 9.94901 15 10.4463V10.7142C15 11.9962 14.0481 13.0805 12.6969 13.8176C11.3381 14.5591 9.49875 15 7.5 15C5.50125 15 3.6625 14.5591 2.30312 13.8176C0.951875 13.0805 0 11.9962 0 10.7142V10.4463C0 9.94901 0.230468 9.47208 0.640704 9.12044C1.05094 8.7688 1.60734 8.57125 2.1875 8.57125Z" fill="#FAFAFA"/>
</svg>
